<svg width="33" height="33" viewBox="0 0 33 33" fill="none" xmlns="http://www.w3.org/2000/svg">
<path d="M12.0585 15.5784L9.40247 18.4264L7.09847 16.9224C6.87447 16.7944 6.61847 16.8264 6.42647 16.9864L5.21047 18.2024C5.01847 18.4264 5.01847 18.7464 5.21047 18.9384L7.57847 21.3064L4.21847 24.7304L3.45047 23.9624C3.25847 23.7704 2.90647 23.7704 2.71447 23.9624L1.75447 24.9224C1.59447 25.0824 1.53047 25.3384 1.65847 25.5304L2.20247 26.6184C2.42647 27.0664 2.71447 27.4504 3.06647 27.8024C3.41847 28.1544 3.80247 28.4424 4.25047 28.6664L5.37047 29.2424C5.56247 29.3384 5.81847 29.3064 5.97847 29.1464L6.93847 28.1864C7.16247 27.9624 7.16247 27.6424 6.93847 27.4504L6.17047 26.7144L9.56247 23.3224L11.9305 25.6904C12.1545 25.9144 12.4745 25.9144 12.6665 25.6904L13.8825 24.4744C14.0745 24.2824 14.1065 24.0264 13.9465 23.8024L12.4425 21.4984L15.4185 18.7144L12.0585 15.5784Z" fill="white" fill-opacity="0.87"/>
<path d="M25.2425 9.62638C25.3385 9.53038 25.4025 9.40238 25.4345 9.30638L26.6185 5.14638C26.7465 4.66638 26.2345 4.15438 25.7545 4.28238L21.5945 5.46638C21.4665 5.49838 21.3705 5.56238 21.2745 5.65838L18.0425 9.14638L21.6265 12.9864L25.2425 9.62638Z" fill="white" fill-opacity="0.87"/>
<path d="M31.8344 24.9224L30.8744 23.9624C30.6824 23.7704 30.3304 23.7704 30.1384 23.9624L29.4024 24.6984L25.9784 21.3064L28.3464 18.9384C28.5384 18.7464 28.5384 18.3944 28.3464 18.2024L27.1304 16.9864C26.9704 16.8264 26.6824 16.7944 26.4584 16.9224L24.1544 18.4264L12.3144 5.69037C12.2184 5.59437 12.1224 5.53036 11.9944 5.49836L7.86638 4.31436C7.38638 4.18636 6.87438 4.69836 7.00238 5.17836L8.15438 9.30637C8.18638 9.43437 8.25038 9.53036 8.34638 9.62637L21.0824 21.4984L19.5784 23.8024C19.4504 23.9944 19.4824 24.2824 19.6424 24.4744L20.8584 25.6904C21.0504 25.8824 21.4024 25.8824 21.5944 25.6904L23.9624 23.3224L27.4184 26.7144L26.6824 27.4504C26.4904 27.6424 26.4904 27.9944 26.6824 28.1864L27.6424 29.1464C27.8024 29.3064 28.0584 29.3384 28.2504 29.2424L29.3384 28.6664C29.7864 28.4424 30.1704 28.1544 30.5224 27.8024C30.8744 27.4504 31.1624 27.0664 31.3864 26.6184L31.9624 25.5304C32.0264 25.3384 31.9944 25.0824 31.8344 24.9224Z" fill="white" fill-opacity="0.87"/>
</svg>
