<svg width="33" height="33" viewBox="0 0 33 33" fill="none" xmlns="http://www.w3.org/2000/svg">
<path d="M26.5034 16.2235H27.5885C27.3029 10.6839 22.9055 6.28652 17.3659 6.00098V7.08605C17.3659 7.42871 17.1375 7.65714 16.7948 7.65714C16.4522 7.65714 16.2237 7.42871 16.2237 7.08605V6.00098C10.6841 6.28652 6.28671 10.6839 6.00116 16.2235H7.08624C7.42889 16.2235 7.65733 16.452 7.65733 16.7946C7.65733 17.1373 7.42889 17.3657 7.08624 17.3657H6.00116C6.28671 22.9053 10.7412 27.3027 16.2237 27.5883V26.5032C16.2237 26.1605 16.4522 25.9321 16.7948 25.9321C17.1375 25.9321 17.3659 26.1605 17.3659 26.5032V27.5883C22.9055 27.3027 27.3029 22.8482 27.5885 17.3657H26.5034C26.1607 17.3657 25.9323 17.1373 25.9323 16.7946C25.9323 16.452 26.1607 16.2235 26.5034 16.2235ZM12.169 22.1629C12.1119 22.1629 11.9976 22.22 11.9405 22.22C11.7692 22.22 11.655 22.1629 11.5408 22.0487C11.3694 21.8773 11.3123 21.6489 11.4265 21.4205L14.1678 14.9671L18.6223 19.4216L12.169 22.1629ZM22.1631 12.1688L19.4218 18.6221L14.9673 14.1676L21.4207 11.4264C21.6491 11.3121 21.8775 11.3692 22.0489 11.5406C22.2202 11.7119 22.2773 11.9403 22.1631 12.1688Z" fill="white" fill-opacity="0.87"/>
<path d="M16.7948 3.46118C9.43479 3.46118 3.46146 9.43451 3.46146 16.7945C3.46146 24.1545 9.43479 30.1278 16.7948 30.1278C24.1548 30.1278 30.1281 24.1545 30.1281 16.7945C30.1281 9.43451 24.1548 3.46118 16.7948 3.46118ZM16.7948 27.9945C10.6081 27.9945 5.59479 22.9812 5.59479 16.7945C5.59479 10.6078 10.6081 5.59451 16.7948 5.59451C22.9815 5.59451 27.9948 10.6078 27.9948 16.7945C27.9948 22.9812 22.9815 27.9945 16.7948 27.9945Z" fill="white" fill-opacity="0.87"/>
</svg>
