<svg width="32" height="32" viewBox="0 0 32 32" fill="none" xmlns="http://www.w3.org/2000/svg">
<path d="M16 10.0666C12.8533 7.13331 8.64 5.33331 4 5.33331V22.6666C8.64 22.6666 12.8533 24.4666 16 27.4C19.1467 24.48 23.36 22.6666 28 22.6666V5.33331C23.36 5.33331 19.1467 7.13331 16 10.0666ZM25.3333 20.1733C21.96 20.6266 18.76 21.9066 16 23.9333C13.2533 21.9066 10.04 20.6133 6.66667 20.16V8.22665C9.46667 8.73331 12.0667 10.0266 14.1867 12L16 13.7066L17.8133 12.0133C19.9333 10.04 22.5333 8.74665 25.3333 8.23998V20.1733Z" fill="#041A26"/>
</svg>
