<svg width="24" height="24" viewBox="0 0 24 24" fill="none" xmlns="http://www.w3.org/2000/svg">
<path d="M12 24C18.6274 24 24 18.6274 24 12C24 5.37258 18.6274 0 12 0C5.37258 0 0 5.37258 0 12C0 18.6274 5.37258 24 12 24Z" fill="#FFCC4D"/>
<path d="M12 19.3334C13.1046 19.3334 14 18.4379 14 17.3334C14 16.2288 13.1046 15.3334 12 15.3334C10.8954 15.3334 10 16.2288 10 17.3334C10 18.4379 10.8954 19.3334 12 19.3334Z" fill="#664500"/>
<path d="M11.5414 11.0747C11.424 10.9793 11.2567 10.9767 11.1347 11.0653C11.1267 11.0713 10.2947 11.6667 8.66671 11.6667C7.03937 11.6667 6.20671 11.0713 6.20004 11.0667C6.07804 10.9753 5.91004 10.978 5.79271 11.0727C5.67404 11.1673 5.63404 11.33 5.69537 11.4687C5.73537 11.5587 6.69537 13.6667 8.66671 13.6667C10.6387 13.6667 11.598 11.5587 11.638 11.4687C11.6994 11.3307 11.6594 11.1693 11.5414 11.0747ZM18.208 11.0747C18.0907 10.9793 17.924 10.976 17.8014 11.0653C17.7934 11.0713 16.9607 11.6667 15.3334 11.6667C13.7067 11.6667 12.8734 11.0713 12.8667 11.0667C12.7447 10.9753 12.5774 10.978 12.4594 11.0727C12.3407 11.1673 12.3007 11.33 12.362 11.4687C12.402 11.5587 13.362 13.6667 15.3334 13.6667C17.3054 13.6667 18.2647 11.5587 18.3047 11.4687C18.366 11.3307 18.326 11.1693 18.208 11.0747Z" fill="#664500"/>
<path d="M22.9533 8.35605C22.956 8.32672 22.9686 8.30472 22.9686 8.27405C22.9686 7.77139 22.6033 7.48205 22.152 7.48205H19.764L22.6166 3.48672C22.754 3.29805 22.8046 3.18472 22.8046 2.94605C22.8046 2.45605 22.378 2.38005 22.2146 2.38005H18.6486L18.6273 1.92139C18.6273 1.92139 17.688 2.47539 17.6253 2.51339C17.5626 2.55139 17.2886 2.76139 17.2886 3.17139C17.2886 3.67405 17.6526 3.96272 18.1053 3.96272H20.2046L17.364 7.95805C17.3013 8.05872 17.2013 8.24672 17.2013 8.44805C17.2013 8.86272 17.54 9.06405 17.942 9.06405H22.152C22.324 9.06405 22.4953 9.01339 22.606 8.94672L23.608 8.35472H22.9533V8.35605Z" fill="#FFAC33"/>
<path d="M21.1807 3.38936H19.0814C18.6287 3.38936 18.2647 3.1007 18.2647 2.59803C18.2647 2.09536 18.6287 1.80603 19.0814 1.80603H23.1907C23.354 1.80603 23.7807 1.88136 23.7807 2.37136C23.7807 2.61003 23.73 2.72336 23.5927 2.91203L20.74 6.90736H23.128C23.5794 6.90736 23.9447 7.19603 23.9447 7.6987C23.9447 8.20136 23.5794 8.49003 23.128 8.49003H18.918C18.516 8.49003 18.1774 8.2887 18.1774 7.87403C18.1774 7.6727 18.2774 7.4847 18.34 7.38403L21.1807 3.38936Z" fill="#2A6797"/>
<path d="M16.5907 4.98665C16.5927 4.96465 16.6027 4.94799 16.6027 4.92532C16.6027 4.54932 16.3293 4.33265 15.9913 4.33265H14.2033L16.3387 1.34132C16.4427 1.19999 16.48 1.11532 16.48 0.937321C16.48 0.570654 16.1607 0.513988 16.038 0.513988H13.3687L13.3527 0.170654C13.3527 0.170654 12.6493 0.585321 12.6027 0.613988C12.556 0.642654 12.3507 0.799988 12.3507 1.10665C12.3507 1.48265 12.6233 1.69932 12.962 1.69932H14.5333L12.4067 4.69065C12.36 4.76599 12.2847 4.90665 12.2847 5.05732C12.2847 5.36799 12.538 5.51799 12.8393 5.51799H15.9913C16.12 5.51799 16.248 5.47999 16.3313 5.42999L17.0813 4.98665H16.5907Z" fill="#FFAC33"/>
<path d="M15.2639 1.26871H13.6926C13.3539 1.26871 13.0813 1.05271 13.0813 0.676041C13.0813 0.300041 13.3539 0.083374 13.6926 0.083374H16.7693C16.8919 0.083374 17.2113 0.140041 17.2113 0.506707C17.2113 0.685374 17.1733 0.770041 17.0706 0.911374L14.9353 3.90271H16.7233C17.0599 3.90271 17.3333 4.11871 17.3333 4.49537C17.3333 4.87204 17.0599 5.08804 16.7219 5.08804H13.5699C13.2686 5.08804 13.0153 4.93737 13.0153 4.62737C13.0153 4.47671 13.0906 4.33604 13.1373 4.26071L15.2639 1.26871Z" fill="#2A6797"/>
<path d="M11.8274 6.94994C11.8294 6.93127 11.8374 6.91727 11.8374 6.89727C11.8374 6.57527 11.6034 6.38994 11.314 6.38994H9.78402L11.612 3.82994C11.7 3.70927 11.7327 3.6366 11.7327 3.48394C11.7327 3.16994 11.4594 3.12127 11.3547 3.12127H9.07002L9.05602 2.82727L8.41402 3.2066C8.37402 3.23127 8.19802 3.36527 8.19802 3.6286C8.19802 3.9506 8.43136 4.13594 8.72136 4.13594H10.066L8.24602 6.69594C8.20602 6.7606 8.14136 6.88127 8.14136 7.00994C8.14136 7.27594 8.35869 7.4046 8.61602 7.4046H11.314C11.424 7.4046 11.534 7.37194 11.6047 7.32927L12.2467 6.94994H11.8274Z" fill="#FFAC33"/>
<path d="M10.6914 3.76796H9.34672C9.05672 3.76796 8.82339 3.58263 8.82339 3.26063C8.82339 2.93863 9.05672 2.7533 9.34672 2.7533H11.9801C12.0847 2.7533 12.3581 2.80196 12.3581 3.11596C12.3581 3.26863 12.3261 3.3413 12.2374 3.46196L10.4094 6.02196H11.9394C12.2287 6.02196 12.4627 6.2073 12.4627 6.5293C12.4627 6.8513 12.2287 7.03663 11.9394 7.03663H9.24139C8.98406 7.03663 8.76672 6.90796 8.76672 6.64196C8.76672 6.5133 8.83072 6.39263 8.87139 6.32796L10.6914 3.76796Z" fill="#2A6797"/>
</svg>
