<?xml version="1.0" encoding="utf-8"?>
<!-- Generator: Adobe Illustrator 25.3.1, SVG Export Plug-In . SVG Version: 6.00 Build 0)  -->
<svg version="1.1" xmlns="http://www.w3.org/2000/svg" xmlns:xlink="http://www.w3.org/1999/xlink" x="0px" y="0px"
	 viewBox="0 0 1105.3 1074.4" style="enable-background:new 0 0 1105.3 1074.4;" xml:space="preserve">
<style type="text/css">
	.st0{fill:none;}
	.st1{fill:#FFFFFFDD;}
	.st2{fill:transparent;}
	.st3{fill:url(#Nouvelle_nuance_de_motif_2);}
	.st4{fill:none;stroke:#FFFFFFDD;stroke-width:5;stroke-linecap:round;stroke-miterlimit:10;}
	.st5{fill:none;stroke:#FFFFFFDD;stroke-width:5;stroke-miterlimit:10;}
</style>
<pattern  y="1037.3" width="11" height="11" patternUnits="userSpaceOnUse" id="Nouvelle_nuance_de_motif_2" viewBox="0.2 -11 11 11" style="overflow:visible;">
	<g>
		<rect x="0.2" y="-11" class="st0" width="11" height="11"/>
		<circle class="st1" cx="2.7" cy="-8.5" r="2.5"/>
		<rect x="0.2" y="-11" class="st0" width="11" height="11"/>
	</g>
</pattern>
<g id="Calque_2">
	<rect class="st2" width="1105.3" height="1074.4"/>
</g>
<g id="Calque_3">
	<path class="st3" d="M186,717.5c-1-1.3-1.4-3-1.1-4.7c0.1-0.5,0.2-1.1,0.3-1.6c0-0.2,0.1-0.4,0.1-0.4c0,0,0-0.1,0-0.4
		c0.1-1.1,0.2-2.1,0.2-3.2c0-1.4,0.6-2.7,1.6-3.6c0-0.1,0-0.2-0.1-0.3c-0.3-0.4-0.5-0.9-0.6-1.4c-0.2-0.9-0.3-1.8-0.4-2.7
		c0-0.1,0-0.3-0.1-0.4c0,0,0-0.1-0.1-0.2c-0.3-1.2-0.2-2.4,0.4-3.5c-0.7-1.8-1.7-3.4-3-4.6c1.3-8.5-5.2-12.2-13.1-10.9
		c-9.6,1.6-19.1,4-28.4,6.9c-2.7,0.8-4.1,2.8-4.4,5c-3.4,0.6-6.9,2-10.2,3.6c-1,0.1-2,0.2-3.1,0.5c-2.9,0.8-5.6,2.2-8.2,3.8
		c0,0.8-0.3,1.6-0.7,2.3c-0.3,0.3-0.5,0.7-0.8,1c-0.6,0.6-1.4,1-2.2,1.3c-0.4,0.1-0.9,0.1-1.3,0.2c-0.6,0-1.2-0.1-1.7-0.3
		c0,0,0,0-0.1,0c-1.5,1-3.1,1.9-4.7,2.9c-4.5,6.3-11.2,11-16.3,16.8c-0.6,0.8-1.2,1.7-1.8,2.6c-0.1,0.7-0.3,1.4-0.7,2.1
		c-2.1,3.6-4.6,6.9-6.4,10.7c-1,2-2.6,2.7-4.3,2.5c-0.4,1-0.8,2-1.1,3.1c-2.5,8.1,4,16.4,12,17c1.4-1.5,3.7-2.4,6.1-1.4
		c2.1,0.9,4.2,1.4,6.4,1.7c0.1-0.2,0.2-0.3,0.3-0.5c1-1.4,2.5-2.7,4.3-2.5c1.2,0.1,2,0.3,3.1,0.9c0.8,0.5,1.5,1.2,2,2
		c1.8-0.2,3.5-0.4,5.2-0.7c3-0.5,5.7-0.2,7.8,0.9c4-0.8,7.9-1.8,11.8-3.1c4,2.2,7.9,2.8,11.7,2.2c6.1,2.3,13.3,0,19.2-4
		c-0.2-0.6-0.4-1.3-0.4-2c0-0.3-0.1-0.6-0.1-0.9c0-1.3,0.6-2.6,1.5-3.5c0.7-0.8,2.4-1.6,3.5-1.5c0.2,0,0.4,0.1,0.6,0.1
		c1-0.1,1.9,0.1,2.7,0.4c0.9-1.1,1.7-2.3,2.5-3.5c-0.3-1-0.5-2-0.4-3c0.1-1.4,0.5-2.5,1.5-3.5c0.8-0.9,2-1.3,3.2-1.4
		c0-0.1,0-0.1,0.1-0.2c0.2,0,0.5-0.1,0.7-0.1c1.1-0.3,2.1-0.9,2.9-1.7c0.3-0.4,0.7-0.9,1-1.3c0.6-1,0.9-2.1,0.9-3.3v-0.3
		c0-0.9-0.2-1.7-0.6-2.5c-0.3-0.8-0.7-1.5-1.3-2.1c-0.1-0.1-0.3-0.3-0.4-0.4c0-0.1,0.1-0.3,0.1-0.4
		C183.5,723.5,184.9,720.6,186,717.5z"/>
	<path class="st3" d="M330.5,554.9c-0.1-0.5-0.7-4.1-0.8-4.1c0-1-0.1-4-0.2-3.7c0.4-1.5,1.3-2.6-0.1-0.8c4.3-5.2,5.5-12.1,1.1-17.7
		c-0.3-0.4-0.7-0.8-1-1.1c0.1-0.4,0.1-0.8,0.1-1.2l-0.2-1.7c-0.3-1.1-0.9-2.1-1.7-2.9c-0.4-0.3-0.9-0.7-1.3-1
		c-1-0.6-2.1-0.9-3.3-0.9h-0.3c-0.9,0-1.7,0.2-2.5,0.6c-0.8,0.3-1.5,0.7-2.1,1.3c-0.5,0.5-0.9,1.1-1.2,1.7c-1.4,0.3-2.7,0.8-4,1.7
		c-2.4,1.8-4.9,3.5-7.5,5.1c0,0,0,0-0.1-0.1c-0.6-0.6-1.4-1-2.2-1.2c-1.7-0.4-3.5-0.3-5,0.7c-1.2,0.7-2.3,1.6-3.4,2.5
		c-0.6,0.6-1.1,1.3-1.3,2.1c-0.4,0.8-0.6,1.6-0.6,2.5c0,0,0,0,0,0c-2.7,1.1-5.7,2.1-8.6,3c-1.6,0.5-3.3,0.9-4.9,1.3
		c-0.1,0-0.4,0.1-0.7,0.1c0,0-0.1,0-0.1,0c-4.5-1.4-9.9,0.1-13.1,3.5c-5.9,6.2-5.3,15.5,0.4,20.7c-1.3,2.7-1.7,5.8-0.5,8.7
		c2.9,7.2,5.9,14.4,8.8,21.6c2.6,7.6,4.6,15.5,6.1,23.4c0.8,1.9,1.5,3.9,2.2,5.8c1.3,1.8,3.1,3.2,5.2,4.2c-0.4,2.3-0.8,4.7-1.2,7.1
		c2.2,6.9,4.1,14,6.6,20.8c0.6,0.3,1.3,0.6,2,0.8c1.7,0.5,3.7,0.5,5.6,0.2c1.1-4.9,2.1-9.9,3.5-14.8c1.6-5.7,4.6-10.9,6.1-16.6
		c0.6-2.1,2-3.2,3.6-3.5c1.3-5.5,2.5-11.1,4.3-16.5c1.9-5.7,4.1-11.2,5.3-17.1c0.5-2.2,2-3.3,3.7-3.6c3.1-8,6.2-15.8,4.6-24.7
		C331.4,558.9,330.9,556.9,330.5,554.9z"/>
	<path class="st3" d="M372.9,628.6c-0.8,9-0.2,18.1-0.4,27.1c-0.1,5.1-0.2,10.2-0.2,15.3c0.2-2.6,0.5-5.3,0.6-7.9
		c0.7-12.3,0.7-24.6,0.2-37C373,627,373,627.8,372.9,628.6z"/>
	<path class="st3" d="M378.8,706.2c-6.3-1.5-11.9-7.6-14.3-13.4c-3.3-7.8-2.2-17.5-2.2-25.8c0-10.2,0.2-20.4,0.3-30.5
		c0-9.1,1.6-17.4-0.6-26.2c-0.6-0.1-1.3-0.2-1.9-0.2c-4.7,13-10.8,25.4-14.6,38.7c-4.7,16.3-7.6,33.1-15.1,48.6
		c-1.1,2.3-3.1,2.9-5,2.4c-0.1,0.2-0.1,0.5-0.2,0.7c-2.2,7,2.6,14.7,9.4,16.6c4.4,1.2,8.7,0.1,11.9-2.6c7.4,0,14.8,0,22.2,0
		c5.4,0,10.3-3.4,12.3-8.2C380.3,706.3,379.5,706.4,378.8,706.2z"/>
	<path class="st3" d="M594.9,591c-0.2-0.8-0.4-1.7-0.6-2.5c-0.8-0.4-1.4-1-2-1.8c-2.6-3.8-5.1-7.7-8.2-11.2
		c-0.1-0.1-0.1-0.1-0.1-0.2c-4.7-3.4-8.7-7.6-12.9-11.6c0,0,0,0,0,0c-1.8-0.6-3.6-1-5.5-1.2c-1.4-0.2-2.8-0.2-4.3-0.1
		c-5.5-2.7-11.4-4.2-17.5-3.8c-0.5,0-1,0.1-1.4,0.2c-0.1,0-0.3-0.1-0.4-0.1c-5.1,0.7-10.2,0.8-15.3,1.6c-6.8,1.1-13.4,3.6-19.6,6.5
		c-1.8,0.8-3.5,0.6-4.9-0.2c-4.5,4.3-8.1,9.8-10.5,15.8c1.4,1.6,1.6,4,0.6,5.9c-0.1,0.3-0.3,0.5-0.4,0.8c-0.3,0.6-0.5,1.2-0.9,1.8
		c-0.2,0.3-0.4,0.6-0.7,0.9c-0.4,0.6-0.9,1.3-1.4,1.9c-1.1,1.4-3.3,1.7-4.9,1.3c-0.4-0.1-0.9-0.3-1.3-0.6c-0.3,0.6-0.6,1.3-0.9,1.9
		c0.3,0.5,0.6,1.1,0.7,1.7c0.3,2.3,0.3,4.5,0.2,6.7c0.3,1,0.4,2,0.3,3.1c-0.2,1.5-0.5,3.1-0.8,4.6c-0.3,1.8-0.5,3.5-0.5,5.3
		c0,2-1.1,3.4-2.5,4.2c1.2,5.5,3.4,10.9,6.5,15.6c0.2,0.6,0.4,1.2,0.6,1.8c1.5,0.2,2.9,0.9,3.6,2.4c1.5,3.1,2.4,6.3,3.3,9.6
		c0,0.1,0,0.1,0,0.2c6.4,6.4,13.9,11.5,20.1,18c0.5,0.5,0.8,1,1,1.6c6.3,1.5,13,0.8,19.5,1.7c0.4,0.1,0.7,0.1,1,0.3
		c2.4,0.2,4.8,0.1,7.2-0.1c2.8,0.9,5.7,1.4,8.7,1.6c5.6-1.8,11.4-3,16.8-5.6c7.6-3.7,14.3-8.8,20.4-14.5c0.9-1.4,1.8-2.7,2.6-4.1
		c2.7-5.1,4.6-10.7,5.5-16.4c0.4-2.3,0.6-4.7,0.8-7.2c2.9-10.1,3.4-20.9,0.3-30.3C596.6,594.6,595.8,592.7,594.9,591z"/>
	<path class="st3" d="M932.9,698.1c-0.2-1.3-0.5-2.6-0.9-3.9c-1-0.4-2-1.2-2.7-2.1c-2.2-2.9-3.8-6.3-5.6-9.4
		c-0.7-1.2-0.8-2.3-0.7-3.3c-0.1-1.4,0.4-2.7,1.3-3.7c-0.8-1.3-1.6-2.7-2.5-4c-0.4-0.5-0.7-1-1.1-1.5c-1.9,0.2-3.6,0.1-5.1-0.5
		c-0.6,0.2-1.1,0.3-1.7,0.5c-2.3,1.1-5.4,2.4-8.6,3.1c-0.1,0-0.2,0.1-0.3,0.1c-0.6,0.2-1.2,0.3-1.8,0.3c-3.6,0.5-7,0-8.9-2.9
		c-0.4,0.2-0.8,0.4-1.2,0.6c-0.5-0.2-0.9-0.3-1.4-0.4c1.1,3.1-1.5,7.8-6,7.1c-2.2-0.4-6.2,2-8.6,2.3c-2.7,0.4-4.7-0.9-5.6-2.7
		c0,0,0,0-0.1,0c-4.5,0.8-9.1,1.6-13.6,1.9c-2.9,0.8-5.8,1.6-8.8,2.3c-1.5,0.4-2.9,0-4-0.9c-0.6,0.8-1.2,1.7-1.6,2.6
		c4.5,1.7,4,9.4-1.5,9.7c0.9,1,1.4,2.3,1.3,3.7c0,0.2,0,0.4,0,0.5c0,1.1-0.5,2.8-1.5,3.5c0,0-0.1,0.1-0.1,0.1
		c-0.3,0.5-0.7,1-1.2,1.4c-1.6,1.6-4.1,1.8-6.1,0.8c-0.4-0.2-0.7-0.4-1-0.7c-0.2,0.5-0.4,1-0.6,1.5c-1.5,4.3,0.1,9.3,3.2,12.7
		c1.1-0.4,2.4-0.2,3.7,0.8c2.7,2.1,4.4,4.4,5.9,7.4c0.5,1.1,0.7,2.1,0.5,3.1c0.1,0.2,0.2,0.4,0.2,0.6c0.5,1.3,0.3,2.4-0.2,3.4
		c0.4,1.5,0.7,2.9,1,4.4c3.6,1.7,6.9,1.8,9.9,0.9c2.7-0.5,5.2-1.8,7-3.7c0.5-0.6,1.1-1.2,1.6-1.8c4-3.8,7.4-8.6,10.5-12.4
		c0.7-0.9,1.4-1.7,2.2-2.6c0.3,0.2,0.7,0.3,1,0.4c0.9-0.8,1.7-1.4,2.8-1.9c0.9-0.4,1.9-0.6,2.8-0.5c2.3-0.8,4.8-1.3,7-1.1
		c1.1,0.1,1.3,0.1,2.1,0.5c0.1,0.1,0.5,0.4,0.9,0.7c0.1,0,0.2,0,0.4,0.1c1-0.5,2.2-0.7,3.6-0.4c1.9,0.5,3.7,1,5.5,1.7
		c0.1,0,0.3,0,0.4,0.1c1.5,0.4,3,1,4.3,1.6c0.3,0,0.7,0.1,1,0.1c0.3,0.1,0.6,0.2,0.9,0.3c0.3-0.1,0.6-0.2,1-0.3
		c0.1,0,0.2-0.1,0.3-0.1c0.1-0.1,0.2-0.1,0.2-0.2c2-1.2,3.8-1.7,6.1-2c0.8-0.1,1.4,0,2,0.2c-0.2-1.3,0.2-2.7,1.3-3.9
		c0.2-0.2,0.4-0.4,0.6-0.6c0.4-0.6,0.9-1.2,1.6-1.7c0.3-0.2,0.6-0.4,0.9-0.6c0.7-0.5,1.5-1,2.4-1.5c0.9-0.5,1.7-0.6,2.5-0.6
		c0.5-0.1,0.9-0.3,1.4-0.4C933.2,704.5,933.5,701.3,932.9,698.1z"/>
	<path class="st3" d="M729,340.3c-0.5-0.1-0.9-0.1-1.4-0.3c-2.5-0.8-4.4-3.1-4.3-5.7c0-1.7,0.6-3.2,1.5-4.6c-4.2-1-8.8-0.1-11.8,3.7
		c-5.3,6.6-10.4,13.3-15.3,20.2c0,0.1,0.1,0.3,0.1,0.4c1.1,1,1.9,2.4,1.9,3.9c0,1.5,0,2.1,0.3,3.3c0.5,1.6,0,3.2-0.9,4.4
		c1.5,2.2,3.1,4.4,4.7,6.5c1.9-0.6,4.1,0,5.4,2.2c4.2,7,10.3,12.8,15.8,18.8c2.3,2.6,4.9,4.9,7.3,7.4c1.7-19.1,3-38.3,3.7-57.5
		c0-1.1-0.1-2.1-0.3-3.1C733.7,341,731.1,341.3,729,340.3z"/>
	<path class="st3" d="M729.5,416.7c-2.9-2.7-5.8-5.4-8.7-8.2c-6.8-6.3-13.4-12.9-20-19.4c-0.9-0.9-1.4-2-1.5-3
		c-0.1-0.1-0.1-0.1-0.2-0.2c-2.4,1.2-5,0.1-6.5-1.9c-2.3-3.1-4.3-6.3-6.4-9.4c-0.4-0.6-0.9-1.3-1.4-1.9c-0.1,0.1-0.1,0.2-0.2,0.3
		c-6.2,8-11.6,16.6-15.9,25.9c-1.9,4.2-1.9,8.2-0.5,11.6c-2.3,9.4-3.1,19.2-2.1,28.8c0.3,2.5,1,4.8,2.1,6.9
		c-0.9,4.4-1.7,8.9-2.4,13.3c0.8,0.8,1.3,1.9,1.3,3.2c0.1,3-0.7,5.6-2.2,8.1c-1,1.7-2.5,2.4-4,2.4c-1.5,2.2-3.2,4.1-5.4,5.6
		c-1.9,2.6-4.8,4.5-7.9,5.4c-1.2,0.4-2.5,0.2-3.5-0.4c-1.9,0.4-3.9,0.4-6-0.1c-2-0.5-3.2-2.1-3.5-3.8c-4.7,1.4-9.3,2.8-14,4.1
		c-5.6,1.5-10.1,7.1-9.9,13c0.1,3.4,0.2,6.9,0.3,10.3c0.2,6.4,4.1,10.9,9.9,13c10.6,3.9,21.6,7.3,33,5.9c5.3-0.7,10-2.2,14.3-4.5
		c0,0,0.1,0,0.1,0c0.3,0.5,0.6,1,1.1,1.4c0.5,0.6,1.2,1,1.9,1.3c1.9-1.1,4.4-1.4,6.5-1.2c0.2,0,0.4,0.1,0.6,0.1
		c0.1-0.1,0.1-0.1,0.2-0.2c0.3-0.4,0.7-0.9,1-1.3c0.6-1,0.9-2.1,0.9-3.3v-0.3c0-0.9-0.2-1.7-0.6-2.5c-0.2-0.6-0.5-1.1-0.9-1.6
		c0.4-0.7,0.8-1.4,1.1-2.2c0.2-0.5,0.4-1,0.6-1.4c-1.7-1-2.8-2.9-1.9-5.3c1.4-3.9,3-7.5,5.6-10.6c2.2-2.6,5-4.7,7.7-6.7
		c0.1-0.1,0.1-0.2,0.2-0.3c0.2-0.1,0.3-0.3,0.5-0.4c0.1,0,0.3-0.1,0.4-0.1c0.5-0.3,1.1-0.5,1.7-0.6c2.6-1.1,4.9-2.9,6.7-5.1
		c0.1,0.1,0.2,0.2,0.3,0.2c3.1-4,12-3.2,18.6-2.1c1.3-1.4,2.2-3.1,2.5-5.1c1-6.7,2-13.4,2.9-20.1c-0.3-0.3-0.5-0.6-0.8-0.9
		c-1.9-3-1.9-6-0.7-9.2c0-0.5,0-1,0-1.5c0,0,0,0,0,0v0c0-1.6,0.7-2.9,1.8-3.8c-0.1-1.2-0.2-2.4-0.2-3.6c-0.5-4.6-1.1-9.2-1.1-13.8
		C725.2,418.5,727.3,416.9,729.5,416.7z"/>
	<path class="st3" d="M470.2,502c0.2-3.6,0.8-7.3,0.8-11c-0.4-0.6-0.9-1.2-1.4-1.8c-2.2-2.6-4.9-3.8-7.8-4.1
		c-4.2-2.7-9.9-2.9-14.4-0.5c-0.7,0.3-1.7,0.7-2.3,0.9c0.1-0.1-1.3,0-2.1,0.1c-1.5-1.2-3-2.4-4.7-3.4c-1.1,1.2-2.8,2-4.8,1.5
		c-1.4-0.3-2.7-0.8-3.9-1.5c-0.4,0-0.8,0-1.2-0.1c-7.9-1.4-13.2-12.4-11.4-19.7c0.2-0.7,0.5-1.4,1-1.9c-0.6-1.8-1.2-3.6-1.8-5.3
		c0-1-0.2-2-0.4-3c-0.9-3.6-2.4-7.1-4.5-10.1c1.6-2,2.5-4.7,2.5-8c0-7.8-0.3-15.5-0.8-23.3c3.9-3.3,6.3-8.7,4.4-13.7
		c-5.7-14.4-11.5-28.8-17.2-43.1c-0.3-0.7-0.6-1.3-0.9-1.9c-1.5-0.3-2.9-1.4-3.4-3.4c-1-3.7-2.2-7.2-3.9-10.5
		c-1.1-0.5-2-1.4-2.5-2.7c-1.4-3.4-3-6.7-4.6-10c-0.3-0.6-0.5-1.2-0.5-1.8c-0.5-0.5-0.9-1.1-1.1-1.7c-0.2-0.1-0.5-0.1-0.7-0.2
		c-0.1-0.1-0.1-0.2-0.2-0.3c-0.5-0.7-1.1-1.3-1.8-1.7c-0.5-0.2-1-0.4-1.6-0.7c-1.2-0.3-2.3-0.3-3.5,0c-0.5,0.2-1,0.4-1.6,0.7
		c-1,0.6-1.8,1.4-2.3,2.3c-0.1,0.2-0.2,0.3-0.3,0.5c-0.5,0.7-0.7,1.6-0.8,2.4c0,0.1,0,0.2,0,0.2c-0.5,0.5-1,1.1-1.4,1.7
		c0.6,0.6,1.2,1.4,1.4,2.4c1.5,6.6,1.5,13.3,2,20c0.2,2.4-1.1,3.9-2.8,4.5c1.6,9,3.2,18.1,4.8,27.1c0.9,5.1,4.4,8.1,8.6,9.1
		c0.3,0.6,0.5,1.1,0.8,1.7c-1.2,1.9-2,4.1-2.1,6.7c-0.4,6.1-0.6,12.3-0.7,18.4c0.3,0.4,0.5,0.8,0.7,1.2c0.4,1.1,0.5,2.1,0.3,3.3
		c-0.3,1.4-1.1,2.7-2.1,3.7c-0.1,0.1-0.3,0.3-0.4,0.4c-0.6,0.9-1.7,1.6-2.7,1.9c-1.2,0.4-2.5,0.1-3.6-0.4
		c-3.3,5.8-2.2,14.1,4.5,18.6c0.3,0.2,0.6,0.4,0.8,0.6c1.3,2.9,3.7,5.3,6.6,6.7c1.1,3.5,2.4,6.9,3.7,10.3c0.4-0.1,0.7-0.2,1.1-0.2
		c2.6-0.1,5.1,2.4,5,5c0,1.2-0.3,2.3-0.7,3.4c-0.3,0.9-0.8,1.7-1.5,2.3c1,3.7,2.1,7.3,3.2,11c2-0.8,4.2-0.3,5.4,2.1
		c0.7,0.6,1.3,1.3,1.6,2.3c0.5,1.5,0.8,2.8,0.9,4.4c0.1,0.9-0.1,1.6-0.4,2.3c0.1,0.8,0.2,1.6,0.3,2.4c0.1,0.4,0.1,0.8,0.2,1.2
		c0.1,0.4,0.1,0.8,0.1,1.1c0.2,0.5,0.3,0.9,0.4,1.5c0.2,1.6,0.3,3.2,0.5,4.9c0,0.4,0,0.7-0.1,1c2.4-2.2,7-0.8,8.3,2.5
		c0.7,1.8,0.9,3.5,0.7,5.4c-0.1,0.8-0.3,1.5-0.7,2.2c0.1,0.5,0.2,1,0.3,1.5c0,0.1,0.1,0.2,0.1,0.3c0.2,0.5,0.3,0.9,0.4,1.4
		c0.9-0.5,2.1-0.6,3.5,0c7.5,3,16.5-0.1,24.3,0c8.6,0.1,17.2,0.7,25.8,0.8c0.2-0.2,0.4-0.4,0.6-0.6c0.5-0.6,1.1-1.1,1.6-1.7
		c-0.1-0.4-0.1-0.9-0.1-1.4C470,513,469.9,507.5,470.2,502z"/>
	<path class="st3" d="M401.6,198.8c-1.1,0.6-2.3,0.7-3.4,0.3c-6.3-2.5-13.6-3.6-18.9-8.1c-0.7,0.2-1.4,0.4-2,0.7
		c-1.4,0.1-2.8,0.2-4.3,0.4c-0.9-0.1-1.9-0.2-2.8-0.2c-0.1,0-0.2,0-0.3,0c-10.6-0.5-21.3-0.2-31.8,1c-20-0.1-40,3.2-58.9,9.8
		c-0.6,0.2-1.3,0.5-1.9,0.8c-10.1,2-20.1,4.6-29.9,7.7c-0.5,0.2-1.1,0.4-1.6,0.6c0,0-0.1,0-0.1,0c-0.1,0-0.3,0.1-0.4,0.1
		c-1.7-0.2-3.6,0-5.6,0.7c-9.4,3.7-18.7,7.7-27.8,12c-11.1,4.1-21.8,9.3-32,15.3c-1.7,1-3,2.3-4.1,3.8c-9.5,2.8-17.8,9.5-22.6,18.2
		c-1.3,1-2.5,2-3.6,3.2c-1.2,2.9-2.1,5.9-1.9,8.9c0.3,3.7,1.6,9,4.2,12.2c5.9,2,12.9,1.1,19,1.9c9.1,1.1,18.2,2.2,27.4,2.7
		c0.8,0,1.6,0.3,2.2,0.6c0.7-0.3,1.3-0.6,1.9-1c3.6,1.2,7.5,1,10.5-1.3c5.9-4.5,10.1-10.1,10.7-17.3c1.2-2,2.3-4,3.3-6.2
		c0.7-1.4,1.1-2.8,1.4-4.2c0.7-0.4,1.4-0.9,2.1-1.3c6.1-2.9,12.1-6,18.1-9.4c0.6-0.8,1.4-1.6,2.6-2c6-2.1,12.3-2.4,18.5-3.7
		c7.6-2.3,15.2-4.6,22.8-6.8c10-1,20-2.4,30-4.1c0,0.5,0,1,0.1,1.5c3.7-0.4,7.3,4.8,4.2,8.8c-0.8,1,0.1,5,0.6,6.3
		c0.2,0.5,0.4,1.1,0.6,1.5c0.8,0.8,1.4,1.8,1.5,3.1c0.1,0,0.1,0.1,0.2,0.1c3.7,1.9,7.6,2.1,11.5,1.1c0.3-0.3,0.6-0.5,0.9-0.7
		c0.4-0.3,0.8-0.5,1.2-0.7c1.2-0.6,2.5-0.8,3.9-0.5c0,0,0.1,0,0.1,0c0.3-0.1,0.5-0.3,0.8-0.4c11.5-7.2,22.9-14.5,34.4-21.7
		c1.3-0.8,2.4-1.8,3.4-3c6.9-3.2,14.1-6.5,17.4-13.6C406.2,210.3,405.1,203.8,401.6,198.8z"/>
	<path class="st3" d="M717,627.8c8.8-9.9,18.8-18.7,28.9-27.4c2.7-3,5.8-5.6,9.8-6.7c1.1-0.3,2.1-0.3,2.9,0c0.5-2.2,0.5-4.5,0.1-6.6
		c0-0.2-0.1-0.3-0.1-0.5c-1.8-0.1-3.4-1.2-3.8-3.6c-0.6-3.2-3.6-5.6-5.3-8.3c-1.9-3-2.6-6.4-1.7-9.8c-0.5-1.3-1.1-2.5-1.9-3.6
		c-2.4-0.7-4.9-0.8-7.3-0.1c-7,1.9-10.6,8.8-9.6,15.6c-0.3-0.1-0.7-0.1-1-0.2c-4.8-0.6-9.6,1.4-12.5,5c-0.5,14.9-1.1,29.9-1.4,44.8
		c0.7,0.4,1.4,0.8,2.1,1.1C716.4,627.6,716.7,627.7,717,627.8z"/>
	<path class="st3" d="M205.5,1035.6c1.2,0.3,2.4,0.4,3.6,0.3c5.4-0.5,10.9-1,16.3-1.4C218.8,1034.6,212.1,1035,205.5,1035.6z"/>
	<path class="st3" d="M119.1,1034.3c0.1,0.3,0.2,0.6,0.3,1c0.2,0.2,0.3,0.4,0.4,0.7c0.2-0.1,0.3-0.2,0.5-0.3
		c0.6-0.4,1.2-0.9,1.9-1.3C121.1,1034.3,120.1,1034.3,119.1,1034.3z"/>
	<path class="st3" d="M979.1,1014.2c-0.9-0.1-1.8-0.6-2.5-1.4c-5.3-6.4-10.2-13.1-15-19.8c-2-2.1-3.7-4.3-4.9-7
		c-0.3-0.7-0.4-1.6-0.4-2.4c-1.4-0.8-2.8-1.5-4.2-2.2c-1.6-2.3-3.9-4.1-7-5.2c-0.1-0.3-0.3-0.6-0.5-0.9c-0.7-1.9-1.9-3.7-3.5-5
		c-2.5-3.3-6.5-5.4-11-5.8c-15.9-1.6-31.9-2.8-47.8-3.7c-1.9-1-4.1-1.7-6.4-2c-3.8-0.5-7.6-0.9-11.4-1.1c-0.6-0.1-1.2-0.1-1.8-0.2
		c-2.4-2-5.4-3.2-8.7-3.3c-2.3-0.1-4.5-0.2-6.8-0.3c-1.8-0.9-3.8-1.4-5.9-1.6c-12-0.8-23.9-0.6-35.8,0.2c-0.8-0.1-1.6-0.1-2.5-0.1
		c-3.8,0.4-7.6,0.9-11.5,1.4c-0.6,0.1-1.1,0.2-1.7,0.2c-0.6,0.1-1.2,0.2-1.8,0.2c0,0,0,0,0,0c-1.2,0.2-2.4,0.3-3.6,0.5
		c-0.5,0.1-0.9,0.2-1.4,0.3c-2.9,0.5-5.8,1-8.7,1.5c-0.9-0.1-1.8-0.2-2.8-0.1c-11,0.6-22,2.2-32.7,4.9c-2.6,0.5-5.2,0.9-7.8,1.4
		c-2.3-0.7-4.9-0.8-7.6-0.4c-5.6,0.8-11.1,1.8-16.6,3c-2-0.4-4.1-0.4-6.2,0c-5.7,1.2-11.4,2.5-17,3.9c-0.4-0.2-0.8-0.3-1.3-0.4
		c-4.5,1.2-9.1,2.5-13.6,3.6c-0.4,0.3-0.9,0.5-1.4,0.7c-3.3,1-6.7,1.8-10,2.8c-0.4,0.1-0.7,0.2-1,0.2c-6.7,2.3-13.4,4.5-20.1,6.5
		c-0.2,0.1-0.4,0.2-0.6,0.3c-0.3,0.3-0.7,0.5-1.2,0.7c-3.5,1.4-7,2.8-10.5,4.1c-0.2,0.1-0.3,0.1-0.5,0.2c-5.3,2.3-10.5,4.7-15.8,6.8
		c-3.7,1.8-7.4,3.6-11.2,5.1c-6.6,4.2-13.7,7.7-21.1,10c-4.3,2.3-8.9,4.2-13.7,5c-0.1,0-0.1,0-0.2,0c-2.9,2.5-6.1,4.7-9.7,5.5
		c-1.1,0.6-2.3,1.1-3.6,1.4c-0.9,0.2-1.8,0.1-2.6-0.1c-1.4,0.6-2.8,1-4.3,1.1c-1.2,0.1-2.2-0.3-3.1-1c-0.1,0-0.2,0-0.3,0
		c-4.1,0-8.1-1.9-10.6-5.1c-0.6-0.7-1.2-1.4-1.6-2.2c-1,0.2-2.1,0.1-3.1-0.3c-2.1-0.9-4.1-1.9-6.1-2.8c-0.3-0.1-0.6-0.1-0.8-0.3
		c-0.8-0.3-1.6-0.7-2.3-1c-1.8-0.8-3.6-1.6-5.4-2.3c-0.6-0.2-1-0.5-1.4-0.9c-3.9-1.9-8-3.7-12.1-5.3c-4-1.5-8.1-2.2-11.8-4.2
		c-1.1-0.1-2.2-0.2-3.4-0.3c-5-1.6-10-3-15.1-4.3c-2.4-3.8-6.7-6.3-11.5-6.5c-0.6,0-1.1-0.1-1.7-0.1c-1.2-0.9-2.6-1.5-4.1-1.9
		c-5.6-1.4-11.3-2.6-16.9-3.6c-1.6-3.7-4.6-6.7-8.6-7.5c-15.1-2.9-30.2-5.2-45.4-7.1c-1.6-1.5-3.5-2.7-5.7-3.4
		c-7.5-2.5-15.5-3-23.3-3.8c-5.1-0.5-10.6-1.5-16-1.4c-0.7-0.3-1.5-0.6-2.3-0.8c-4.2-1-8.4-1.8-12.6-2.5
		c-21.3-0.6-42.8-1.8-63.7,2.6c-1.9,0.4-3.4-0.2-4.5-1.2c0,0,0,0,0,0c-7,0.9-14.1,2-21.1,3.3c-0.1,0-0.3,0-0.4,0c-1,0.1-2,0.1-3,0.2
		c-3.3-2.4-7.6-3.3-12-2.5c-3.3,0.6-6.4,1.3-9.5,2.3c-0.2,0-0.4,0-0.6,0c-15.7,1.3-31.2,3.7-46.4,7.6c-0.7,0.2-1.3,0.4-1.9,0.6
		c-0.5-0.1-1-0.1-1.6-0.1c-1.2,0.2-2.4,0.3-3.6,0.5c-2.3,0.6-4.3,1.8-6,3.5c-0.7,0.9-1.4,1.8-2.1,2.7c-0.4,0.7-0.8,1.5-1,2.2
		c-7.1,4.6-13.2,10.7-18.2,18.1c-0.5,0.7-0.8,1.4-1.1,2.2c-1.9,2.3-3.8,4.7-5.5,7.1c-3.9,2.2-7.1,5.5-9.9,9.3
		c-0.8,1-1.3,2.2-1.6,3.5c-1.8,2.4-2.4,5.1-2.2,7.8c3.9-1,9.1,0.1,12.8,0c15.4-0.2,30.9,2.2,46.3,0.3c6.2-0.8,12-1.1,18.2-0.6
		c3.5,0.2,7.3,0.3,9.8,2.9c3-0.4,6-0.8,9.1-1.2c0.1,0.4,0.2,0.8,0.4,1.2c19.7-2.5,39.4-2.6,59.4-1.8c11.7,0.5,23.5,0.4,35.2,0.4
		c2,0,4-0.1,6-0.1c1.3-0.8,2.9-1,4.4-0.2c8.4-0.5,16.7-1.3,25.1-1.4c2.3,0,3.8,1.2,4.4,2.9c5.1-0.1,10.3-0.3,15.4-0.5
		c16.1-0.6,32.1-1.2,48.2-0.9c15.6,0.2,31.2,1.9,46.9,1.2c14.9-0.7,29.5-2.2,44.3-0.3c0,0,0,0,0.1,0c0,0,0,0,0,0
		c0.4,0.1,0.9,0.1,1.3,0.2c0.6,0.1,1,0.2,1.4,0.4c0.9,0,1.9,0.1,2.8,0.2c0.4,0,0.8,0.1,1.2,0.3c1.6-0.1,3.1-0.2,4.7-0.3
		c0.6,0,1.1,0.1,1.6,0.3c0.1,0,0.1,0,0.2,0c0.7,0,1.3,0.2,1.9,0.4c1.5-1.1,3.4-1.5,5.1-0.5c1.5,0.1,2.9,0.8,3.7,2.5
		c0.7,1.4,1.2,2.8,1.8,4.3c0,0.1,0.1,0.2,0.1,0.3c0.3,0.6,0.7,1.1,1.1,1.7c0.1,0,0.3,0.1,0.4,0.1c1,0.4,2,0.8,2.9,1.3
		c0.7,0,1.5,0.3,2.3,0.7c2,1.2,4.1,2,6.1,3.1c1.9,1,2.6,2.9,2.4,4.6c4.4,1,8.9,1.3,13.3,1.1c2,0,4.1,0,6.1-0.3
		c4.9-0.5,9.6-1.7,14.2-3.3c0,0,0-0.1,0.1-0.1c0.2-0.4,0.5-0.7,0.8-1c0.4-0.7,1-1.4,1.8-1.8c1.2-0.7,2.4-1.3,3.7-1.9
		c0.1,0,0.1-0.1,0.2-0.1c0,0,0,0,0,0c0.4-0.2,0.8-0.4,1.2-0.5c1.3-0.5,2.7-0.2,3.8,0.5c1.1-0.6,2.3-1.2,3.4-1.9
		c-0.3-0.9-0.4-1.9,0-3.1c0.2-0.7,0.5-1.4,0.8-2.1c0.2-0.6,0.4-1.1,0.7-1.7c1.2-2.1,3.1-2.8,4.8-2.4c2.2-0.5,4.3-0.8,6.4-0.7
		c3.4-0.6,6.7-0.8,10.2-0.6c1.1,0.1,2.1,0.5,2.9,1.1c1.8-0.1,3.7,0,5.6,0.1c1.6-0.1,3.3-0.2,4.9-0.3c0.5-0.2,1.1-0.4,1.7-0.4
		c9.7-0.6,19.2-2.2,28.9-1c4.9-0.1,9.9,0.1,14.8,0.7c0.4,0,0.7,0.1,1,0.2c8.1-0.9,16.2-0.8,24.1,0.6c6.9-0.3,13.7-0.4,20.6-0.8
		c0.8-0.8,1.9-1.3,3.3-1.4c5.6-0.2,11.2-0.3,16.9-0.3c0.7,0,1.3,0.1,1.9,0.3c3.8,0,7.6,0,11.4,0c0.2,0,0.3-0.1,0.5-0.1
		c4.8-0.5,9.5-0.4,14.3-0.2c2.6-0.1,5.3-0.3,7.9-0.3c4.3-0.1,8.4-0.3,12.4,0.7c3-0.3,6-0.3,9,0.1c0.5,0.1,1,0.2,1.4,0.3
		c2-0.1,3.9,0,5.8,0.2c2.7-0.1,5.3-0.3,8-0.5c8.7-0.6,17.5,0,26.2-0.6c1.4-0.1,2.5,0.3,3.3,1c0,0,0,0,0,0c0.8,0,1.5,0.1,2.1,0.4
		c4.7-0.2,9.5-0.4,14.2-0.4c0.5,0,1,0.1,1.5,0.2c6.1-0.5,12.3-0.7,18.4-0.7c1.7,0,2.9,0.6,3.7,1.5c0.2,0.1,0.5,0.1,0.7,0.2
		c0.4,0.1,0.7,0.3,1,0.5c1.3-0.1,2.6-0.2,3.9-0.3c6.6-1.9,13.4-1.6,20.1-1.8c3.1-0.6,6.2-1,9.4-1c1,0,1.8,0.2,2.5,0.7
		c3.3-0.3,6.6-0.4,10-0.2c0.6,0,1.1,0.2,1.6,0.4c0.2,0,0.4,0,0.6,0c6.8-0.9,13.6-0.8,20.5-0.4c0.9,0.1,1.7,0.3,2.4,0.7
		c3.5-0.2,6.9-0.4,10.4-0.4c1,0,1.8,0.2,2.4,0.6c3.1-0.3,6.3-0.6,9.4-0.6c5.3-0.7,10.6-0.8,16-0.9c0.3,0,0.5-0.1,0.8-0.1h1.5
		c1.3,0,2.3,0.4,3,1c1.2-0.9,2.1-2,2.9-3.3C982.4,1018.9,980.7,1016.6,979.1,1014.2z"/>
	<path class="st4" d="M695.9,734.9c0,0,6.6-29.9,26-55.7"/>
	<path class="st4" d="M866.8,731.2c0,0,33.2,4.4,55.3,44.3"/>
	<path class="st4" d="M828.9,354.9c0,0,21.4,6.6,28.2,31.2"/>
	<path class="st4" d="M696.2,357.4c0,0,47,63.2,99.1,97.4"/>
	<path class="st4" d="M687.5,449.2c9,9.4,19.1,19.1,29.8,28.3"/>
	<path class="st4" d="M206.3,422.6c75.3,3.3,155.2-56.2,171.1-105.3"/>
	<path class="st4" d="M377.1,789.4c0,0,27,21.6,47.5-17.6c12.3-23.5,6.6-37,6.6-37s-24.8-7.7-41.6,19.1L377.1,789.4z"/>
	<path class="st4" d="M389.6,754l-12.5,35.5l-88.7-29.6c-7.9-3.2-13.5-10.9-13.5-19.9c0-11.8,9.6-21.4,21.4-21.4
		c2.8,0,5.6,0.6,8.1,1.6L389.6,754z"/>
	<line class="st4" x1="321.5" y1="724.1" x2="363" y2="599.2"/>
	<line class="st4" x1="276.5" y1="731.9" x2="330" y2="570.8"/>
	<line class="st4" x1="671" y1="712.2" x2="445.3" y2="712.2"/>
	<path class="st4" d="M397.3,522.6h287.1c17.4,0,31.5,14.1,31.5,31.5v77.3"/>
	<path class="st4" d="M423,712.2h-28.6c-17.4,0-31.5-14.1-31.5-31.5V554.1"/>
	<circle class="st1" cx="355.6" cy="543.4" r="40.2"/>
	<circle class="st1" cx="724.3" cy="543.4" r="40.2"/>
	<circle class="st4" cx="541.5" cy="615.8" r="58.9"/>
	<path class="st4" d="M636.2,488.6H445c-18,0-32.6-14.6-32.6-32.6v-92.4c0-18,14.6-32.6,32.6-32.6h191.2c18,0,32.6,14.6,32.6,32.6
		v92.4C668.8,474.1,654.2,488.6,636.2,488.6z"/>
	<line class="st4" x1="470" y1="490" x2="470" y2="522.6"/>
	<line class="st4" x1="611.7" y1="490" x2="611.7" y2="522.6"/>
	<path class="st4" d="M276.7,749.2L77.3,990.6c0,0,219.6-105.8,465.4,35.7"/>
	<path class="st4" d="M474,769.1"/>
	<path class="st4" d="M542.8,808.1c0,0-21.1-21.3-68.8-39"/>
	<path class="st4" d="M853.5,791l154.7,199.6c0,0-219.6-105.8-465.4,35.7"/>
	<path class="st4" d="M542.8,808.1c0,0,86.6-78.9,275.5-62.6l10.4,13.4"/>
	<line class="st4" x1="542.8" y1="808.3" x2="542.8" y2="1024.6"/>
	<path class="st4" d="M427.8,733.8c-5.5-25-16.3-74.9-16.9-77.7c-0.8-3.8-0.8-12.7,8.1-14.6c8.9-1.9,12.4,6.2,13.3,10.1
		c0.6,3.1,12.6,57.6,17.7,81.1"/>
	<line class="st4" x1="408.1" y1="712.2" x2="326.4" y2="712.2"/>
	<path class="st4" d="M121.3,750c27.7,0,63.1,13.2,65.7,52.9c2.2,33.7-30.8,42-30.8,42"/>
	<path class="st4" d="M126.7,693.6c15.6-8,33.1-12.6,52.9-14.3"/>
	<path class="st4" d="M195.5,847c-62.3,5.3-117.8-28-121.7-74.3c-2.2-26.1,11.9-50.8,35.8-68.3"/>
	<line class="st4" x1="236.3" y1="480" x2="297.6" y2="668.4"/>
	<path class="st4" d="M158.9,496.5l36.9,51.7c0,0,18.7-7.8,33-7.7l7.5-60.6"/>
	<line class="st4" x1="185.6" y1="706.9" x2="158.9" y2="496.5"/>
	<ellipse transform="matrix(0.9901 -0.1404 0.1404 0.9901 -82.7045 35.5904)" class="st1" cx="210.9" cy="604" rx="8.3" ry="12.3"/>

		<ellipse transform="matrix(0.9901 -0.1404 0.1404 0.9901 -81.2273 40.7014)" class="st1" cx="247.9" cy="596.1" rx="8.3" ry="12.3"/>
	<path class="st4" d="M238.1,628.3c0,0,5.8,8.8,13.6,8.2c8.8-0.7,10-8.6,10-8.6"/>
	<path class="st4" d="M215.8,639.4c0,0,5.4,4.4,13.6,2.2c8.1-2.2,8.7-13.3,8.7-13.3"/>
	<path class="st4" d="M99,709.4c-8.6-7.3-20.9-21.5-20.9-42.5c0-11.1,4.3-21.5,8.5-31.6c6.5-15.7,12.2-29.3,2.7-44.1
		c-7.7-12-19-9.8-22.2-8.8c-6.7,2-12.2,8.5-14.5,19.4c-1.5,7.2-6.6,11.5-12.9,11.4c-5-0.1-9-5.1-9-11.4c0-19.4,11.5-36,30.1-41.5
		c18.5-5.4,37.4,1.8,48.1,18.5c16,25,6.6,47.4-0.9,65.4c-3.5,8.4-4.8,17.5-3.7,24.3c2.3,15.4,19.3,24.3,21.9,25.6"/>
	<path class="st4" d="M327.6,236.1c0,0,10,49.9,4.2,81c-5.9,31.1-15.3,38-23.6,40.1c-8.3,2.2-43.8-8.4-58-46.5"/>
	<g>
		<g>
			<path class="st1" d="M319.7,318.1c-6.6,1.8-13.7,1.9-20.3,0c-2-0.5-1.3-3.7,0.7-3.1c6.1,1.7,12.5,1.7,18.6,0
				C320.7,314.5,321.7,317.6,319.7,318.1L319.7,318.1z"/>
		</g>
	</g>
	<path class="st1" d="M298.6,317.6c0,0,1.7,3.2,8.4,4.3c0,0,12.3-2.4,13.7-4.4L298.6,317.6z"/>
	<path class="st1" d="M273.4,290.9c1,5.7,4.2,10.1,6.7,9.6s3.1-6.3,2.2-11.2c-0.7-4-3.3-6.8-5.8-6.4
		C274.1,283.4,272.7,287,273.4,290.9z"/>
	<path class="st1" d="M315,283c0.3,5.8,2.8,10.5,5.3,10.4c2.5-0.1,3.9-5.8,3.7-10.8c-0.2-4-2.3-7.2-4.8-7.1S314.9,279,315,283z"/>
	<path class="st1" d="M793,534.4c-0.9,5.7,0.6,10.9,3.1,11.3c2.5,0.4,5-4.9,5.8-9.9c0.6-4-0.8-7.5-3.3-7.9
		C796.2,527.5,793.6,530.4,793,534.4z"/>
	<path class="st1" d="M836.2,540.8c-1.7,5.5-0.9,10.9,1.5,11.6s5.7-4.2,7.1-9c1.2-3.8,0.2-7.6-2.2-8.3S837.3,537,836.2,540.8z"/>
	<path class="st1" d="M243.7,252.8c0,0,5.7,14.9,6.1,24.6c0.4,9.7-1.5,8.4-3.1,7.8c-1.5-0.6-7.1-5.2-14.8-1.1
		c-7.7,4.1-6.4,17.6-1.8,23.6c4.6,6,15.9,10.9,20.9,5.4l15.2,23.8c0,0-13.6-12.2-31.1-8.1c-17.5,4.1-26.2,36-26.2,64
		c0,28-4.6,85.8-4.6,85.8s-40.4-3.4-58-24.8c-15.9-19.3-21-44-10.6-72c12.4-33.4,34.4-40,47.2-52.3c22-21.1,30.5-64.1,30.5-64.1
		L243.7,252.8z"/>
	<path class="st4" d="M206.8,384.5c-1.2,37.3-0.6,91.9,3.7,158.9"/>
	<path class="st4" d="M261,379.9v116.6c0,0,70.4-19.9,103.8-12.1c33.4,7.8,37.1,40.5,28.6,52.8"/>
	<line class="st4" x1="330" y1="515.7" x2="258.5" y2="548.3"/>
	<path class="st4" d="M371.5,365.6c2.3,18.1,12.9,23.6,12.7,42c-0.2,17-12.2,25.6-17.4,29.8"/>
	<path class="st4" d="M366.9,437.4c0,0,17.4,12,31.9,42"/>
	<path class="st4" d="M333.6,311.8c0,0,11.6-7.4,26.4-5.1c22.2,3.5,35.3,39,52.4,77.8"/>
	<path class="st4" d="M292.8,354.6c-2,1.7-3.7,10.2-3.9,12.3"/>
	<path class="st4" d="M208.9,290.3c-34.4,3-58.6-1.3-62-13.1c-5.5-19.3,47.3-51.3,118-71.6s132.4-21,138-1.7
		c4.2,14.6-24.9,36.4-69.9,55"/>
	<path class="st4" d="M216.1,265.5c0,0,53.8-31.8,111.4-29.4"/>
	<path class="st4" d="M219.3,221.3L207.2,64.8c-0.3-8.5,1.5-13.8,6.8-15.6c4.3-1.4,9.8-0.5,14.6,6.5l83.3,139.2"/>
	<path class="st1" d="M296.2,169.5c-7.3,0.8-25.1,3.7-39.7,8c-14.5,4.3-29.4,10.3-39.4,15.3l2.5,28.4l51.7-18.2l40.5-8.6
		L296.2,169.5z"/>
	<path class="st4" d="M416.5,347.9l26-43.8c2.7-4.6,7.6-7.3,12.9-7.3h170.5c5.3,0,10.3,2.8,13,7.4l25.9,43.8"/>
	<path class="st1" d="M625.4,353.5H455.8c-10.7,0-19.4,8.7-19.4,19.4v73.9c0,10.7,8.7,19.4,19.4,19.4h169.7
		c10.7,0,19.4-8.7,19.4-19.4v-73.9C644.8,362.2,636.1,353.5,625.4,353.5z M496.9,405.9h-17.4v-21.3h17.4V405.9z M571.1,432.8v12.5
		h-12.5h-36h-12.5v-12.5v-12.4h12.5v12.4h36v-12.4h12.5V432.8z M600.5,405.9h-17.4v-21.3h17.4V405.9z"/>
	<path class="st4" d="M668.8,397.6c0,0,26.6-41.2,39.6-55.8"/>
	<path class="st4" d="M784.6,328.2c0,0,35.1,49,34.7,129.4"/>
	<path class="st1" d="M752,350.5"/>
	<path class="st1" d="M913.2,124c-29.6-10.9-61.3,21.4-79.3,39.7l-61.4,64.5c0,0,7.6-53.3,14.4-88.3c6.8-35.1,23.7-44.6,38.1-39.1
		c9.9,3.7,17.8,29.4-10.2,44.6c-1.9,1-1.5,5.4,2.3,4.9c16.7-2.4,35.7-15.4,35.7-35.2c0-21.7-12.8-39.8-40.7-39.8
		c-31.6,0-52.1,40.6-60.6,64.7c-8.5,24.2-43.2,111.7-43.2,149.8c0,30.7,10.2,49,31,53.8c43.6,10,60.9-28,78.3-71.1
		c9.8-24.2,31-65.8,49.6-96.4c18.5-30.5,37.6-33.6,49.3-23.5c8,6.9,6.5,33.8-25,38.3c-2.2,0.3-3.3,4.6,0.4,5.4
		c16.5,3.5,38.9-2.1,45.7-20.7C945.2,155.1,939.4,133.7,913.2,124z M740.5,279c-0.1,1.2-0.6,5.8-0.8,7c-0.7,6.7-5.5,11.6-10.6,11
		c-5.1-0.6-8.7-6.4-7.9-13.1c0.1-1.2,0.6-5.8,0.8-7c0.7-6.7,5.5-11.6,10.6-11C737.7,266.5,741.2,272.3,740.5,279z M778.5,291
		c-0.1,1.2-0.6,5.8-0.8,7c-0.7,6.7-5.5,11.6-10.6,11c-5.1-0.6-8.7-6.4-7.9-13.1c0.1-1.2,0.6-5.8,0.8-7c0.7-6.7,5.5-11.6,10.6-11
		C775.7,278.5,779.3,284.3,778.5,291z"/>
	<path class="st4" d="M807.4,377.8c0,0,17.6-18.8,26.7-28.3c11.7-12.3,27.4-12.4,35.1-4.3c7.8,8.3,9.2,23.7-6.5,36.5
		c-15.6,12.7-46.1,36.8-46.1,36.8"/>
	<path class="st4" d="M929.1,302.9c0,0-8.3-3.1-13.9-1"/>
	<path class="st4" d="M898.2,350.9c0,0,14.4-35.9,30.9-48"/>
	<path class="st4" d="M873.5,352.1c0,0,17.2-2.8,24.7-1.1"/>
	<path class="st4" d="M914.7,287.8c0,0,2.7,8.4,0.5,13.9"/>
	<path class="st4" d="M865.5,316.7c0,0,36.4-13,49.2-28.9"/>
	<path class="st4" d="M863.4,340.8c0,0,3.4-16.5,2.1-24.1"/>
	<line class="st4" x1="881.1" y1="334.8" x2="914.9" y2="302.1"/>
	<path class="st4" d="M680.1,522.6c-4.9-24.5,6.4-38.4,25.8-43.4c25.9-6.6,58.4,5.4,78.6,22.2"/>
	<path class="st4" d="M889.8,582.3c-32.9,29.9-65.1,40.1-72.6,38.9c-7.5-1.2-34.7-37.4-36.2-74.8c-0.6-15.2,1.2-31.2,6.2-45.9"/>
	<path class="st4" d="M895.1,544.3c5.1-2.5,10.7-2.6,15.2,0.2c7.9,4.9,9.3,16.8,3.2,26.6c-6.1,9.9-17.4,13.9-25.3,9
		c-2.2-1.4-3.9-3.3-5.1-5.6"/>
	<path class="st1" d="M923.8,484c13.1,11.8,17.9,31,10.4,48.1c-3.7,8.5-9.9,15.1-17.4,19.4c-1.1-3.3-3.1-6.2-6.1-8
		c-4.8-2.9-10.8-2.6-16.1,0.3c-4.2-13.1-2.1-23.6,1-31.8C899.7,501,911.8,488.5,923.8,484z"/>
	<g>
		<g>
			<path class="st1" d="M837.3,579.7c-3,3.7-7.4,6.1-11.9,7.5c-4.3,1.4-9.4,2.1-13.6,1.4c-1.3-0.2-2.7,0.3-3.1,1.7
				c-0.3,1.2,0.4,2.9,1.7,3.1c5.4,0.9,11,0.2,16.2-1.4c5.3-1.7,10.6-4.4,14.1-8.8c0.8-1,1-2.5,0-3.5
				C839.9,578.8,838.1,578.6,837.3,579.7L837.3,579.7z"/>
		</g>
	</g>
	<path class="st4" d="M816.4,574.5c0,0-9.8-1.6-18.4-5.2c0,0,11.2-21.4,14.1-28.8c3.1-8,5.3-22.7-5-29.1c-8.7-5.5-21.7-1-24.6,9.1"
		/>
	<path class="st4" d="M834.3,521.4c0,0,22.6-4.7,35.3,10.2"/>
	<path class="st1" d="M928.6,454.9c-6.5,0-12.6,1.8-17.8,4.9c7.7,7.9,12.3,16,13.7,18.5l2.6,2c11.9,10.7,17.3,26.3,15.2,41.5
		c12.4-5.3,21.2-17.7,21.2-32.1C963.5,470.5,947.9,454.9,928.6,454.9z"/>
	<path class="st1" d="M832.1,520.3c-1.3,3,0,7.7,3.3,6.7c2.3-0.7,15.9-5.1,25.7,0.7l-5-4l-2.3-2.9l-14.7-1.5L832.1,520.3z"/>
	<path class="st1" d="M787.2,516.7c0,0,21.3-11,25,7.8l2.6-1.8l-3.6-8.6l-10.6-5.1h-7.8l-6.7,4.4L787.2,516.7z"/>
	<path class="st4" d="M903.4,582.2c0,0,55.5,44.5,71.5,107.2"/>
	<path class="st4" d="M786,574.5c-93.7,46.8-118.9,150.3-118.9,150.3s41.6,17.4,73.6,19.2"/>
	<path class="st4" d="M733.3,638.6c0,0,37.3,34,100.1,39.6c62.8,5.6,110-12.4,127.2-25.3"/>
	<path class="st4" d="M752.6,652.2c0,0-2.9,16.2-3.8,40.5"/>
	<path class="st4" d="M693.7,663.2c0,0,77,40.5,99.3,55c0,0,25.8-11.2,33.2-10c7.4,1.3,20.7,15.6,25.8,31.4"/>
	<path class="st4" d="M828,731.2c0,0,6.8,8.4,11,16.9"/>
	<path class="st4" d="M842.5,793.5l109-24.8c-7.1-41.1-59-58.7-59-58.7l-69.2,52.9c0,0-20.7-4.3-35-0.3c0,0-14.7,25.1,0.3,41.9
		C805.5,823.4,835.1,811.4,842.5,793.5z"/>
	<path class="st4" d="M799.5,780.3c0,0-6.9,15.4-3.4,29.8"/>
	<path class="st4" d="M815.2,787.8c0,0-4.2,13.2-1.2,26.1"/>
	<polyline class="st4" points="911.2,718.8 933.7,705 917.3,671.6 	"/>
	<line class="st4" x1="954.6" y1="705.5" x2="954.6" y2="786.9"/>
	<ellipse class="st4" cx="995" cy="705.7" rx="40.4" ry="18"/>
	<path class="st1" d="M1026.7,716.9c-7.4-4.2-18.8-6.8-31.7-6.8c-12.8,0-24.3,2.7-31.7,6.8l10.6,4.2l20.4,2.7l22.8-2.7L1026.7,716.9
		z"/>
	<path class="st4" d="M1035.4,786.9c0,10-18.1,18-40.4,18s-40.4-8.1-40.4-18"/>
	<line class="st4" x1="1035.4" y1="705.7" x2="1035.4" y2="786.9"/>
	<path class="st4" d="M1035.6,778.9c1.5,0.2,2.4,0.3,4,0.3c18.4,0,33.3-14.9,33.3-33.3c0-18.4-14.9-33.3-33.3-33.3
		c-1.6,0-2.8,0.1-4.3,0.3"/>
	<path class="st4" d="M1035.6,730.2c1.5-0.4,2.4-0.7,4-0.7c9.1,0,16.4,7.4,16.4,16.4c0,9.1-7.4,16.4-16.4,16.4c-1.6,0-2.5-0.2-4-0.7
		"/>
	<path class="st4" d="M1001.5,653.5c-7.8-6.8-9.3-28.4,2.3-39"/>
	<path class="st4" d="M1003.8,614.4c-10.4-4.3-17.8-14.5-17.8-26.5c0-15.8,12.8-28.6,28.6-28.6s28.6,12.8,28.6,28.6
		c0,15.1-6,24.4-18.1,35.1c-9.2,8.2-22.6,14.2-23.6,30.4"/>
	<path class="st4" d="M748.7,571.7c0,0,7.5,14,11.6,18.1"/>
	<path class="st4" d="M587.5,953.9c0,0,114.1-77.6,303.3-40.9"/>
	<path class="st4" d="M585.9,899.4c0,0,107.8-67.7,279-34.3"/>
	<path class="st4" d="M584.3,849.4c0,0,62-41,187-39.3"/>
	<path class="st4" d="M496.8,953.9c0,0-114.1-77.6-303.3-40.9"/>
	<path class="st4" d="M498.3,899.4c0,0-107.8-67.7-279-34.3"/>
	<path class="st4" d="M499.9,852c0,0-13.1-7.9-33.1-13.2"/>
	<path class="st1" d="M431.4,784.3c-1.2-0.6-1.8-2.1-1.2-3.3c0.6-1.2,2.1-1.8,3.3-1.2c0.8,0.4,15.2,7.3,26.4,15.8
		c2.4-3.2,4.5-7.9,5-12.9c-12.4-10.1-24.4-17.6-24.5-17.7c-1.2-0.7-1.5-2.3-0.8-3.4c0.7-1.2,2.3-1.5,3.4-0.8
		c0.7,0.4,10.7,6.7,22,15.6c-1.2-22.4-15.4-39.3-32.2-43.7l-0.3,16.7l-10.3,26.8l-14.1,15.2c0,0,13.6,14.5,29.3,14.1
		c6.8-0.2,13.7-1.6,19.1-6.2C448,792.1,431.6,784.4,431.4,784.3z"/>
	<line class="st4" x1="474.7" y1="816.8" x2="466.8" y2="838.8"/>
	<polyline class="st4" points="448.2,823.2 456.2,802.2 474.7,816.8 	"/>
	<line class="st4" x1="466.8" y1="838.8" x2="448.2" y2="823.2"/>
	<path class="st4" d="M141.9,968.8l-45.4,55.5c0,0,134.2-51.7,271.7-38.8c77.6,7.3,139.4,41.4,139.4,41.4"/>
	<path class="st4" d="M418,1009.2c-130.4-15.7-233.1,17.1-233.1,17.1h321.6"/>
	<path class="st4" d="M577.5,1027c0,0-10,16.8-34.7,16.8s-35.1-16.5-35.1-16.5c0-0.3,0-0.3,0-0.3"/>
	<path class="st4" d="M1035.3,713c1.4-0.2,2.9-0.3,4.3-0.3c18.4,0,33.3,14.9,33.3,33.3s-14.9,33.3-33.3,33.3c-1.4,0-2.7-0.1-4.1-0.2
		"/>
	<path class="st4" d="M141.9,968.8l-45.4,55.5c0,0,134.2-51.7,271.7-38.8c77.6,7.3,139.4,41.4,139.4,41.4"/>
	<path class="st4" d="M418,1009.2c-130.4-15.7-233.1,17.1-233.1,17.1h321.6"/>
	<path class="st4" d="M943.3,968.8l45.4,55.5c0,0-134.2-51.7-271.7-38.8c-77.6,7.3-139.4,41.4-139.4,41.4"/>
	<path class="st4" d="M667.2,1009.2c130.4-15.7,233.1,17.1,233.1,17.1H578.7"/>
	<circle class="st1" cx="541.5" cy="182.2" r="20.1"/>
	<path class="st1" d="M529.2,168.7"/>
	<path class="st5" d="M615.9,134.2c-6.8,8.8-25.6,21-50.2,28.9c0,0,13.1-35.4,34.7-45.8c3.4-1.6,10.4-4.7,16.3,0.4
		C620.8,121.3,620.8,127.8,615.9,134.2z"/>
	<path class="st5" d="M467.1,134.2c6.8,8.8,25.6,21,50.2,28.9c0,0-13.1-35.4-34.7-45.8c-3.4-1.6-10.4-4.7-16.3,0.4
		C462.2,121.3,462.2,127.8,467.1,134.2z"/>
	<line class="st4" x1="560.6" y1="114.4" x2="555.6" y2="130.6"/>
	<line class="st4" x1="527.4" y1="223.8" x2="522.5" y2="240.1"/>
	<line class="st4" x1="607.1" y1="176" x2="590.1" y2="176.3"/>
	<line class="st4" x1="595.3" y1="214.7" x2="581.4" y2="205"/>
	<line class="st4" x1="557.5" y1="223.3" x2="563" y2="239.3"/>
	<line class="st4" x1="520" y1="115.2" x2="525.6" y2="131.3"/>
	<line class="st4" x1="476.1" y1="178.6" x2="493" y2="178.2"/>
	<line class="st4" x1="502.8" y1="206.7" x2="489.3" y2="217"/>
	<path class="st1" d="M919.8,480.2c-1.9-3.6-11.6-20.5-28.3-28.9c-19.6-9.9-43.7-10-61.9-1.9c-21,9.3-36.3,26.6-44.3,50.1
		c-0.3,0.9,0.1,2,1,2.4c0,0,0.1,0,0.2,0.1c0.1,0,0.3,0.1,0.4,0.1l-2.6,7.9l-1.7,8.6l2.1-0.7c0,0,8.4-35,43.2-35.5
		c0.1-0.2,0.1-0.3,0.2-0.5c0.5-0.8,12.5-18.8,30.6-21.1c1.4-0.2,2.6,0.8,2.8,2.2c0.2,1.4-0.8,2.6-2.2,2.8
		c-14.8,1.9-25.5,16.6-26.9,18.7c3.3,4.5,10.9,10.6,20.6,14.1l3.6,1.2c9.6,2.7,26.3,3.9,42-2.6C904.4,489.9,912.1,483.7,919.8,480.2
		z"/>
	<path class="st1" d="M317.1,329.4c0,0-4.5,2.1-12.3,2.2c-7.8,0.1-17.5-2.6-17.5-2.6s5.8,9.1,13.8,10.6
		C308,340.9,314.1,339.2,317.1,329.4z"/>
	<path class="st1" d="M271.1,264.8l1.6-2.8l12.6-0.7l5.1,2.5l-1.2,2.9c0,0-4,1.4-5.4,0.6C281.5,265.9,278.7,263.7,271.1,264.8z"/>
	<path class="st1" d="M301.3,271.7c1.7-8.4,7.3-17.1,14.5-20.1c3-1.3,5.6-2.6,11.7-2.6c4.9,0,4,5.4,1.8,5.5
		c-8.7,0.4-14.3,3.6-18.5,8.4"/>
	<path class="st4" d="M318.7,316c0,0-28.5-34.1-8.6-55.9"/>
	<path class="st4" d="M259.4,269.8c3.7-6.5,16.8-11.6,28.9-5.6"/>
</g>
</svg>
