<svg width="24" height="24" viewBox="0 0 24 24" fill="none" xmlns="http://www.w3.org/2000/svg">
<path d="M24 12C24 18.6273 18.6273 24 12 24C5.37333 24 0 18.6273 0 12C0 5.37333 5.37333 0 12 0C18.6273 0 24 5.37333 24 12Z" fill="#FFCC4D"/>
<path d="M16.99 18.586C16.96 18.4667 16.2113 15.6667 12 15.6667C7.78797 15.6667 7.03997 18.4667 7.00997 18.586C6.9733 18.7307 7.03863 18.8807 7.16797 18.9554C7.29797 19.0294 7.46063 19.0074 7.56797 18.904C7.58063 18.8914 8.87063 17.6667 12 17.6667C15.1293 17.6667 16.42 18.8914 16.432 18.9034C16.496 18.9667 16.5813 19 16.6666 19C16.7226 19 16.7793 18.986 16.8306 18.9574C16.9613 18.8827 17.0266 18.7314 16.99 18.586ZM19.334 9.33336C19.1306 9.33336 18.9313 9.24136 18.8 9.06669C17.1786 6.90403 14.4573 8.50269 14.3426 8.57136C14.026 8.76136 13.6166 8.65803 13.428 8.34269C13.2386 8.02669 13.3406 7.61736 13.6566 7.42803C14.9886 6.62869 17.9993 5.77669 19.866 8.26603C20.0873 8.56069 20.0273 8.97869 19.7326 9.19936C19.6133 9.29002 19.4733 9.33336 19.334 9.33336ZM4.66597 9.33336C4.5273 9.33336 4.38663 9.29003 4.26663 9.20003C3.97197 8.97936 3.91263 8.56136 4.1333 8.26669C6.00063 5.77736 9.0113 6.62936 10.3426 7.42869C10.6586 7.61802 10.7606 8.02736 10.5713 8.34336C10.382 8.65869 9.97397 8.76203 9.65797 8.57269C9.53863 8.50203 6.80863 6.92269 5.1993 9.06736C5.0693 9.24136 4.86863 9.33336 4.66597 9.33336ZM19.3333 10.6667C19.3333 10.2987 19.0353 10 18.6666 10H14C13.6313 10 13.3333 10.2987 13.3333 10.6667C13.3333 11.0347 13.6313 11.3334 14 11.3334H17.3946C17.5326 11.7207 17.8986 12 18.3333 12C18.8853 12 19.3333 11.5527 19.3333 11C19.3333 10.9267 19.324 10.8554 19.3093 10.786C19.3173 10.746 19.3333 10.7087 19.3333 10.6667ZM10.6666 10.6667C10.6666 10.2987 10.368 10 9.99997 10H5.3333C4.9653 10 4.66663 10.2987 4.66663 10.6667C4.66663 11.0347 4.9653 11.3334 5.3333 11.3334H8.72797C8.86597 11.7207 9.23197 12 9.66663 12C10.2186 12 10.6666 11.5527 10.6666 11C10.6666 10.9267 10.6573 10.8554 10.6426 10.786C10.65 10.746 10.6666 10.7087 10.6666 10.6667Z" fill="#664500"/>
</svg>
