<svg width="33" height="33" viewBox="0 0 33 33" fill="none" xmlns="http://www.w3.org/2000/svg">
<g clip-path="url(#clip0_3159:571)">
<path fill-rule="evenodd" clip-rule="evenodd" d="M28.3122 28.8722C28.0016 28.9499 27.6909 29.0664 27.3414 29.1441C22.6423 30.3091 17.9433 31.4742 13.1278 32.2897C11.419 32.6004 9.71029 32.7946 7.96272 32.7946C7.4967 32.7946 7.03069 32.7169 6.56467 32.6392C6.02098 32.5227 5.94331 32.1732 5.94331 32.1732C5.94331 32.1732 5.94331 32.1732 5.94331 32.1344C5.94331 32.0955 5.94331 32.0955 5.94331 32.0567C6.40932 27.4353 7.69088 23.047 9.59379 18.814C11.1472 15.3188 13.0501 12.0567 15.5355 9.10524C17.0113 7.35767 18.6423 5.80427 20.5841 4.60038L20.6229 4.56154C20.6618 4.52271 20.7006 4.44504 20.6618 4.40621C19.9627 4.79456 19.2637 5.14407 18.6035 5.57126C14.953 7.90135 12.1569 11.0081 9.90447 14.6586C8.1569 17.5713 6.91418 20.7946 6.02097 24.0955C5.78796 24.6004 5.63263 24.3285 5.59379 24.1344C4.9336 22.2314 4.66175 20.2897 4.85593 18.3091C5.43845 11.3577 9.12777 6.46446 15.186 3.28C16.4676 2.6198 17.8268 2.07611 19.186 1.68776C21.4773 0.988732 24.1181 0.833391 25.5161 0.794556C25.8656 0.794556 26.0598 1.10524 25.8656 1.37708C25.1278 2.50329 24.5452 4.67805 24.5064 4.67805C24.2346 5.45475 24.0792 6.38679 23.885 7.24116C23.8462 7.31883 23.8462 7.47417 23.8074 7.55184C23.419 9.14407 19.0695 10.6198 19.0695 10.6198L23.1472 10.3868C22.8753 11.3965 22.5258 12.3674 22.2152 13.1829C22.2152 13.2217 22.2152 13.2217 22.1763 13.2606C22.1763 13.2994 22.1375 13.3771 22.0986 13.4159C20.7006 16.8334 19.1084 18.6586 18.953 18.814C17.555 20.6004 15.8851 22.1149 13.9821 23.4353C12.5841 24.4062 11.0695 25.2606 9.63263 26.1538C9.51612 26.2314 9.43845 26.2703 9.39962 26.348C9.36078 26.4256 9.32195 26.4645 9.28311 26.5421L6.52583 31.746L9.71029 31.4353C15.9627 31.1635 22.1375 29.9208 28.3122 28.8722Z" fill="white" fill-opacity="0.87"/>
</g>
<defs>
<clipPath id="clip0_3159:571">
<rect width="32" height="32" fill="white" transform="translate(0.794525 0.794556)"/>
</clipPath>
</defs>
</svg>
