<svg width="162" height="132" viewBox="0 0 162 132" fill="none" xmlns="http://www.w3.org/2000/svg">
  <path
    d="M80.6899 90.71C91.7964 90.71 100.8 81.7064 100.8 70.6C100.8 59.4935 91.7964 50.49 80.6899 50.49C69.5835 50.49 60.58 59.4935 60.58 70.6C60.58 81.7064 69.5835 90.71 80.6899 90.71Z"
    fill="white" fill-opacity="0.6"/>
  <path
    d="M155.06 22.6C148.26 31.36 129.46 43.56 104.84 51.49C104.84 51.49 117.96 16.11 139.55 5.66001C142.95 4.02001 149.97 0.950004 155.82 6.08C159.98 9.72 159.98 16.27 155.06 22.6Z"
    stroke="white" stroke-opacity="0.6" stroke-width="5" stroke-miterlimit="10"/>
  <path
    d="M6.30997 22.61C13.11 31.36 31.91 43.56 56.54 51.48C56.54 51.48 43.41 16.11 21.81 5.66001C18.41 4.02001 11.39 0.950004 5.53995 6.08C1.38995 9.73 1.38997 16.28 6.30997 22.61Z"
    stroke="white" stroke-opacity="0.6" stroke-width="5" stroke-miterlimit="10"/>
  <path d="M99.7299 2.79999L94.8099 19.05" stroke="white" stroke-opacity="0.6" stroke-width="5" stroke-miterlimit="10"
        stroke-linecap="round"/>
  <path d="M66.57 112.27L61.64 128.52" stroke="white" stroke-opacity="0.6" stroke-width="5" stroke-miterlimit="10" stroke-linecap="round"/>
  <path d="M146.29 64.42L129.31 64.72" stroke="white" stroke-opacity="0.6" stroke-width="5" stroke-miterlimit="10" stroke-linecap="round"/>
  <path d="M134.45 103.16L120.53 93.42" stroke="white" stroke-opacity="0.6" stroke-width="5" stroke-miterlimit="10" stroke-linecap="round"/>
  <path d="M96.63 111.7L102.17 127.75" stroke="white" stroke-opacity="0.6" stroke-width="5" stroke-miterlimit="10" stroke-linecap="round"/>
  <path d="M59.1699 3.66998L64.77 19.7" stroke="white" stroke-opacity="0.6" stroke-width="5" stroke-miterlimit="10" stroke-linecap="round"/>
  <path d="M15.23 67.04L32.21 66.66" stroke="white" stroke-opacity="0.6" stroke-width="5" stroke-miterlimit="10" stroke-linecap="round"/>
  <path d="M41.95 95.13L28.4299 105.41" stroke="white" stroke-opacity="0.6" stroke-width="5" stroke-miterlimit="10" stroke-linecap="round"/>
</svg>
