<svg width="33" height="33" viewBox="0 0 33 33" fill="none" xmlns="http://www.w3.org/2000/svg">
<g clip-path="url(#clip0_3159:519)">
<path d="M30.9731 30.4663L30.6941 30.3965L30.0663 28.1644C29.9965 27.9551 29.9268 27.8156 29.7175 27.7459C29.578 27.6761 26.0206 25.5835 23.0909 25.5835C21.9748 25.5835 20.8588 25.723 19.8125 26.0718C21.068 25.3045 22.4631 24.886 23.928 24.886C25.4625 24.9557 26.9971 25.3743 28.3225 26.1415C28.6712 26.3508 29.0898 26.2113 29.299 25.9323C29.5083 25.5835 29.3688 25.165 29.0898 24.9557C27.5552 24.0489 25.7416 23.4909 23.928 23.4211C22.1144 23.4211 18.4174 24.8162 16.8828 26.9786C15.2785 24.7465 12.6976 23.4211 9.90742 23.4211C8.02407 23.4211 6.21047 23.9792 4.67588 24.9557C4.32711 25.165 4.25736 25.5835 4.46662 25.9323C4.67588 26.2811 5.0944 26.3508 5.44317 26.1415C6.83825 25.3045 8.37284 24.886 9.97718 24.886C11.3723 24.886 12.7673 25.3045 13.9531 26.0718C12.7673 25.723 11.6513 25.5835 10.5352 25.5835C7.60554 25.5835 4.0481 27.6761 3.90859 27.7459C3.76908 27.8156 3.62957 27.9551 3.62957 28.0947L2.86228 30.4663H2.65302C2.30425 30.536 2.02523 30.9546 2.16474 31.3033C2.30425 31.6521 2.65302 31.9311 3.00179 31.7916L12.6976 29.2107C13.1161 30.8151 14.5809 31.7916 16.8131 31.7916C19.0452 31.7916 20.51 30.8151 20.9285 29.2107L30.7638 31.7916C31.1824 31.7916 31.4614 31.5126 31.4614 31.0941C31.4614 30.8151 31.2521 30.536 30.9731 30.4663Z" fill="white" fill-opacity="0.87"/>
<path d="M15.2388 7.80306L16.0164 5.85917L14.3502 4.58176C14.1836 4.47068 14.1281 4.30407 14.1281 4.13745C14.1281 3.80421 14.3502 3.58205 14.6834 3.58205H16.7939L17.516 1.19385C17.5715 1.02723 17.7381 0.860615 17.9047 0.805075C18.1824 0.749536 18.4601 0.916154 18.5712 1.19385L19.2377 3.58205H21.3482C21.5148 3.58205 21.6814 3.63759 21.737 3.80421C21.9036 4.02637 21.848 4.41515 21.6259 4.58176L19.9597 5.85917L20.7373 7.80306C20.8483 8.08075 20.7928 8.30291 20.5706 8.46953C20.404 8.63615 20.0708 8.63615 19.9042 8.46953L18.0158 7.08104L16.1275 8.46953C15.9609 8.58061 15.7387 8.58061 15.5721 8.52507C15.2944 8.41399 15.1278 8.08075 15.2388 7.80306Z" fill="white" fill-opacity="0.87"/>
<path d="M5.56351 9.58662L6.10167 8.25748L4.94847 7.38404C4.83315 7.30809 4.79471 7.19416 4.79471 7.08024C4.79471 6.85238 4.94847 6.70048 5.17911 6.70048H6.63983L7.13955 5.06754C7.17799 4.95361 7.29331 4.83969 7.40863 4.80171C7.60083 4.76373 7.79303 4.87766 7.86991 5.06754L8.33119 6.70048H9.79191C9.90723 6.70048 10.0225 6.73846 10.061 6.85238C10.1763 7.00429 10.1379 7.27011 9.98411 7.38404L8.83091 8.25748L9.36907 9.58662C9.44595 9.77649 9.40751 9.9284 9.25375 10.0423C9.13843 10.1562 8.90779 10.1562 8.79247 10.0423L7.48551 9.09294L6.17855 10.0423C6.06323 10.1183 5.90947 10.1183 5.79415 10.0803C5.60195 10.0043 5.48663 9.77649 5.56351 9.58662Z" fill="white" fill-opacity="0.87"/>
<path d="M10.5125 4.52378L10.7815 3.85921L10.2049 3.42249C10.1473 3.38451 10.1281 3.32755 10.1281 3.27059C10.1281 3.15666 10.2049 3.08071 10.3203 3.08071H11.0506L11.3005 2.26424C11.3197 2.20727 11.3774 2.15031 11.435 2.13132C11.5311 2.11234 11.6272 2.1693 11.6657 2.26424L11.8963 3.08071H12.6267C12.6843 3.08071 12.742 3.0997 12.7612 3.15666C12.8189 3.23261 12.7996 3.36553 12.7228 3.42249L12.1462 3.85921L12.4152 4.52378C12.4537 4.61872 12.4345 4.69467 12.3576 4.75163C12.2999 4.80859 12.1846 4.80859 12.1269 4.75163L11.4735 4.27694L10.82 4.75163C10.7623 4.78961 10.6854 4.78961 10.6278 4.77062C10.5317 4.73264 10.474 4.61872 10.5125 4.52378Z" fill="white" fill-opacity="0.87"/>
<path d="M4.038 17.7218L4.44162 16.725L3.57672 16.0699C3.49023 16.0129 3.4614 15.9275 3.4614 15.842C3.4614 15.6711 3.57672 15.5572 3.7497 15.5572H4.84524L5.22003 14.3325C5.24886 14.2471 5.33535 14.1616 5.42184 14.1331C5.56599 14.1047 5.71014 14.1901 5.7678 14.3325L6.11376 15.5572H7.2093C7.29579 15.5572 7.38228 15.5857 7.41111 15.6711C7.4976 15.7851 7.46877 15.9844 7.35345 16.0699L6.48855 16.725L6.89217 17.7218C6.94983 17.8642 6.92099 17.9782 6.80568 18.0636C6.71919 18.149 6.54621 18.149 6.45972 18.0636L5.4795 17.3516L4.49928 18.0636C4.41279 18.1206 4.29747 18.1206 4.21098 18.0921C4.06683 18.0351 3.98034 17.8642 4.038 17.7218Z" fill="white" fill-opacity="0.87"/>
<path d="M24.038 9.72182L24.4416 8.72497L23.5767 8.06989C23.4902 8.01293 23.4614 7.92748 23.4614 7.84204C23.4614 7.67115 23.5767 7.55722 23.7497 7.55722H24.8452L25.22 6.33251C25.2489 6.24707 25.3353 6.16162 25.4218 6.13314C25.566 6.10466 25.7101 6.19011 25.7678 6.33251L26.1138 7.55722H27.2093C27.2958 7.55722 27.3823 7.5857 27.4111 7.67115C27.4976 7.78507 27.4688 7.98445 27.3534 8.06989L26.4885 8.72497L26.8922 9.72182C26.9498 9.86423 26.921 9.97816 26.8057 10.0636C26.7192 10.149 26.5462 10.149 26.4597 10.0636L25.4795 9.35156L24.4993 10.0636C24.4128 10.1206 24.2975 10.1206 24.211 10.0921C24.0668 10.0351 23.9803 9.86423 24.038 9.72182Z" fill="white" fill-opacity="0.87"/>
<path d="M27.8458 15.1905L28.1149 14.526L27.5383 14.0892C27.4806 14.0513 27.4614 13.9943 27.4614 13.9373C27.4614 13.8234 27.5383 13.7475 27.6536 13.7475H28.384L28.6338 12.931C28.653 12.874 28.7107 12.8171 28.7684 12.7981C28.8645 12.7791 28.9606 12.836 28.999 12.931L29.2296 13.7475H29.96C30.0177 13.7475 30.0753 13.7664 30.0945 13.8234C30.1522 13.8994 30.133 14.0323 30.0561 14.0892L29.4795 14.526L29.7486 15.1905C29.787 15.2855 29.7678 15.3614 29.6909 15.4184C29.6333 15.4753 29.5179 15.4753 29.4603 15.4184L28.8068 14.9437L28.1533 15.4184C28.0957 15.4564 28.0188 15.4564 27.9611 15.4374C27.865 15.3994 27.8074 15.2855 27.8458 15.1905Z" fill="white" fill-opacity="0.87"/>
<path d="M16.7945 18.1277V14.1277" stroke="white" stroke-opacity="0.87" stroke-width="0.5" stroke-linecap="round"/>
<path d="M22.1276 21.1517L25.7529 19.4612" stroke="white" stroke-opacity="0.87" stroke-width="0.5" stroke-linecap="round"/>
<path d="M11.0864 21.1517L7.46118 19.4612" stroke="white" stroke-opacity="0.87" stroke-width="0.5" stroke-linecap="round"/>
<path d="M20.7945 18.5679L24.1279 12.7944" stroke="white" stroke-opacity="0.87" stroke-width="0.5" stroke-linecap="round"/>
<path d="M13.4612 18.5679L10.1279 12.7944" stroke="white" stroke-opacity="0.87" stroke-width="0.5" stroke-linecap="round"/>
</g>
<defs>
<clipPath id="clip0_3159:519">
<rect width="32" height="32" fill="white" transform="translate(0.794525 0.794434)"/>
</clipPath>
</defs>
</svg>
