<?xml version="1.0" encoding="utf-8"?>
<!-- Generator: Adobe Illustrator 25.3.1, SVG Export Plug-In . SVG Version: 6.00 Build 0)  -->
<svg version="1.1" xmlns="http://www.w3.org/2000/svg" xmlns:xlink="http://www.w3.org/1999/xlink" x="0px" y="0px"
	 viewBox="0 0 1118.3 981.28" style="enable-background:new 0 0 1118.3 981.28;" xml:space="preserve">
<style type="text/css">
	.st0{fill:none;}
	.st1{fill:#FFFFFFDD;}
	.st2{fill:transparent;}
	.st3{fill:none;stroke:#FFFFFFDD;stroke-width:5;stroke-linecap:round;stroke-miterlimit:10;}
	.st4{fill:url(#Nouvelle_nuance_de_motif_2);}
	.st5{fill:url(#Nouvelle_nuance_de_motif_2);stroke:#FFFFFFDD;stroke-width:5;stroke-linecap:round;stroke-miterlimit:10;}
</style>
<pattern  x="-412.26" y="1007.23" width="11.01" height="11.01" patternUnits="userSpaceOnUse" id="Nouvelle_nuance_de_motif_2" viewBox="0.21 -11.01 11.01 11.01" style="overflow:visible;">
	<g>
		<rect x="0.21" y="-11.01" class="st0" width="11.01" height="11.01"/>
		<circle class="st1" cx="2.74" cy="-8.45" r="2.5"/>
		<rect x="0.21" y="-11.01" class="st0" width="11.01" height="11.01"/>
	</g>
</pattern>
<g id="Calque_3">
	<rect class="st2" width="1118.3" height="981.28"/>
</g>
<g id="Calque_2">
	<path class="st1" d="M774.32,54.57c-18.05,13.03-29.81,34.23-29.81,58.2c0,39.62,32.12,71.74,71.74,71.74
		c0.11,0,0.23-0.01,0.34-0.01c13.68-13.89,22.13-32.95,22.13-53.99C838.72,92.28,810.85,60.58,774.32,54.57z"/>
	<path class="st3" d="M423.38,354.85c0,0,4.62-10.53,15.43-16.78c10.81-6.25,21.02-4.71,21.02-4.71"/>
	<g>
		<path class="st4" d="M536.43,423.2c-8.99,8.67-3.68,11.52-10.51,23.07c10.78,18.83,28.24,49.34,38.01,66.39
			c12.76-10.63,23.51-19.21,29.18-22.89l9.44-5.59c0,0,1.1-64.55-22.05-112.35c-23.14-47.8-47.79-60.24-66.93-55.23
			c0,0,3.28,6.55,7.79,10.39c13.79,11.73,7.91,21.94,18.23,29.83c9.38,7.17,4.95,25.53,3.77,42.95
			C542.07,418.64,541.16,418.64,536.43,423.2z"/>
		<path class="st4" d="M519.55,495.93c-11.1-1.1-9.61,20.67-12.66,31.9c-6.58,4.86-11.16,12.67-10.15,20.45
			c3.57,27.55-10.9,6.6-8.87,18.22c2.33,13.33-7.12,14.17-11.02,21.71c0,0,34.19-30.48,66.16-57.85L519.55,495.93z"/>
	</g>
	<path class="st4" d="M1053.91,766.89c13.95,57.16-16.81,89.26-48.83,90.76c0,0-8.85,51.35-56.39,59.53
		c-32.23,5.54-71.28-15.63-77.61-52.43c-7.53-43.76,21.55-70.05,45.53-74.18c13.06-2.25,25.26,1.28,34.89,8.8l1.05,0.85
		c2.02-18.36,11.7-34.28,30.9-39.89c12.97-3.79,25.8-1.95,34,5.88l-0.33-1.9c5.18-31.42,28.08-40.37,46.15-37.34
		c17.18,2.88,26.75,20.08,22.34,34.2c-3.48,11.14-11.12,13.73-18.99,13.5c-4.36-0.13-8.33-1.79-10.85-4.74L1053.91,766.89z"/>
	<path class="st1" d="M465.92,661.7c0,0-2.94,23.07-23.02,42.81s-34.91,47.85-38.22,63.76c-3.31,15.9-2.62,36.89,0.43,45.36
		c1.87,5.19,6.31,9.88,10.81,8.75c5.36-1.35,5.53-7.22,4.99-19.14c-0.35-7.84-1.36-31.32,13.4-54.13
		c16.33-25.23,37.18-30.98,52.16-56c13.31-22.23,13.85-31.55,13.85-31.55L465.92,661.7z"/>
	<g>
		<path class="st1" d="M399.78,767.25c2.36-11.33,10.07-28.3,21.38-44.51c6.49-24.12,10.99-46.03,19.98-56.57l-26.5,11.99
			l-8.51,9.34c0,0-1.7,32.34-14.3,60.26c-12.6,27.91-28.17,37.53-32.6,41.62c-4.43,4.09-4.07,9.61-2.05,12
			c2.81,3.32,9.11,3.57,15.92-1.87c4.17-3.34,15.26-12.19,25.56-25.75C398.98,771.5,399.35,769.32,399.78,767.25z"/>
		<path class="st1" d="M406.18,762.61c3.57-6.02,6.76-12.69,9.14-19.97c0.24-0.73,0.47-1.47,0.71-2.2
			C411.58,748.46,408.21,756.15,406.18,762.61z"/>
	</g>
	<g>
		<g>
			<path class="st1" d="M639.68,583.1c17.93,5.67,35.14,13.45,51.23,23.18c4.61,2.79,9.12,5.73,13.54,8.82
				c1.11,0.77,2.78,0.2,3.42-0.9c0.73-1.25,0.21-2.64-0.9-3.42c-15.76-11.02-32.82-20.11-50.72-27.12
				c-5.02-1.96-10.1-3.75-15.24-5.38C637.93,577.31,636.61,582.13,639.68,583.1L639.68,583.1z"/>
		</g>
	</g>
	<g>
		<g>
			<path class="st1" d="M692.38,555.58c18.07,6.51,35.26,15.42,51.01,26.4c1.11,0.77,2.78,0.2,3.42-0.9
				c0.73-1.25,0.21-2.65-0.9-3.42c-12.51-8.73-25.94-16.13-39.98-22.1c-4.03-1.71-8.1-3.32-12.23-4.81
				c-1.27-0.46-2.74,0.52-3.08,1.75C690.25,553.89,691.1,555.12,692.38,555.58L692.38,555.58z"/>
		</g>
	</g>
	<g>
		<g>
			<path class="st1" d="M751.82,535.1c10.1,4.08,19.61,9.75,28,16.68c1.04,0.86,2.52,1.02,3.54,0c0.89-0.89,1.05-2.67,0-3.54
				c-9.11-7.52-19.25-13.54-30.21-17.97c-1.25-0.51-2.75,0.55-3.08,1.75C749.68,533.46,750.56,534.6,751.82,535.1L751.82,535.1z"/>
		</g>
	</g>
	<g>
		<g>
			<path class="st1" d="M801.98,510.42c8.68,2.72,16.74,7.26,23.55,13.3c2.4,2.13,5.95-1.39,3.54-3.54
				c-7.46-6.63-16.22-11.6-25.75-14.59C800.23,504.63,798.91,509.46,801.98,510.42L801.98,510.42z"/>
		</g>
	</g>
	<path class="st4" d="M126.49,467.45c1.7,3.76,5.71,5.83,10.2,5.83c6.2,0,12.17-2.21,14.66-11.08c3.15-11.23-4.79-24.58-18.41-26.45
		c-14.31-1.97-32.17,5.62-35.53,30.51l-0.48,0.82c-6.64-5.4-16.41-6.34-26.16-3.18c-16.47,5.34-23.62,20.21-23.62,36.45
		c0,22.04,17.87,39.91,39.91,39.91C113.36,540.26,139.29,513.98,126.49,467.45L126.49,467.45z"/>
	<circle class="st3" cx="816.26" cy="112.77" r="71.74"/>
	<path class="st1" d="M1003.21,104.71c5.83,5.83,15,10.53,15,10.53s-8.7,4.24-15,10.53c-6.3,6.3-10.53,24.71-10.53,24.71
		s-4.4-18.58-10.53-24.71c-6.13-6.13-13.98-10.53-13.98-10.53s7.76-4.32,13.98-10.53C988.36,98.49,992.68,80,992.68,80
		S997.38,98.88,1003.21,104.71z"/>
	<g>
		<path class="st1" d="M441.57,128.36c3.32,1.32,6.92,1.99,10.69,1.99c1.47,0,2.95-0.11,4.42-0.32c-2.63-4.69-5.14-9.09-7.47-13.08
			c-6.1-10.47-13.43-18.25-21.32-23.82c-1.96,3.26-3.16,6.97-3.24,10.75C424.44,114.08,431.55,124.38,441.57,128.36z"/>
		<path class="st1" d="M562.09,270.71c0,0-30.04-117.61-46.08-161.86c-14.98-41.3-58.41-51.48-77.71-45.27s-26.08,16.81-28.78,24.21
			c-4.29,11.78-3.5,25.41,2.57,36.37s17.47,18.94,29.91,20.39c1.36,0.16,2.73,0.24,4.1,0.24c5.89,0,11.77-1.46,17.01-4.14
			c0.43-0.22,0.86-0.44,1.29-0.68c0.26-0.14,0.51-0.3,0.76-0.45c0.39-0.23,0.77-0.46,1.15-0.7c0.26-0.17,0.51-0.34,0.77-0.51
			c0.36-0.25,0.72-0.5,1.07-0.76c0.25-0.18,0.5-0.37,0.74-0.56c0.35-0.27,0.68-0.55,1.02-0.83c0.23-0.2,0.47-0.39,0.7-0.6
			c0.34-0.3,0.67-0.61,0.99-0.92c0.21-0.2,0.42-0.4,0.63-0.6c0.35-0.35,0.68-0.72,1.02-1.09c0.16-0.18,0.34-0.36,0.5-0.54
			c0.49-0.56,0.96-1.14,1.4-1.73c0.72-0.95,1.29-2.51,0.27-3.14c-0.56,0.42-1.13,0.83-1.71,1.22c-0.14,0.1-0.28,0.19-0.42,0.28
			c-0.58,0.38-1.17,0.75-1.77,1.1c-0.03,0.02-0.07,0.04-0.1,0.06c-0.58,0.33-1.16,0.64-1.76,0.95c-0.15,0.08-0.3,0.15-0.45,0.23
			c-0.62,0.31-1.25,0.6-1.89,0.87c-0.06,0.03-0.13,0.05-0.19,0.08c-0.59,0.25-1.19,0.48-1.79,0.7c-0.16,0.06-0.31,0.11-0.47,0.17
			c-0.65,0.23-1.31,0.44-1.98,0.64c-0.09,0.03-0.18,0.05-0.27,0.07c-0.6,0.17-1.2,0.32-1.81,0.46c-0.16,0.04-0.32,0.07-0.48,0.11
			c-2.65,0.58-5.35,0.88-8.05,0.88c-4.28,0-8.54-0.75-12.54-2.34c-11.69-4.64-20.34-16.67-20.06-29.25s8.18-24.95,28.25-27.1
			s39.57,14.51,47.21,35.25c8.24,22.34,22.92,94.92,22.92,94.92s4.23,21.51,0,38.79c0,0-0.01-0.01-0.01-0.02
			c-1.35,5.74-3.35,10.63-4.93,14.16c-0.42,0.93-1.33,1.48-2.28,1.48c-0.34,0-0.69-0.07-1.02-0.22c-1.26-0.56-1.83-2.04-1.26-3.3
			c2.21-4.94,4.81-11.58,5.71-19.49c-8.62-16.73-30.39-58.73-49.16-93.02c-5.83,2.93-12.38,4.56-18.99,4.56
			c-0.99,0-1.98-0.05-2.96-0.12c12.62,25.09,26.65,55.79,26.65,55.79s19.78,41.79,19.06,59.57c0,0,0.68,30.64,17.02,55.83
			c0,0,16.03-15.96,46.31,6.15C573.26,304.79,562.09,270.71,562.09,270.71z"/>
		<path class="st1" d="M413.14,143.31c-8.3,9.46-21.51,14.67-33.89,12.44s-23.24-12.31-25.46-24.69
			c-2.22-12.38,5.13-25.81,16.86-30.37c11.59-4.51,22.1-4.32,31.3-0.91c0.31-4.65,1.26-9.28,2.87-13.71
			c0.35-0.97,0.76-1.92,1.19-2.85c-17.78-4.23-35.41-0.27-46.39,7.47c-13.68,9.64-17.78,18.94-18.95,26.73
			c-1.87,12.39,1.6,25.6,9.73,35.14c8.13,9.54,20.87,15.1,33.36,14.06c12.49-1.04,24.32-8.86,29.73-20.16
			C414.01,145.37,414.25,143.72,413.14,143.31z"/>
	</g>
	<path class="st2" d="M557.73,275.88c0.9,6.78-1.62,12.71-5.62,13.24s-7.99-4.53-8.89-11.31c-0.9-6.78,1.12-14.94,5.13-15.47
		S556.83,269.1,557.73,275.88z"/>
	<line class="st3" x1="542.07" y1="531.45" x2="351.83" y2="698.21"/>
	<path class="st3" d="M950.81,335.15c-43.4,51.57-148.09,70.47-242.04,98.55c-72.28,21.61-123.46,60.37-143.76,77.55"/>
	<line class="st3" x1="443.91" y1="469.96" x2="351.83" y2="698.21"/>
	<path class="st3" d="M601.59,484.19c0.74-112.75-50.78-168.78-76.99-168.82c-24.15-0.04-24.03,11.59-43.31,52.85"/>
	<path class="st3" d="M496.74,467c-59.49,9.77-88.23-7.25-88.23-7.25s27.09-19.07,50.67-52.38"/>
	<path class="st3" d="M591.66,407.32c0,0-13.8,32.33-58.91,50.18"/>
	<path class="st3" d="M441.13,429.8c-20.09-57.57-78.58-83.42-135.43-98.74c-56.85-15.32-120.51-33.7-145.02-88.17
		c0,0-37.05,133.04,61.62,229.79c69.79,68.43,121.53,74.21,159.3,151.75c0,0-54.79-73.12-215.81-84.35c0,0,37.15-33.79,75.96-49.45"
		/>
	<path class="st5" d="M372.75,646.36c0,0-74.54-49.77-188.58,45.55c0,0,15.66-83.74,81.36-116.09l53.45,10.55l61.86,39.93
		L372.75,646.36z"/>
	<path class="st1" d="M231.56,548.93c0,0-36.16,13.63-73.6,61.29c0,0,62.28-36.06,125.28-26.13c62.99,9.94,94.55,49.79,94.55,49.79
		l3.05-7.56c0,0-20.79-30.15-59.19-46.63S253.08,550.96,231.56,548.93z"/>
	<path class="st1" d="M212.17,847.06c0,0-4.09,28.85,22.47,32.43c26.55,3.57,37.28-37.19,43.91-101.79c0,0-54.47,15.06-78.72,28.6
		s-27.83,29.19-18.38,40.17C190.48,856.96,212.17,847.06,212.17,847.06z"/>
	<path class="st3" d="M505.18,627.86C433,647.21,334.98,746.38,312.17,773.62c-22.81,27.23-22.66,60.78-26.89,75.91
		c-4.77,17.02-14.64,50.38-49.36,48.68c-34.03-1.67-38.81-29.28-38.81-29.28s-37.45,6.81-39.15-34.38
		c-1.03-24.83,15.66-38.47,40.72-50.08c20.03-9.28,63.79-16.93,88.01-39.4c24.22-22.47,83.02-99.2,83.02-99.2"/>
	<path class="st5" d="M419.55,674.46c0,0,64.03-38.54,173.82,14.05C703.15,741.11,744,851.4,744,851.4s100.11-72.21,58.28-240.17
		l-77.69,69.62l-129.7-43.4l-91.91-1.02L419.55,674.46z"/>
	<path class="st1" d="M863.05,535.42c0,0,24.78,5.35,43.16,23.73c0,0-88.51,60.34-183.49,176.68c0,0-118.01-136.19-303.18-61.37
		l43.47-28.57l45.07-18.03c0,0,100.26-23.1,214.3,41.25C722.38,669.11,837.73,553.85,863.05,535.42z"/>
	<line class="st3" x1="937.28" y1="175.32" x2="959.74" y2="175.32"/>
	<line class="st3" x1="948.51" y1="164.09" x2="948.51" y2="186.55"/>
	<path class="st1" d="M590.51,802.41c5.83,5.83,15,10.53,15,10.53s-8.7,4.24-15,10.53c-6.3,6.3-10.53,24.71-10.53,24.71
		s-4.4-18.58-10.53-24.71s-13.98-10.53-13.98-10.53s7.76-4.32,13.98-10.53c6.22-6.22,10.53-24.71,10.53-24.71
		S584.69,796.58,590.51,802.41z"/>
	<path class="st1" d="M107.96,670.66c5.83,5.83,15,10.53,15,10.53s-8.7,4.24-15,10.53c-6.3,6.3-10.53,24.71-10.53,24.71
		s-4.4-18.58-10.53-24.71c-6.13-6.13-13.98-10.53-13.98-10.53s7.76-4.32,13.98-10.53c6.22-6.22,10.53-24.71,10.53-24.71
		S102.13,664.83,107.96,670.66z"/>
	<line class="st3" x1="524.58" y1="873.02" x2="547.05" y2="873.02"/>
	<line class="st3" x1="535.81" y1="861.79" x2="535.81" y2="884.26"/>
	<line class="st3" x1="50.45" y1="635.62" x2="72.92" y2="635.62"/>
	<line class="st3" x1="61.68" y1="624.39" x2="61.68" y2="646.86"/>
	<line class="st3" x1="605.51" y1="851.4" x2="627.98" y2="851.4"/>
	<line class="st3" x1="616.75" y1="840.17" x2="616.75" y2="862.64"/>
	<path class="st3" d="M418.44,322.66c-9.34-7.03-26.22-10.42-26.22-10.42s-1.64-41.19-19.49-60.63c7.94-2.01,13.34,1.46,13.34,1.46
		s-1.74-5.58,4.66-12.29c10.28,25.43,45.51,44.55,45.51,44.55s-4.42,16.22-2.48,27.7"/>
	<line class="st3" x1="386.08" y1="253.07" x2="415.41" y2="300.71"/>
	<path class="st1" d="M418.84,295.59c2.55,4.42,2.4,9.3-0.35,10.88s-7.05-0.71-9.6-5.14c-2.55-4.42-3.1-11.46-4.4-18.36
		C409.87,287.32,416.29,291.17,418.84,295.59z"/>
	<path class="st3" d="M457.56,326.45c-3.86-7.39-11.33-13.65-20.59-13.65c-12.34,0-22.34,10-22.34,22.34
		c0,4.91,1.59,9.46,4.27,13.15L588,596.34c0,0,8.43,11.66,17.36,6.38c7.81-4.61-0.51-18.64-0.51-18.64S461.42,333.84,457.56,326.45z
		"/>
	<path class="st1" d="M452.87,398.83l-7.78-12.83c2.62-1.59,62.95-37.81,120.75-41.16l5.96,14.78
		C516.44,360.7,453.5,398.45,452.87,398.83z"/>
	<path class="st3" d="M351.83,698.21c0,0,157.79-146.21,370.55-29.11c0,0,115.06-123.57,174.98-157.62c0,0-32.31-23.58-50.36-30.38"
		/>
	<g>
		<path class="st3" d="M477.92,600.86c33.35-15.64,63.95-22.69,94.44-27.46"/>
		<path class="st3" d="M596.75,569.94c40.54-5.33,82.13-9.66,130.91-27.73c197.97-73.32,223.15-207.06,223.15-207.06"/>
		<path class="st3" d="M477.92,600.86c-13.45,6.31-27.35,14-41.87,23.53L477.92,600.86z"/>
	</g>
	<g>
		<path class="st1" d="M543.16,476.39c20.12-14.58,38.53-36.25,50.77-68.33l-9.76,12.19l-19.16,18.44l-19.31,13.85l-13.68,4.39
			C535.75,463.45,539.48,469.96,543.16,476.39z"/>
		<path class="st1" d="M499.99,467.23l-33.67,2.72l-22.41,0.77l-14.03,34c0,0,42.86,6.01,86.68-13.17L499.99,467.23z"/>
	</g>
	<path class="st3" d="M88.09,480.68c-7.76,0-13.11,5.62-13.11,12.94c0,5.53,5.35,12.18,13.11,12.09
		c10.79-0.13,17.87-8.74,17.11-21.02c-1.45-19.74-17.96-26.13-34.43-20.79s-23.62,20.21-23.62,36.45
		c0,22.04,17.87,39.91,39.91,39.91c26.3,0,52.23-26.28,39.42-72.81"/>
	<path class="st3" d="M131.15,454.36c-3.15,1.58-5.17,4.47-5.47,7.73c-0.65,7.1,4.71,11.19,11.01,11.19
		c6.2,0,12.17-2.21,14.66-11.08c3.15-11.23-4.79-24.58-18.41-26.45c-14.31-1.97-32.17,5.62-35.53,30.51"/>
	<path class="st1" d="M128.37,475.54c0,0,7.38,4.47,14.61,2.4c7.06-2.02,13.36-8.32,11.22-23.94l-4.15,11.66l-13.45,8.38l-6.74-1.96
		L128.37,475.54z"/>
	<path class="st1" d="M52.23,484.99c-2.87,7.91-3.29,34.5,24.49,42.8c26.34,7.87,45.68-10.81,49.42-24.51l1.6,1.06l-4.17,12
		l-8.77,15.49l-17.02,7.74l-21.76-0.87l-21.48-14.28l-8.26-29.62L52.23,484.99z"/>
	<path class="st3" d="M962.26,656.47c-7.76,0-13.11,5.62-13.11,12.94c0,5.53,5.35,12.18,13.11,12.09
		c10.79-0.13,17.87-8.74,17.11-21.02c-1.45-19.74-17.96-26.13-34.43-20.79c-16.47,5.34-23.62,20.21-23.62,36.45
		c0,22.04,17.87,39.91,39.91,39.91c26.3,0,52.23-26.28,39.42-72.81"/>
	<path class="st3" d="M1005.32,630.14c-3.15,1.58-5.17,4.47-5.47,7.73c-0.65,7.1,4.71,11.19,11.01,11.19
		c6.2,0,12.17-2.21,14.66-11.08c3.15-11.23-4.79-24.58-18.41-26.45c-14.31-1.97-32.17,5.62-35.53,30.51"/>
	<path class="st1" d="M1002.54,651.32c0,0,7.38,4.47,14.61,2.4c7.06-2.02,13.36-8.32,11.22-23.94l-4.15,11.66l-13.45,8.38
		l-6.74-1.96L1002.54,651.32z"/>
	<path class="st3" d="M1004.76,782.23c-9.83-0.29-16.81,6.63-17.08,15.91c-0.2,7.01,6.33,15.63,16.16,15.8
		c13.67,0.24,22.97-10.42,22.45-26c-1.1-25.07-21.79-33.77-42.85-27.61c-19.2,5.61-28.88,21.54-30.9,39.89"/>
	<path class="st3" d="M1060.3,750.47c-4.05,1.88-6.72,5.48-7.22,9.59c-1.09,8.98,5.55,14.35,13.53,14.58
		c7.86,0.23,15.5-2.35,18.99-13.5c4.41-14.11-5.16-31.32-22.34-34.2c-18.06-3.02-40.97,5.93-46.15,37.34"/>
	<path class="st1" d="M1055.99,777.21c0,0,9.2,5.97,18.42,3.58c10.73-2.78,19.43-14.7,13.39-35.43l-3.99,20.13l-17.35,10.12
		l-8.46-2.73L1055.99,777.21z"/>
	<path class="st1" d="M926.41,660.77c-2.87,7.91-3.29,34.5,24.49,42.8c26.34,7.87,45.68-10.81,49.42-24.51l1.6,1.06l-4.17,12
		l-8.77,15.49l-17.02,7.74l-21.76-0.87l-21.48-14.28l-8.26-29.62L926.41,660.77z"/>
	<path class="st3" d="M214.47,348.94c4.6,37.02,30,81.56,74.3,113.15c42.78,30.51,66.99,45.6,92.07,78.17"/>
	<path class="st3" d="M272.16,361.7c5.62,23.49,25.79,50.54,55.8,71.67c23.86,16.81,55.01,40.74,74.87,65.52"/>
	<g>
		<g>
			<path class="st1" d="M332.73,374.07c4.83,11,13.07,20.07,22.04,27.87c4.63,4.03,9.54,7.71,14.36,11.51
				c5.02,3.95,9.97,8.01,14.75,12.25c5.56,4.93,10.88,10.11,15.91,15.57c2.19,2.37,5.71-1.17,3.54-3.54
				c-8.73-9.47-18.35-18.01-28.4-26.04c-9.41-7.51-19.19-14.58-27.19-23.67c-4.35-4.94-8.04-10.44-10.69-16.48
				c-0.54-1.24-2.35-1.52-3.42-0.9C332.35,371.39,332.19,372.83,332.73,374.07L332.73,374.07z"/>
		</g>
	</g>
	<g>
		<g>
			<path class="st1" d="M611.5,534.43c22.75-3.18,45.31-7.7,67.54-13.53c22.22-5.83,44.1-12.98,65.48-21.38
				c12.11-4.76,24.06-9.92,35.84-15.46c1.22-0.58,1.54-2.33,0.9-3.42c-0.73-1.25-2.19-1.47-3.42-0.9
				c-20.66,9.73-41.89,18.23-63.55,25.46c-21.65,7.22-43.71,13.17-66.06,17.82c-12.61,2.62-25.3,4.82-38.05,6.6
				c-1.34,0.19-2.07,1.89-1.75,3.08C608.82,534.12,610.15,534.62,611.5,534.43L611.5,534.43z"/>
		</g>
	</g>
	<g>
		<g>
			<path class="st1" d="M656.2,492.19c28.45-6.07,56.54-13.8,84.09-23.13c27.46-9.31,54.39-20.21,80.6-32.62
				c14.73-6.97,29.22-14.43,43.47-22.35c2.81-1.56,0.29-5.88-2.52-4.32c-25.23,14.03-51.27,26.62-77.96,37.62
				c-26.61,10.96-53.86,20.4-81.55,28.23c-15.68,4.43-31.51,8.35-47.44,11.75C651.72,488.04,653.05,492.86,656.2,492.19
				L656.2,492.19z"/>
		</g>
	</g>
	<path class="st3" d="M939.07,824.81c-12.34,2.12-20.62,13.85-18.5,26.18c2.12,12.34,13.85,20.62,26.18,18.5
		c6.83-1.18,13.32-3.46,18.36-10.28c5.04-6.83,9.51-15.46,4.68-32.05c-7.17-24.64-28.66-40.81-53.2-36.59
		c-23.98,4.12-53.05,30.41-45.53,74.18c6.33,36.79,45.38,57.97,77.61,52.43c47.54-8.18,56.39-59.53,56.39-59.53
		c32.02-1.5,62.79-33.59,48.83-90.76"/>
	<path class="st1" d="M1006.91,857.52c0,0-10.69,51.48-58.23,59.65c-32.23,5.54-71.28-15.63-77.61-52.43
		c-2.52-14.66,1.72-33.71,1.87-42.14c-21.04,47.4-0.67,97.01,46.5,110.66c36.02,10.42,80.18-15.48,86.68-64.77
		c0.15-1.17,70,0.16,52.52-89.88C1061.35,855.14,1006.89,859.01,1006.91,857.52z"/>
</g>
</svg>
