<svg width="24" height="24" viewBox="0 0 24 24" fill="none" xmlns="http://www.w3.org/2000/svg">
<path d="M12 24C18.6274 24 24 18.6274 24 12C24 5.37258 18.6274 0 12 0C5.37258 0 0 5.37258 0 12C0 18.6274 5.37258 24 12 24Z" fill="#FFCC4D"/>
<path d="M12 14C9.58463 14 7.98196 13.7187 5.99996 13.3333C5.54729 13.246 4.66663 13.3333 4.66663 14.6667C4.66663 17.3333 7.72996 20.6667 12 20.6667C16.2693 20.6667 19.3333 17.3333 19.3333 14.6667C19.3333 13.3333 18.4526 13.2453 18 13.3333C16.018 13.7187 14.4153 14 12 14Z" fill="#664500"/>
<path d="M6 14.6667C6 14.6667 8 15.3334 12 15.3334C16 15.3334 18 14.6667 18 14.6667C18 14.6667 16.6667 17.3334 12 17.3334C7.33333 17.3334 6 14.6667 6 14.6667Z" fill="white"/>
<path d="M8.00004 11.3334C8.92052 11.3334 9.66671 10.2887 9.66671 9.00008C9.66671 7.71142 8.92052 6.66675 8.00004 6.66675C7.07957 6.66675 6.33337 7.71142 6.33337 9.00008C6.33337 10.2887 7.07957 11.3334 8.00004 11.3334Z" fill="#664500"/>
<path d="M16 11.3334C16.9205 11.3334 17.6667 10.2887 17.6667 9.00008C17.6667 7.71142 16.9205 6.66675 16 6.66675C15.0796 6.66675 14.3334 7.71142 14.3334 9.00008C14.3334 10.2887 15.0796 11.3334 16 11.3334Z" fill="#664500"/>
</svg>
