<svg width="33" height="33" viewBox="0 0 33 33" fill="none" xmlns="http://www.w3.org/2000/svg">
<path d="M29.9376 17.1179H28.5301C28.4541 17.1179 28.378 17.1939 28.378 17.27V19.1721C28.378 19.2482 28.3019 19.3242 28.2258 19.3242H25.9053C25.8292 19.3242 25.7531 19.2482 25.7531 19.1721V11.2215C25.7531 11.1454 25.6771 11.0694 25.601 11.0694H23.5087C23.4327 11.0694 23.3566 11.1454 23.3566 11.2215V12.4769C23.3566 12.553 23.2805 12.629 23.2044 12.629H20.6176C20.5415 12.629 20.4655 12.553 20.4655 12.4769V11.2215C20.4655 11.1454 20.3894 11.0694 20.3133 11.0694H18.221C18.145 11.0694 18.0689 11.1454 18.0689 11.2215V12.4769C18.0689 12.553 17.9928 12.629 17.9167 12.629H17.5363C17.4602 12.629 17.3841 12.553 17.3841 12.4769V9.16732C17.3841 9.09123 17.4602 9.01515 17.5363 9.01515C19.096 9.35752 20.6176 7.95001 22.1773 8.67278C22.3295 8.74887 22.4816 8.63474 22.4816 8.48258V4.56437C22.4816 4.48829 22.4436 4.37416 22.3675 4.33612C20.7317 3.46118 19.096 5.13498 17.4983 4.79261C17.4222 4.79261 17.3841 4.71653 17.3841 4.67849V4.10788C17.3841 3.72747 17.1179 3.46118 16.7755 3.46118C16.4331 3.46118 16.1668 3.76551 16.1668 4.10788V12.4769C16.1668 12.553 16.0908 12.629 16.0147 12.629H15.4441C15.368 12.629 15.2919 12.553 15.2919 12.4769V11.2215C15.2919 11.1454 15.2158 11.0694 15.1397 11.0694H13.0475C12.9714 11.0694 12.8953 11.1454 12.8953 11.2215V12.4769C12.8953 12.553 12.8192 12.629 12.7432 12.629H10.1564C10.0803 12.629 10.0042 12.553 10.0042 12.4769V11.2215C10.0042 11.1454 9.92813 11.0694 9.85205 11.0694H7.7598C7.68372 11.0694 7.60764 11.1454 7.60764 11.2215V19.1721C7.60764 19.2482 7.53156 19.3242 7.45548 19.3242H5.28714C5.21106 19.3242 5.13498 19.2482 5.13498 19.1721V17.27C5.13498 17.1939 5.0589 17.1179 4.98282 17.1179H3.61335C3.53726 17.1179 3.46118 17.1939 3.46118 17.27V29.9376C3.46118 30.0137 3.53726 30.0898 3.61335 30.0898H7.22723C7.30331 30.0898 7.37939 30.0137 7.37939 29.9376V24.6119C7.37939 23.1664 8.44454 22.0251 9.77597 22.0251C11.1074 22.0251 12.1725 23.2044 12.1725 24.6119V29.9376C12.1725 30.0137 12.2486 30.0898 12.3247 30.0898H21.2643C21.3404 30.0898 21.4165 30.0137 21.4165 29.9376V24.6119C21.4165 23.1664 22.4816 22.0251 23.8131 22.0251C25.1445 22.0251 26.2096 23.2044 26.2096 24.6119V29.9376C26.2096 30.0137 26.2857 30.0898 26.3618 30.0898H29.9757C30.0518 30.0898 30.1278 30.0137 30.1278 29.9376V17.27C30.0898 17.1939 30.0137 17.1179 29.9376 17.1179ZM23.1283 19.3242H20.7698C20.6937 19.3242 20.6176 19.2482 20.6176 19.1721V18.4873C20.6176 18.4113 20.5415 18.3352 20.4655 18.3352H18.183C18.1069 18.3352 18.0308 18.4113 18.0308 18.4873V19.1721C18.0308 19.2482 17.9548 19.3242 17.8787 19.3242H15.5201C15.4441 19.3242 15.368 19.2482 15.368 19.1721V18.4873C15.368 18.4113 15.2919 18.3352 15.2158 18.3352H12.9334C12.8573 18.3352 12.7812 18.4113 12.7812 18.4873V19.1721C12.7812 19.2482 12.7051 19.3242 12.629 19.3242H10.2705C10.1944 19.3242 10.1183 19.2482 10.1183 19.1721V16.8896H23.0522V19.1721C23.2424 19.2482 23.2044 19.3242 23.1283 19.3242Z" fill="white" fill-opacity="0.87"/>
</svg>
