<svg width="33" height="33" viewBox="0 0 33 33" fill="none" xmlns="http://www.w3.org/2000/svg">
<path d="M28.7808 13.3777C28.6021 12.1031 26.4579 11.9614 26.3239 10.8002C26.1899 9.58222 26.726 8.13769 26.3239 6.94808C24.5818 1.6798 11.8955 3.94573 11.8955 3.94573C9.88538 4.68215 8.85797 6.32495 8.18792 7.68451C7.69655 8.70417 7.69655 10.347 6.80315 11.3383C6.66914 11.5083 6.49046 11.6499 6.26711 11.7632C5.82041 12.0464 5.2397 12.1314 4.97168 12.5279C4.52498 13.1511 5.01635 14.1141 5.41838 14.6806C5.95442 15.3887 6.71381 16.0118 7.4732 16.6066C7.65188 16.7199 8.67929 17.2581 8.67929 17.428C8.67929 18.5893 9.12599 19.8072 9.39401 20.9402C9.75137 22.5263 9.75137 24.1408 10.1981 25.6986C10.5554 26.9449 11.2255 28.3045 12.5209 29.2675C14.0844 30.4571 15.9158 30.3438 17.7473 29.3524C19.7128 28.3045 19.5341 26.605 20.1595 25.1605C20.8742 23.5743 22.3036 22.1298 22.929 20.572C23.2417 19.8072 23.5991 19.0425 24.0458 18.306C24.1798 18.1078 24.3138 17.5696 24.5818 17.3997C26.4579 16.465 29.0041 15.0204 28.7808 13.3777ZM16.9432 13.2077C17.2113 13.2077 17.5239 13.2644 17.8366 13.4626C18.0153 13.5759 19.2214 14.7939 18.7747 14.9355C17.7473 15.2754 16.0052 14.9355 15.0671 14.5956C15.3351 14.0574 15.9605 13.236 16.9432 13.2077ZM8.54528 12.8961C8.00924 12.4146 8.50061 12.2164 9.17066 11.9331C10.0194 11.5649 10.5554 11.31 11.1361 10.7435C11.8955 10.0071 11.9849 8.98742 12.9229 8.30764C13.0569 8.22267 13.2356 8.13769 13.459 8.08104C15.6478 7.51456 14.3077 10.0921 13.995 10.6585C13.593 11.3666 13.1463 12.1031 12.2976 12.6412C11.3148 13.236 9.48335 13.7175 8.54528 12.8961ZM18.1047 24.2541C17.4793 25.6137 18.462 28.701 15.9158 29.1542C13.4143 29.579 12.8336 27.7663 12.5209 26.6617C12.0295 24.9622 11.6722 23.2628 11.6275 21.535C11.5828 20.3454 11.6722 19.1558 11.9402 17.9662C12.0295 17.513 13.6823 16.8332 14.2184 16.6632C14.7544 16.4933 16.1838 16.6916 16.7646 16.7482C17.4793 16.8049 18.194 16.9182 18.7747 17.1448C19.8915 17.5696 20.4275 18.2777 20.6955 19.0708C21.2762 20.7986 18.8194 22.6113 18.1047 24.2541ZM25.7432 13.6609C24.8052 14.4823 22.9737 14.0008 22.0803 13.4343C21.2316 12.9245 20.7402 12.1597 20.3828 11.4516C20.0701 10.8851 18.6854 8.30764 20.9189 8.87412C21.1422 8.93077 21.3209 9.01574 21.4549 9.10071C22.393 9.78049 22.4376 10.7718 23.2417 11.5366C23.8224 12.1031 24.3138 12.358 25.2072 12.7262C25.7879 12.9811 26.3239 13.1794 25.7432 13.6609Z" fill="white" fill-opacity="0.87"/>
</svg>
