<svg width="24" height="24" viewBox="0 0 24 24" fill="none" xmlns="http://www.w3.org/2000/svg">
<path d="M24 12C24 18.6273 18.6273 24 12 24C5.37333 24 0 18.6273 0 12C0 5.37333 5.37333 0 12 0C18.6273 0 24 5.37333 24 12Z" fill="#FFCC4D"/>
<path d="M10.3046 10.5433C10.2646 10.4533 9.30525 8.34534 7.33325 8.34534C5.36192 8.34534 4.40192 10.4533 4.36192 10.5433C4.30059 10.6813 4.34059 10.8427 4.45792 10.9373C4.57592 11.0327 4.74259 11.0353 4.86459 10.9467C4.87325 10.9407 5.70592 10.3453 7.33325 10.3453C8.95059 10.3453 9.78259 10.9327 9.80125 10.946C9.85992 10.99 9.92992 11.012 9.99992 11.012C10.0733 11.012 10.1473 10.9873 10.2073 10.9393C10.3266 10.8447 10.3659 10.682 10.3046 10.5433Z" fill="#66471B"/>
<path d="M20.6667 8.99996C20.6667 11.3933 18.7267 13.3333 16.3333 13.3333C13.94 13.3333 12 11.3933 12 8.99996C12 6.60663 13.94 4.66663 16.3333 4.66663C18.7267 4.66663 20.6667 6.60663 20.6667 8.99996Z" fill="#F5F8FA"/>
<path d="M16.3333 10.6667C17.2538 10.6667 18 9.92052 18 9.00004C18 8.07957 17.2538 7.33337 16.3333 7.33337C15.4128 7.33337 14.6666 8.07957 14.6666 9.00004C14.6666 9.92052 15.4128 10.6667 16.3333 10.6667Z" fill="#292F33"/>
<path d="M4.66663 14.1747C4.66663 16.8173 7.73063 20.1747 12 20.1747C16.2693 20.1747 19.3333 16.8413 19.3333 14.1747C19.3333 14.1747 12.4446 16.012 4.66663 14.1747Z" fill="#66471B"/>
<path d="M12.3633 15.736L11.636 15.7327C9.492 15.6833 8 15.3353 8 15.3353V19.976C8 21.976 9.33333 23.976 12 23.976C14.6667 23.976 16 21.976 16 19.976V15.3627C14.7187 15.6253 13.4753 15.724 12.3633 15.736Z" fill="#E8596E"/>
<path d="M12 21.2287C12.2007 21.2287 12.3633 21.066 12.3633 20.8653V15.736L11.636 15.7327V20.8653C11.6367 21.066 11.7993 21.2287 12 21.2287Z" fill="#DD2F45"/>
</svg>
