<svg width="24" height="24" viewBox="0 0 24 24" fill="none" xmlns="http://www.w3.org/2000/svg">
<path d="M12 24C18.6274 24 24 18.6274 24 12C24 5.37258 18.6274 0 12 0C5.37258 0 0 5.37258 0 12C0 18.6274 5.37258 24 12 24Z" fill="#FFCC4D"/>
<path d="M16.3333 12.6667C18.3583 12.6667 20 11.0251 20 9.00004C20 6.975 18.3583 5.33337 16.3333 5.33337C14.3082 5.33337 12.6666 6.975 12.6666 9.00004C12.6666 11.0251 14.3082 12.6667 16.3333 12.6667Z" fill="#F4F7F9"/>
<path d="M7.66667 12.6667C9.69171 12.6667 11.3333 11.0251 11.3333 9.00004C11.3333 6.975 9.69171 5.33337 7.66667 5.33337C5.64162 5.33337 4 6.975 4 9.00004C4 11.0251 5.64162 12.6667 7.66667 12.6667Z" fill="#F4F7F9"/>
<path d="M15.406 15.616C13.564 15.1713 9.49071 15.576 7.96471 18.5526C7.91004 18.658 7.93804 18.788 8.03137 18.862C8.07671 18.8986 8.13204 18.9166 8.18737 18.9166C8.24404 18.9166 8.30137 18.8973 8.34804 18.8586C10.404 17.1386 13.3054 17.1386 15.0387 17.1386C16.1287 17.1386 16.7294 17.1386 16.7294 16.6666C16.7294 16.1946 16.2594 15.8213 15.406 15.616ZM7.00004 8.66664C7.92071 8.66664 8.66671 7.92064 8.66671 6.99998C8.66671 6.16531 8.05137 5.47998 7.25071 5.35864C6.72404 5.41798 6.23337 5.59064 5.79871 5.84931C5.51204 6.14864 5.33337 6.55264 5.33337 6.99998C5.33337 7.92064 6.07937 8.66664 7.00004 8.66664ZM15.6667 8.66664C16.5874 8.66664 17.3334 7.92064 17.3334 6.99998C17.3334 6.16531 16.718 5.47998 15.9174 5.35864C15.3914 5.41798 14.9 5.59064 14.466 5.84931C14.1787 6.14864 14 6.55264 14 6.99998C14 7.92064 14.746 8.66664 15.6667 8.66664Z" fill="#65471B"/>
</svg>
