<svg width="20" height="20" viewBox="0 0 20 20" fill="none" xmlns="http://www.w3.org/2000/svg">
<path d="M15.3155 6.25185C14.5247 7.55556 14.6058 8.98148 14.6261 9.26667C11.7877 5.43704 10.9361 2.91111 11.3213 0.833336C9.15193 1.68889 6.82034 4.96852 6.51621 7.61667C5.44165 6.78148 5.84715 4.80556 6.17154 4.2963C3.02896 7.45371 2.07605 11.2426 2.66401 13.463C3.27226 15.6833 4.87396 17.8019 7.24611 19.1667H7.71243C7.63133 19.0444 7.5705 18.9019 7.52995 18.7796C6.77979 16.4981 8.78699 15.8259 8.78699 14.8482C9.37495 15.2148 9.35468 15.6426 9.13166 16.2537C9.84127 15.8056 10.3481 14.4 10.0643 13.463C11.4227 14.1352 11.8485 16.1111 11.9701 16.7222C12.0309 16.1926 12.0309 15.6833 12.8217 15.3778C12.6392 16.213 14.0787 17.1704 13.7948 18.3722C13.734 18.637 13.6327 18.8815 13.511 19.1056C16.0859 17.5778 17.7687 15.5407 17.4646 12.9537C17.1605 10.3056 15.0924 7.71852 15.3155 6.25185Z" fill="white" fill-opacity="0.87"/>
</svg>
