<?xml version="1.0" encoding="utf-8"?>
<!-- Generator: Adobe Illustrator 25.3.1, SVG Export Plug-In . SVG Version: 6.00 Build 0)  -->
<svg version="1.1" xmlns="http://www.w3.org/2000/svg" xmlns:xlink="http://www.w3.org/1999/xlink" x="0px" y="0px"
	 viewBox="0 0 1133.6 1034.8" style="enable-background:new 0 0 1133.6 1034.8;" xml:space="preserve">
<style type="text/css">
	.st0{fill:none;}
	.st1{fill:transparent;}
	.st2{fill:#FFFFFFDD;}
	.st3{fill:url(#Nouvelle_nuance_de_motif_2);}
	.st4{fill:none;stroke:#FFFFFFDD;stroke-width:5;stroke-linecap:round;stroke-miterlimit:10;}
	.st5{fill:none;stroke:#FFFFFFDD;stroke-width:5;stroke-miterlimit:10;}
	.st6{fill:none;stroke:#FFFFFFDD;stroke-width:5;stroke-linecap:round;stroke-linejoin:round;stroke-miterlimit:10;}
	.st7{fill:none;stroke:transparent;stroke-width:5;stroke-miterlimit:10;}
	.st8{fill:#FFFFFFDD;stroke:#FFFFFFDD;stroke-width:5;stroke-miterlimit:10;}
	.st9{fill:none;stroke:transparent;stroke-width:5;stroke-linecap:round;stroke-miterlimit:10;}
	.st10{fill:url(#Nouvelle_nuance_de_motif_1);}
</style>
<pattern  x="15.6" y="1034.8" width="11" height="11" patternUnits="userSpaceOnUse" id="Nouvelle_nuance_de_motif_1" viewBox="0 -11 11 11" style="overflow:visible;">
	<g>
		<rect y="-11" class="st0" width="11" height="11"/>
		<circle class="st1" cx="2.5" cy="-8.5" r="2.5"/>
		<rect y="-11" class="st0" width="11" height="11"/>
	</g>
</pattern>
<pattern  x="15.6" y="1034.8" width="11" height="11" patternUnits="userSpaceOnUse" id="Nouvelle_nuance_de_motif_2" viewBox="0.2 -11 11 11" style="overflow:visible;">
	<g>
		<rect x="0.2" y="-11" class="st0" width="11" height="11"/>
		<circle class="st2" cx="2.7" cy="-8.5" r="2.5"/>
		<rect x="0.2" y="-11" class="st0" width="11" height="11"/>
	</g>
</pattern>
<g id="Calque_3">
	<rect x="0.5" y="2.3" class="st1" width="1133.6" height="1034.8"/>
</g>
<g id="Calque_1">
	<path class="st2" d="M522.9,369.3c-11.5,0-23.4-0.3-35.5-1.1c-94.8-6-170.7-30.6-177.2-68.2c-0.2-1.4,0.6-2.7,2-2.9s2.7,0.6,2.9,2
		c2.7,13.4,22,27.6,53,39c32.3,11.8,74.8,19.9,119.6,22.7c45.5,2.9,89.1,0.1,122.8-7.8c32.4-7.6,52.9-19.5,56.5-32.7
		c0.4-1.3,1.7-2.1,3.1-1.8c1.3,0.4,2,1.7,1.8,3.1C665.4,354.9,602.9,369.3,522.9,369.3z"/>
	<path class="st3" d="M260.4,244.3c-2.2-4.4-4.7-8.1-8.1-11.6c-2.7-2.7-5-5.4-6.5-8.8c-0.7,0.9-1.6,1.6-2.7,1.9
		c-1.1,0.3-2.1,0.7-3.1,1.1c-1.3,0.5-2.6,0.7-4,0.9c-1,0.1-1.9-0.2-2.7-0.7c-2.7,1.3-5.4,2.6-8.1,3.9c-2.1,0.4-4.2,1.1-6.2,2
		c-3.7-1.4-7.7-1-11.6,0.1c-1.1-0.4-2.2-0.6-3.4-0.5c-2.1,0.2-4.1,0.4-6.2,0.7c-1.6-1-3.5-1.5-5.4-1.4c-3.8,0.2-7.5,0.8-11.1,1.8
		c-3.4-0.8-7.2-0.9-10.8-0.1c-3.5-0.3-6.9-0.9-10.4-1.8c-5.2-1.4-10.1-2.8-15.1-1.7c-4.5-5.2-13.5-6.5-17.6,1.3
		c-5,9.5-9.5,19.3-13.4,29.4c-0.1,1.7-0.2,3.5-0.3,5.3c-0.1,5.3-1.2,10.5-1.4,15.8c0,1.1-0.4,2-0.9,2.7c1.1,1.3,2.5,2.3,4,2.9
		c5.3,2.1,10.5,0.1,13.7-4.5c3.8-5.4,8.4-12.4,14.1-15.9c0.1-0.1,0.3-0.1,0.4-0.2c1-1.4,2.3-2.6,3.9-3.3c1.6-0.8,3.4-1.2,5.1-1.7
		c0.8-0.2,1.7-0.3,2.4-0.1c1.8-0.8,4.1-0.3,5.7,1c0,0,0.1,0.1,0.1,0.1c0.3,0.2,0.6,0.4,0.9,0.6c0.8,0.6,1.7,1.2,2.4,1.8
		c1.6,1.3,2.8,3.1,3.4,5.1c0.2,0.8,0.2,1.6,0.1,2.3c0.5,0.5,0.9,1.1,1.3,1.7c0.2,0.4,0.5,0.8,0.7,1.2c1.9,1.8,4,3.4,6.2,4.8
		c1.7,1.9,3.2,3.9,4.7,6c1.1,1.6,2.4,2.9,3.9,3.8c1.5,1.8,3.1,3.4,4.9,4.6c0.2,0,0.4,0,0.7,0c4.4,0,8.5,1.9,12.9,1.7
		c2-0.1,4-0.2,5.9,0c6-6,13.5-10.3,18.4-17.3c4.1-5.8,7.2-11.3,14-14.3c9.5-4.2,19.7-1.2,24.4,6.8c0.7-0.3,1.3-0.8,1.9-1.2
		C266.7,261.4,264.4,252.2,260.4,244.3z"/>
	<path class="st3" d="M605.9,469.9c-4.3-1.8-8.9-4.3-12.9-6.7c-5.3-3.3-9.8-7.8-14.9-11.5c-2.3-1.7-4.8-3.4-6.8-5.5
		c-1.9-2-2.9-4.4-5.3-5.9c-2.2-1.4-4.2-2.7-6.2-4.2c-1-0.8-2.1-1.4-3.1-2.1c-0.4-0.3-0.9-0.5-1.3-0.6c0,0.1-0.1,0.1-0.2,0.2
		c-1.2,1-1.9,4.2-2.4,5.6c-1.1,3.1-1.8,6.3-2.5,9.5c-1.7,7.1-3.2,14.2-6.4,20.8c-1.7,3.5-3.6,6.8-5.6,10.1c-1.1,2.9-2.6,5.7-4.4,8.2
		c-0.5,0.7-1.1,1.3-1.8,1.7c-0.1,0.3-0.2,0.5-0.3,0.8c0,0.2,0,0.5-0.1,0.7c1.8,1.2,3.9,1.9,6.1,2c4,0.3,7.9,0.4,11.9,0.3
		c0.2,0.1,0.3,0.2,0.5,0.4c3.5-2.5,9.5-2,13.3-1.5c0.8,0.1,1.5,0.3,2.2,0.7c5.1-0.3,10.2-0.7,15.3-1.5c1.5-0.2,3-0.5,4.6-0.8
		c0-0.2,0-0.3,0-0.5c-0.1-1.4,0.2-2.8,0.9-3.9c0.8-1.7,2.4-2.8,4.1-3.4c0.8-0.3,1.8-0.2,2.7,0c0.7-0.5,1.6-0.7,2.7-0.7
		c0.1,0,0.2,0,0.3,0c0.1-0.1,0.2-0.1,0.2-0.2c0.2-0.1,0.5-0.3,0.7-0.4c0.9-0.6,1.9-1,3-1c0.7,0,1.3,0.1,1.9,0.4
		c0.4,0.1,0.8,0.3,1.1,0.6c0.1,0.1,0.2,0.2,0.3,0.2c2.7-2.8,4.5-6.4,4.9-10.9C607.8,470.6,606.8,470.3,605.9,469.9z"/>
	<path class="st3" d="M730.9,592.2c-7.4-4.6-14.3-10-20.5-15.9c-0.2-0.2-0.3-0.3-0.5-0.5c-1-0.8-1.9-1.6-2.8-2.4
		c-3-1.9-5.9-3.9-8.5-6.4c-1-0.9-1.4-2.1-1.4-3.3c-1.7-1.4-3.5-2.8-5.2-4.2c-0.3-0.1-0.5-0.2-0.8-0.3c-1.7-0.9-3.2-2-4.6-3.2
		c-0.1-0.1-0.1-0.1-0.2-0.1c-1.3-1.1-2.6-2.2-3.8-3.4c-1-0.9-1.9-1.8-2.9-2.8c-1.3-1.4-1.6-3-1.3-4.4c-2.4-0.4-4.9,0-7.1,1.5
		c-0.1-0.1-0.3-0.1-0.4-0.2c-1.3-0.7-2.7-1-4.2-0.9l-2.9,0.4c-0.9,0.2-1.7,0.6-2.5,1c0,0.6-0.1,1.2-0.1,1.8c0.4,0.5,0.7,1,0.9,1.6
		c0.4-1,1.2-2,2.1-2.5c1.2-0.7,2.5-0.7,3.9-0.5c2.3,0.4,4.4,2.2,5,4.5c0.6,2.1,0,4.4-1.3,6.1c-0.2,0.2-0.3,0.5-0.5,0.7
		c0.6,0.6,1,1.3,1.3,2.1c0.8,2.6-1,5.4-3.5,6.2c-1.5,0.4-3.3,0.4-4.7-0.1c-1.3-0.4-2.3-1.1-3.1-2c0,0.3,0,0.6,0,0.8
		c0.1,1.9-0.7,3.3-1.9,4c0.5,0.4,0.9,0.8,1.2,1.3c0.6,1,0.9,2.7,0.5,3.9c-0.4,1.1-0.8,2-1.6,2.9c-0.2,0.2-0.4,0.3-0.6,0.5
		c0,0-0.1,0.1-0.1,0.1c0.7,0.9,1.2,2,1.2,3.1v5.1c0,0.2,0,0.4,0.1,0.5c1.4,0.2,2.8,0.4,4.2,0.8c0.7,0.2,1.2,0.4,1.7,0.8
		c0.1,0,0.1,0,0.2,0c8.9,0.7,17.7,2.1,26.4,4.1c1-0.6,2.2-0.9,3.6-0.7c3.3,0.6,6.5,1.1,9.6,2.1c1.1,0.2,2.2,0.5,3.2,0.7
		c0.2-0.1,0.4-0.1,0.6-0.2c7.6-1.6,15.5-0.2,22.8,2c0.3,0.1,0.6,0.2,0.9,0.4c1,0.1,1.9,0.3,2.9,0.5c0.2-0.3,0.4-0.7,0.6-1
		C734.8,595.3,732.8,593.7,730.9,592.2z"/>
	<path class="st3" d="M874.7,510.5c-7.3-2.3-14.3-5.4-21-9.2c-0.1,0-0.1,0-0.2-0.1c-1.3-0.5-2.6-1-3.9-1.6c-0.5-0.1-1.1-0.3-1.7-0.7
		c-0.7-0.4-1.4-0.9-2.1-1.3c-0.5-0.3-1-0.6-1.5-0.9c-0.4-0.2-0.7-0.4-1.1-0.7c-0.2-0.2-0.5-0.3-0.7-0.5c-0.5-0.3-1-0.7-1.5-1
		c-0.5-0.3-0.9-0.7-1.2-1.1c-2.3-1.7-4.6-3.5-7-5.2c-0.5-0.4-0.9-0.8-1.2-1.2c-1-0.8-1.9-1.7-2.9-2.6c-0.3-0.3-0.6-0.6-0.8-1
		c-2.8-1.9-5.5-4-8-6.2c-2.3-1.5-4.7-2.9-7.1-4.3c-7.7-8.1-15.6-16-23.6-23.7c-0.6-0.6-1.3-1.1-2-1.5c-8.4-11.2-16.6-22.4-24.7-33.8
		c-1.1-1.5-2.4-2.8-3.9-3.7c-2.2-4.5-4.3-9.2-6.2-13.9c-2.2-5.5-7.4-9.4-13.5-7.7c-5.2,1.4-9.9,8-7.7,13.5
		c4.5,11.2,9.6,22.1,15.6,32.5c-2.1,2.3-3.3,5.5-2.8,8.7c-1,1.9-1.4,4.1-1,6.3c-2.4,2.4-3.9,5.8-3.5,9.3c-1.8,2.5-2.8,5.7-2.3,8.8
		c-3.2,3-5,7.6-3.3,12.2c-2.5,3.2-3.4,7.7-1,12c5.4,9.4,13.4,16,21.6,22.6c1.4,1.4,2.9,2.9,4.4,4.2c0.6,0.5,1.1,0.9,1.7,1.3
		c0.5,1.7,1.4,3.2,2.8,4.3c0.8,0.7,1.6,1.3,2.4,1.9c2.2,1.8,4.4,3.6,6.7,5.3c0.3,0.4,0.5,0.7,0.8,1.1c3.9,4.8,11.5,4.2,17,4.2
		c6.1,0,12.2-0.7,18.2-1.6c4.8-0.8,10.9-1.7,16.3-3.6c0.5,0.2,0.9,0.4,1.4,0.5c0.9,0.2,1.7,0.3,2.5,0.4c1-0.3,1.9-0.6,2.8-0.9
		c3.6-2.7,9-4.2,12.9-4.8c0,0,0.1,0,0.1,0c0,0,0,0,0,0c0.5-0.1,0.9-0.1,1.3-0.2c0.8-0.1,1.5,0,2.1,0.2c0.2-0.1,0.4-0.1,0.6-0.2
		c0.3-0.2,0.6-0.4,0.9-0.6c1-0.2,1.9-0.4,2.9-0.5c2.8-0.9,5.5-1.9,8.1-3.2c0.2-0.8,0.6-1.5,1.3-2c0.2-0.1,0.3-0.3,0.5-0.4
		c1.2-1.3,2.6-1.7,3.9-1.5c0.6-0.3,1.9-0.7,2.1-0.8c1.8-0.7,3.6,0,4.8,1.3c1-1.4,1.6-3,1.8-4.8C875,512.9,875,511.7,874.7,510.5z"/>
	<path class="st3" d="M136,506.8c0.1-0.9,0.4-2.6,0.7-4.4c0,0-0.1-0.1-0.1-0.1c-0.5-0.4-1-0.8-1.3-1.4c-0.4-0.6-0.6-1.2-0.6-1.9
		c-0.1-0.7-0.1-1.3,0.1-2c0.2-0.5,0.4-0.9,0.6-1.4c0-0.1,0.1-0.1,0.1-0.2c0.1-0.2,0.3-0.5,0.5-0.7c0,0,0,0,0,0
		c-1.8-3.8-5.7-6.7-10-6.5c-0.7,0-1.5,0.1-2.2,0.3c-5.1-3.1-12.2-1.7-18.1-3.5c-1.5-0.4-2.8-0.6-4.1-0.4c-0.7-0.8-1.6-1.5-2.7-2.2
		c-0.1-0.1-0.3-0.2-0.4-0.3c-3.1-1.8-8.1-2.3-11.1,0c-2.2,1.7-3.8,3.1-5.1,5.6c-0.9,1.9-1.4,2.9-1.4,3.3c-1.6,1.1-3.9,2.8-3.7,2.6
		c-0.5,0.5-1,1-1.4,1.6c-6.7,5.6-4.3,18.8,6.9,19.6c5.5,0.4,10.4,4.3,15.3,6.4c6.3,2.7,14,7.2,21,6.5c1.1-0.1,2.1-0.3,3.1-0.7
		c1.3,0.4,2.8,0.6,4.2,0.4c1.8,0,3.5-0.5,5-1.5c2.4-1.5,4.9-4.1,5.4-7c0.4-2.3,0.2-4.6-0.5-6.8C135.9,510.7,135.8,508.7,136,506.8z"
		/>
	<path class="st3" d="M982.6,217.5c-0.4-0.1-0.8-0.2-1.2-0.2c-0.1,0-0.2,0-0.3,0c0,0.2,0.1,0.4,0.1,0.6c0.2,0.7,0.2,1.3,0.1,1.9
		c0.6,0.5,1.1,1.3,1.3,2.2c0.1,0.1,0.1,0.2,0.2,0.3c0.8-1.4,1.6-2.9,2.5-4.3C984.3,217.9,983.5,217.7,982.6,217.5z"/>
	<path class="st4" d="M677.8,799.1c0,0,12.8-24.9,45.6-27.5"/>
	<path class="st4" d="M703.1,822.9c0,0,12.3-24.3,44.9-26.8"/>
	<path class="st4" d="M724.3,852c0,0,18-30.1,49.4-31.1"/>
	<path class="st4" d="M592.1,872.6c0,0,41.1-21.1,78.6-8.9"/>
	<path class="st4" d="M617.2,831c9.5-0.3,19.2,0.8,28.3,3.8"/>
	<path class="st4" d="M542.5,818c0,0,37.5-23.4,79.9-10.8"/>
	<path class="st3" d="M531.7,858.9c-2-2.2-4-4.5-5.9-6.8c-1.1-1.4-2.2-2.7-3.3-4c-0.3-0.4-0.7-0.6-1-0.9c-0.4-0.5-0.7-1-1.1-1.4
		c-2.1-3-4.2-5.9-6.4-8.8c-0.1-0.1-0.2-0.3-0.3-0.4c0,0,0,0,0,0c-0.2-0.3-0.5-0.6-0.7-0.9c-0.4-0.5-0.9-0.9-1.5-1.1
		c-1.1-1.5-2.1-3.1-3.2-4.7c-1.3-2-4-3-6.2-1.6c-0.2,0.1-0.4,0.2-0.6,0.4c-2.6,0.6-5,1.7-7.3,3.2c-0.4,0.3-0.7,0.6-1,0.9
		c-0.7,0.3-1.3,0.5-2,0.7c-3.3,1.1-4.3,4.9-2,7.5c1.7,1.9,3.5,3.8,5.2,5.8c1.9,2.6,4.1,4.9,6.5,7.1c1,0.9,2.1,1.3,3.2,1.3
		c0.1,0.1,0.3,0.2,0.4,0.4c0,0,0.1,0,0.1,0.1c3.5,4.7,7.1,9.3,10.9,13.9c0.1,0.1,0.2,0.2,0.3,0.4c0.3,0.4,0.7,0.9,1,1.3
		c1.5,1.9,4.8,1.5,6.4,0c1.9-1.9,4-3.3,6.3-4.6c0.2-0.1,0.4-0.2,0.5-0.3c0.2-0.1,0.5-0.3,0.7-0.4
		C533.5,864.6,533.5,860.9,531.7,858.9z M520.8,861.5c-0.8-1.2-1.7-2.4-2.5-3.6c0.9,1.2,1.7,2.3,2.6,3.5
		C520.8,861.5,520.8,861.5,520.8,861.5z"/>
	<path class="st3" d="M580.9,921.1c-1.2-1.6-2.3-3.2-3.5-4.9c-1.9-3-4.2-5.9-5.9-8.3c-0.8-1.1-1.9-1.7-3-1.9
		c-5.7-7.3-11-14.8-15.9-22.7c-2.1-3.3-7.1-2.7-8.2,1.1c0.2-0.6-3.2,0.7-3.8,1c-1.7,0.9-3.2,2.1-3.9,3.9c-0.1,0.2-0.1,0.3-0.2,0.5
		c-1.4,1.6-1.8,4.1-0.1,6.2c1.4,1.7,2.9,3.3,4.6,4.7c1.9,3.5,4.8,6.8,6.6,9c6.4,8.3,13.3,16.2,20,24.3c1.5,1.8,4.8,1.7,6.4,0
		c2-2.1,5-4.5,6.2-7.4C581.6,925.2,582.4,923.1,580.9,921.1z"/>
	<path class="st3" d="M825,859.6c-6.1-2.3-10.3-6.8-12.9-12.7c-0.8-1.8-3.3-2.5-5.1-2.1c-26.1,6.4-49.8,20.5-68,40.4
		c-1.1,1.2-1.3,2.9-1,4.3c-4.1,3-7.9,6.3-11.6,10.1c-4,4.2,2.4,10.6,6.4,6.4c23.9-25.2,60.1-29.5,92.1-37.7
		C829.6,867.1,828.9,861.1,825,859.6z"/>
	<path class="st4" d="M572.7,689.7c5,1.8,9.9,3.8,14.7,6"/>
	<path class="st4" d="M455,682c28.6-7.3,60.6-7.3,89.6-0.4"/>
	<path class="st4" d="M439.7,712c30.9-8.2,62.9-6.2,93.7,0.5"/>
	<g>
		<g>
			<path class="st2" d="M698.8,320c12.2,15.5,25.2,30.6,40,43.8c12.4,11.1,26.2,20.8,41.1,28.1c8.4,4.1,17.1,7.5,26,10.4
				c3.1,1,4.4-3.9,1.3-4.8c-15.3-4.9-30-11.6-43.4-20.5c-14.5-9.5-27.3-21.3-39.1-34c-7.9-8.5-15.3-17.4-22.5-26.5
				c-0.8-1.1-2.7-0.9-3.5,0C697.8,317.5,698,318.9,698.8,320L698.8,320z"/>
		</g>
	</g>
	<path class="st4" d="M797.8,304.2c-29.8,18.6-75.6,23.7-108.1,4.7"/>
	<path class="st5" d="M135.4,223.7c0,0,22.8,10.7,54.4,10.7s56-10,56-10"/>
	<path class="st5" d="M112.2,288c23.2,3.7,23.2-25.9,41.9-25.9c14.6,0,14.8,12.5,26.2,25.9s28.3,11.8,35.9,3.2s14.8-21.5,24.3-26.5
		c9.1-4.9,16.7-3.6,26.7,12.3"/>
	<path class="st5" d="M166.7,477.4c-9.4-7.2-22.1-13-38.5-13c-17.9,0-30.9,7.4-40.1,16"/>
	<path class="st5" d="M88,480.4c-13.1,12.4-18.3,27.4-18.3,27.4s22,19,62,19s57.2-22.1,57.2-22.1s-6.7-15.6-22.2-27.4"/>
	<g>
		<path class="st2" d="M124.9,326.5c44,0,79.8,35.8,79.8,79.8s-35.8,79.8-79.8,79.8s-79.8-35.8-79.8-79.8
			C45.1,362.3,80.9,326.5,124.9,326.5 M124.9,321.5c-46.8,0-84.8,38-84.8,84.8s38,84.8,84.8,84.8s84.8-38,84.8-84.8
			S171.8,321.5,124.9,321.5L124.9,321.5z"/>
	</g>
	<g>
		<path class="st2" d="M148,447.9c-1.4,0.1-2.6-0.7-3.1-2.1c-3.6-10.4-12.6-28.7-32.6-34.5c-1-0.3-1.8-1.1-2-2.2
			c-0.2-1,0.2-2.1,1-2.8c5.4-4.4,23.2-21.1,27.1-48.3c0.4-2.5,1.3-3.9,2.7-4c2-0.1,3,2.4,3.3,3.3c6.4,16.9,20.1,39.1,37.2,46.1
			c0.6,0.2,0.9,0.8,0.9,1.4c0,0.6-0.4,1.2-1,1.4c-0.2,0.1-24.4,8.9-30.7,39C150.6,446.8,149.5,447.8,148,447.9z"/>
		<path class="st2" d="M141.2,355.7c0.6,0,1.2,0.7,1.8,2.3c5.9,15.6,19.7,39.5,38.1,47c0,0-25.2,8.8-31.6,40.2
			c-0.2,0.8-0.8,1.2-1.5,1.3c-0.6,0-1.3-0.3-1.6-1.1c-3.3-9.6-12.2-29.2-33.7-35.4c-1.1-0.3-1.4-1.7-0.5-2.4
			c6.2-5.1,23.7-21.8,27.7-49.2C140.1,356.6,140.6,355.7,141.2,355.7 M141,352.7L141,352.7c-1.5,0.1-3.5,1.1-4.1,5.2
			c-3.8,26.7-21.3,42.9-26.6,47.3c-1.3,1-1.8,2.7-1.5,4.2c0.3,1.6,1.5,2.9,3.1,3.3c18.4,5.3,27.4,21.2,31.6,33.5
			c0.7,2,2.5,3.2,4.6,3.1c2.1-0.1,3.8-1.6,4.2-3.7c2.5-12.3,8.3-22.4,17.1-30c6.6-5.7,12.6-7.9,12.6-7.9c1.2-0.4,2-1.5,2-2.8
			c0-1.2-0.7-2.4-1.9-2.9c-16.7-6.9-30.1-28.7-36.4-45.3C144.7,354,143.1,352.5,141,352.7L141,352.7z"/>
	</g>
	<path class="st6" d="M89.8,353.3c-0.7,8.9-5.3,16.4-16.7,21.5c9.9,4.9,14.7,12.4,16.7,21.5c2.9-11.7,8.8-18.7,17.4-21.5
		C97.3,370.9,91.4,363.8,89.8,353.3z"/>
	<path class="st7" d="M190.3,204.2"/>
	<g>
		<path class="st2" d="M507.2,31.3c4.2,0,8.4,2.6,9.4,7.7l43.7,256.8l-134.6-9l72.5-248.9C499.6,33.4,503.4,31.3,507.2,31.3
			 M507.2,26.3L507.2,26.3c-6.4,0-11.8,4-13.8,10.1l0,0.1l0,0.1l-72.5,248.9l-1.7,6l6.2,0.4l134.6,9l6.3,0.4l-1.1-6.2L521.5,38.1
			l0-0.1l0-0.1C520.1,31.1,514.2,26.3,507.2,26.3L507.2,26.3z"/>
	</g>
	<path class="st5" d="M431.3,253.4c-66.8,4.2-117.5,22-119.1,46.2c-2,31.7,76.5,62.4,175.2,68.6s180.5-14.4,182.5-46
		c1.5-24-47.5-47.5-112.6-60.2"/>
	<path class="st5" d="M494.5,288"/>
	<path class="st5" d="M409.1,357.3c0,0,4.8,70.1,25.8,114.5c20.9,44.4,37.8,51.1,51.1,51.1c13.3,0,62.5-29.7,68.9-92.4"/>
	<path class="st2" d="M465.1,493c-0.7-1.3,1.4-4.1,2.5-5c0,0,4.1-3,9.5-4.5c5.9-1.6,14.5-1.9,23.4-6c2.9-1.3,8.5-5.8,6.5-1.7
		c-1.9,6-6.8,16-16.7,20.7C480.4,501.3,466.9,496.4,465.1,493z"/>
	<path class="st5" d="M387.6,351.9c-5.2,6.1-14.6,19.5-13.5,26.6c1.5,10.4,27.6,57.1,24.5,67.1c-3.1,10-75.8,88.4-129.4,121
		c-26.7,25.3,0,50.5,0,50.5"/>
	<path class="st5" d="M342.7,582.7c0,0,77.9-90.6,89.9-114.6"/>
	<path class="st5" d="M387.6,411.2c0,0-19.3,1.4-33.3,16.8s-53.8,78.1-72.2,95c-18.4,16.8-62.8,53.6-60.5,81.2s20.9,38.3,20.9,38.3"
		/>
	<path class="st5" d="M379.4,468.4c0,0-12.9-23.8-20.6-44.8"/>
	<path class="st5" d="M403.4,509.1c0,0,31.3,50.1,104.1,46s109.6-81,109.6-81"/>
	<path class="st5" d="M387.6,528.9c0,0,43.7,66.1,87.6,78.4s60.4-21.3,60.4-21.3"/>
	<path class="st4" d="M527.3,577.6c13.5,13.3,29.5,25.4,47.8,31.2"/>
	<path class="st4" d="M742.9,599.2c-34.5-20.8-91.1-72.4-91.1-72.4"/>
	<path class="st4" d="M432.5,670.8l-94.5,133.3c-67.4-106.5-168.5-96.5-168.5-96.5c15.3-16.8,148.6-130,148.6-130
		S406,581.9,432.5,670.8c0,0,54.6-34.5,120.3-13"/>
	<path class="st4" d="M338.1,804.1c0,0,29.9-29.9,78.1-30.6s182.8-2.3,200.9-95"/>
	<g>
		<path class="st2" d="M706.3,469.7c12.2-25.9,22.5-48.8,17.7-80.7c-4.5-30.1-16.6-57.7-34.4-80.1l5.1,4.8
			c23.6,22.2,43,54.4,49.7,86.1s4.3,66.1-8.2,96.1"/>
		<g>
			<path class="st2" d="M708.5,471c4.7-10,9.4-20,13-30.5c3.6-10.5,5.8-21.3,6.2-32.4c0.4-12-1.5-24-4.3-35.6
				c-2.8-11.3-6.7-22.3-11.7-32.8c-5.5-11.6-12.3-22.5-20.2-32.5c-1.2,1.2-2.4,2.4-3.5,3.5c7.2,6.9,14.2,13.8,20.5,21.6
				c8.6,10.6,16,22.4,21.9,34.7c5.9,12.2,10.2,25,12.6,38.4c2.6,14.2,3.3,28.8,2.1,43.3c-1.3,16-5,31.9-11.2,46.7
				c-0.5,1.2,0.6,2.8,1.8,3.1c1.4,0.4,2.5-0.5,3.1-1.8c11.3-27.3,14.3-57.8,10-86.9c-4.1-27.9-16.2-54.1-33.2-76.4
				c-4.7-6.1-9.7-12-15.2-17.5c-2.9-2.9-5.9-5.7-8.9-8.5c-1-0.9-2.6-1-3.5,0c-1,1-0.8,2.5,0,3.5c13.7,17.4,23.7,37.6,29.5,59
				c3,11.2,5.2,22.8,5.3,34.5c0,10.7-1.7,21.2-4.9,31.3c-3.5,11.4-8.6,22.2-13.7,33c-0.6,1.2-0.3,2.7,0.9,3.4
				C706.2,472.5,707.9,472.2,708.5,471L708.5,471z"/>
		</g>
	</g>
	<g>
		<g>
			<path class="st2" d="M776.1,539c28.5,1,56.8-4.4,83.5-14.1c7.6-2.8,15.1-5.9,22.5-9.2c1.2-0.6-1.3-4.9-2.5-4.3
				c-25.2,11.5-52.2,19.8-79.9,22.1c-7.8,0.7-15.7,0.9-23.5,0.6C772.9,533.9,772.9,538.9,776.1,539L776.1,539z"/>
		</g>
	</g>
	<path class="st4" d="M979.3,369.3c0,0,91.2,23.9,97.9,70.9c3.9,27.7-15.8,74.6-97.5,83.6c-69.4,7.6-164.3-1.3-257-174.9"/>
	<g>
		<path class="st2" d="M510.9,322.9c-6.4,0-13-0.2-19.6-0.7c-45.7-3.2-70.2-18.3-71.3-18.9l-1.6-1l8.1-28.3l2.7,1.4
			c0.2,0.1,20.1,10.2,64.5,13.4c7.8,0.5,15.3,0.8,22.3,0.8c28.6,0,41.5-4.5,41.7-4.6l2.8-1l0.5,2.9l5,28.7l-2,0.7
			C563.4,316.6,544.5,322.9,510.9,322.9L510.9,322.9z"/>
		<g>
			<path class="st2" d="M428.2,277.7c0,0,19.9,10.4,65.5,13.6c8.4,0.6,15.8,0.8,22.5,0.8c29.6,0,42.5-4.7,42.5-4.7l4.7,26.6
				c0,0-18.9,6.4-52.4,6.4c-6,0-12.5-0.2-19.4-0.7c-45.6-3.2-70.1-18.5-70.1-18.5L428.2,277.7 M425.1,270.5l-1.7,5.9l-6.8,23.5
				l-1,3.6l3.2,2c1,0.6,26.1,16,72.4,19.3c6.6,0.5,13.3,0.7,19.7,0.7c34,0,53.2-6.4,54-6.7l4-1.4l-0.7-4.2l-4.7-26.6l-1-5.9l-5.6,2
				c-0.1,0-12.8,4.4-40.8,4.4c-7,0-14.4-0.3-22.1-0.8c-43.7-3.1-63.3-13-63.5-13.1L425.1,270.5L425.1,270.5z"/>
		</g>
	</g>
	<g>
		<g>
			<path class="st2" d="M557.7,636.7c-4.8,16.4-10,32.6-15.6,48.7c-5.6,16-11.7,31.9-18.2,47.6c-3.7,8.9-7.5,17.7-11.4,26.4
				c-0.5,1.2-0.3,2.7,0.9,3.4c1.1,0.6,2.9,0.3,3.4-0.9c7-15.7,13.7-31.5,19.9-47.6c6.2-16,11.9-32.1,17.2-48.4
				c3-9.2,5.9-18.5,8.6-27.9C563.4,634.9,558.6,633.6,557.7,636.7L557.7,636.7z"/>
		</g>
	</g>
	<g>
		<g>
			<path class="st2" d="M517.5,764.6c11.8-10.9,22.5-23,32.1-35.8c9.6-12.9,18-26.7,25-41.1c4-8.2,7.5-16.5,10.7-25.1
				c0.5-1.3-0.5-2.7-1.8-3.1c-1.4-0.4-2.6,0.5-3.1,1.8c-5.4,14.8-12.2,29-20.2,42.5s-17.2,26.3-27.6,38.1
				c-5.9,6.7-12.1,13.1-18.7,19.2C511.6,763.2,515.1,766.8,517.5,764.6L517.5,764.6z"/>
		</g>
	</g>
	<g>
		<g>
			<path class="st2" d="M576.2,653.1c1.9,3.9,4.6,7.6,7.4,10.8c5.6,6.5,12.9,11.9,21.3,13.9c11,2.5,23.4-1.1,31.7-8.5
				c7.7-7,11.1-17.2,12-27.3c0.8-7.9,0.1-15.9-1.1-23.7c-0.1-0.5-0.2-1.1-0.2-1.6c-1.2,0.9-2.5,1.9-3.7,2.8
				c11.8,7.6,24.2,14.3,37,20.3c14.2,6.7,28.8,12.5,43.8,17.4c15,4.9,30.4,8.9,46,11.3c14.4,2.3,29.2,3.4,43.7,2.2
				c3.4-0.3,6.8-0.7,10.2-1.3c3.3-0.5,6.7-1.1,9.8-2.2c7.4-2.6,13.1-8.5,16.1-15.7c6.5-15.7-2-33.2-11-46
				c-8.9-12.7-19.6-24.2-30-35.7c-5.9-6.6-11.8-13.2-17.8-19.6c-6.8-7.2-13.7-14.3-20.7-21.3c-13.8-14-27.7-27.8-41.9-41.4
				c-14.2-13.6-28.7-27.1-43.4-40.3c-3.5-3.2-7.1-6.4-10.7-9.6c-2.4-2.1-6,1.4-3.5,3.5c14.4,12.8,28.7,25.8,42.7,39.1
				c14,13.2,27.9,26.7,41.5,40.3c13.7,13.7,27.3,27.4,40.3,41.7c5.2,5.6,10.2,11.4,15.3,17c5.2,5.8,10.3,11.6,15.2,17.6
				c9.2,11.3,19.3,24.4,20.8,39.5c0.8,7.9-1.3,15.8-7.2,21.4c-2.5,2.4-5.6,4.2-9,5.1c-3.1,0.8-6.2,1.4-9.3,1.9
				c-13.6,2.1-27.7,1.7-41.4,0.1c-15.1-1.8-30-5.1-44.6-9.4c-14.9-4.4-29.5-9.7-43.7-16c-13-5.7-25.8-12.2-38.1-19.5
				c-2.7-1.6-5.3-3.2-7.9-4.9c-2-1.3-4,0.8-3.7,2.8c0.2,1.2,0.4,2.3,0.5,3.5c0,0.2,0.2,1.3,0.1,0.6c0,0.4,0.1,0.8,0.2,1.2
				c0.1,0.8,0.2,1.7,0.3,2.5c0.4,4,0.6,8.1,0.4,12.2c-0.3,8.8-2.3,18.2-8.2,25.1c-6.5,7.6-17.5,11.8-27.4,10.4
				c-7.7-1-14.4-5.6-19.8-11.3c-0.7-0.8-1.4-1.5-2-2.3c-0.3-0.3-0.5-0.6-0.8-1c-0.1-0.2-0.2-0.3-0.4-0.5c0.4,0.5-0.1-0.2-0.2-0.3
				c-0.9-1.2-1.8-2.5-2.6-3.8c-0.8-1.2-1.5-2.4-2.1-3.7c-0.6-1.2-2.3-1.5-3.4-0.9C575.8,650.4,575.6,651.8,576.2,653.1L576.2,653.1z
				"/>
		</g>
	</g>
	<g>
		<g>
			<path class="st2" d="M562.9,637c9.7-16,21.2-30.8,34.2-44.1c3.7-3.8,7.5-7.4,11.4-10.9c-0.6,0.2-1.2,0.5-1.8,0.7
				c2.2,0.2,4.5,0.5,6.7,0.7c6,0.6,12,1.3,18,2c8.7,1,17.5,2.1,26.2,3.2c5.2,0.7,9.5,1.2,14.6,2c5.3,0.7,10.5,1.5,15.8,2.3
				c10.9,1.6,21.8,3.4,32.7,5.3c10.4,1.8,20.8,3.8,31,6.1c8.8,2,17.7,4.1,26.3,6.9c3.5,1.1,6.9,2.3,10.3,3.7
				c0.2,0.1,0.4,0.2,0.6,0.2c0.1,0,0.7,0.3,0.3,0.1c-0.4-0.2,0.2,0.1,0.3,0.1c0.2,0.1,0.4,0.2,0.6,0.2c0.7,0.3,1.4,0.6,2.1,1
				c1.2,0.6,2.5,1.2,3.6,1.9c4.3,2.5,8.2,6.1,11.1,10.2c1.8,2.5,3.1,5.1,4,8c0.8,2.7,1.1,4.9,0.9,7.8c-0.1,1.5-0.2,2-0.5,3.5
				c-0.3,1.2-0.7,2.5-1.1,3.7c-0.3,0.8-0.9,2-1.5,3c-0.3,0.5-0.7,1.1-1,1.6c-0.2,0.2-0.3,0.5-0.5,0.7c-0.1,0.1-0.2,0.3-0.3,0.4
				c0.2-0.2,0,0-0.1,0.1c-0.8,1-1.7,1.9-2.6,2.8c-0.4,0.4-0.8,0.8-1.3,1.1c-0.4,0.3,0,0-0.4,0.3c-0.3,0.2-0.6,0.4-0.9,0.6
				c-1,0.7-2,1.3-3.1,1.8c-0.2,0.1-0.5,0.2-0.8,0.3c0.4-0.2-0.4,0.2-0.5,0.2c-0.5,0.2-1.1,0.4-1.7,0.5s-1.1,0.3-1.7,0.4
				c-0.1,0-0.8,0.1-0.6,0.1c0.2,0-0.4,0-0.6,0.1c-1.2,0.1-2.3,0.1-3.5,0c-1.3-0.1-2.5,1.2-2.5,2.5c0,1.5,1.2,2.4,2.5,2.5
				c12.3,1.2,23.3-8.7,26.5-20c4.1-14.2-4.5-28.1-16.2-35.7c-6.4-4.2-14-6.6-21.3-8.9c-10.3-3.2-20.8-5.6-31.3-7.8
				c-12.2-2.6-24.4-4.8-36.6-6.8c-12.4-2-24.9-3.9-37.3-5.6c-11.1-1.5-22.2-3-33.4-4.3c-7.8-1-15.7-1.8-23.6-2.7
				c-2.3-0.2-4.5-0.5-6.8-0.7c-0.8-0.1-1.7-0.3-2.6-0.3c-0.9,0-1.5,0.5-2.1,1c-1,0.9-2,1.8-2.9,2.7c-1.9,1.7-3.7,3.5-5.5,5.3
				c-3.6,3.6-7.2,7.3-10.6,11.1c-6.8,7.6-13.1,15.7-19,24.1c-2.8,4.1-5.5,8.3-8.1,12.5C557,637.2,561.3,639.7,562.9,637L562.9,637z"
				/>
		</g>
	</g>
	<g>
		<path class="st2" d="M543.1,368.6c-0.1,9.1,0.2,23.6,1.8,32.2c0.3,1.9,1.8,1.7,2.5-0.2c1.6-4.1,3.9-7.4,7.4-10.5
			c5.6-5,12.6-6.1,18.3-1.2c2.1,1.8,3.5,4.3,4.6,6.8c2.5,5.9,3.3,12.9,2.4,19.2c-1,6.7-4.2,12.8-9.6,16.9
			c-4.4,3.4-10.2,1.7-13.9-1.3c-1.4-1.2-4.8-1.2-4.1,0.5c1.7,4.4,6.3,9.9,8.8,13.5c10.8,16.5,28.8,28,48.2,31c6.3,1,23,2.4,36.6-1.4
			s29-12.9,34.8-26.6c0.3-0.7,5.3,0.3,2.7-2.1c-5.5-4.9-11-10.7-15.6-15.3c-14.6-14.5-43.5-19.5-59-18.1l-15.2-47
			C579.3,366.4,543.1,368.6,543.1,368.6z"/>
	</g>
	<path class="st8" d="M889.8,183.4h-10.2c-16.7,38.1,10.2,95.5,10.2,95.5c84.4,59.4,114,129,114,129c-31.9-70-49.1-90.8-47.6-145.9
		s46.1-85.3,62-98.7c5.4-4.6,11.8-12.6,7.5-15c-32-8.2-89.9,31.3-123.8,70.3l-0.1-3.9c-0.2-10.9,1.2-21.7,5.4-31.4L889.8,183.4
		L889.8,183.4z"/>
	<g>
		<g>
			<path class="st2" d="M452.4,475.4c10.7-0.3,21.1-3.4,30.1-9.2c2.7-1.7,0.2-6-2.5-4.3c-8.3,5.3-17.8,8.2-27.6,8.5
				C449.2,470.4,449.2,475.4,452.4,475.4L452.4,475.4z"/>
		</g>
	</g>
	<g>
		<g>
			<path class="st2" d="M454.2,474.1c3.6-8.4,6.6-17.1,8.3-26.1c1.6-8.5,2.2-17.2,1.5-25.9c-0.3-4.1-0.9-8.2-2-12.1
				c-1.1-3.9-2.9-7.5-4.8-11.1c-3.4-6.3-8.3-11.8-14.4-15.5c-5.1-3.1-11.1-5-17.1-5c-3.2,0-3.2,5,0,5c1,0,2.1,0.1,3.1,0.2
				c0.5,0-0.2,0,0.3,0c0.3,0,0.6,0.1,0.9,0.1c0.6,0.1,1.2,0.2,1.9,0.4c2.5,0.6,4.6,1.4,6.8,2.6c5.5,2.9,10,7.4,13.2,12.7
				c1.9,3.1,3.6,6.3,4.8,9.7c1.2,3.5,1.9,7.1,2.3,10.8c0.8,7.9,0.6,16.1-0.7,23.9c-1.5,9.5-4.5,18.8-8.3,27.7
				c-0.5,1.2-0.4,2.7,0.9,3.4C451.8,475.6,453.6,475.4,454.2,474.1L454.2,474.1z"/>
		</g>
	</g>
	<path class="st2" d="M483.4,465.1c0,0-1,5.5-10.5,10.1c0,0-19.4,2-22.4-0.3L483.4,465.1z"/>
	<path class="st2" d="M457.9,400.3c-6.4-11.7-17.8-22.7-29.7-24.7c-11.9-2-11,3.8-6.7,6.8s12.8,1.5,18.7,5.4"/>
	<path class="st2" d="M513.3,415.6c0,9-3.7,16.5-7.6,16.5s-6.5-8.8-6.5-16.5c0-6.2,3.1-11.3,7-11.3
		C510.1,404.3,513.3,409.4,513.3,415.6z"/>
	<path class="st2" d="M446.3,410.6c1.2,8.9-1.4,16.9-5.2,17.4c-3.8,0.5-7.6-7.8-8.7-15.5c-0.8-6.2,1.6-11.6,5.4-12.1
		C441.7,399.8,445.5,404.4,446.3,410.6z"/>
	<path class="st9" d="M916.9,228.5c-6.1,7.7-9.2,15.6-6.6,25.3c2.6,9.7,17.6,17.6,17.6,30.4c0,12.8-7.5,16.1-9.3,17"/>
	<path class="st4" d="M587.3,268.9c0,0,38-56.5,127.8-55.2s221.6,66.7,293.1,202.5"/>
	<path class="st2" d="M880.5,516.3c49.1,17.6,106.6,31.4,157.8,19.3c51.2-12.1,65.4-49.7,65.4-67.1c0-17.4-0.5-69.1-115.4-99.1
		l1.8,3l31.8,12.6l27.4,16l17.7,16.5l10.3,22.5l-3.2,26.7l-19.4,30l-37.1,18.8l-54.3,9.9l-55.5-4.8L880.5,516.3z"/>
	<path class="st4" d="M238.8,680.7c0,0,60.6,5.7,97.4,60.6"/>
	<path class="st4" d="M269.6,656.7c10.2,2,20.3,5.3,29.8,9.5c14.4,6.3,27.8,14.9,39.4,25.5c7.9,7.3,14.9,15.5,20.9,24.4"/>
	<path class="st4" d="M291.6,633.5c36,7.3,69,28.3,89.3,59.2"/>
	<path class="st4" d="M318.5,609.5c33.1,8.3,62.1,29.3,81.9,57.5"/>
	<path class="st4" d="M416.8,743.8c31.8-8,64.8-10,97.2-2.5"/>
	<path class="st2" d="M432.3,770.9c26.4-4.6,82-30.1,94.5-42.4l-6.3,18.9l-6.5,17.9l-76,7.7L432.3,770.9z"/>
	<path class="st2" d="M561.9,708.3c0,0,7.3,5.1,21.6,4.2c14.3-0.9,24.5-11.3,28.2-22.7l0.6,5.3l-8.5,16.4l-26,26.3l-29.3,16.8
		l-23.7,7.7l-6-2.2l14.6-13.3l15.8-20.7l6.8-10.4L561.9,708.3z"/>
	<path class="st4" d="M612.9,693.6c0,0,11.2,2.9,17,7.5l-27.2,73"/>
	<line class="st4" x1="612.9" y1="693.6" x2="588.4" y2="756.4"/>
	<path class="st4" d="M213.3,711.7l-34.1,26.8c0,0,89.2-11.9,156.3,66.4"/>
	<line class="st4" x1="253.4" y1="791.7" x2="463.1" y2="828.1"/>
	<path class="st4" d="M445.4,800.2c0,0-80.1-24.7-108.3,6"/>
	<path class="st4" d="M550.8,880.8l31.5,38.2c0,0,69-59.2,139.8-7.7c0,0,26-58.3,104.9-70.5l-92.3-100.5c0,0-57.9-12.2-101.4,45.7
		c0,0-65.4-38.5-147.1,16.7l48.8,59.2"/>
	<line class="st4" x1="633.4" y1="785.9" x2="722.2" y2="907.4"/>
	<path class="st4" d="M810.6,845.9l19.6,19.9c0,0-76.3,10.2-106.2,46.6"/>
	<path class="st4" d="M532.9,891.8l37.5,43.9c0,0,10.3-18.7,29.1-28.3"/>
	<path class="st4" d="M505.5,825.9c0,0-11.4,3.2-19.2,11.4l30.2,35.3"/>

		<ellipse transform="matrix(0.9812 -0.1929 0.1929 0.9812 -162.2482 41.922)" class="st2" cx="134.2" cy="854.2" rx="17.6" ry="21"/>
	<ellipse transform="matrix(0.9541 -0.2994 0.2994 0.9541 -238.113 108.08)" class="st2" cx="233.6" cy="831.1" rx="14" ry="21"/>
	<path class="st2" d="M243,913.8c1.1-0.8,2.7-0.5,3.5,0.7c0.8,1.3,3.6,17.3,4.9,30.6c14.3-4.5,19.3-9.5,19.3-9.5
		c-1.3-28.5-5.6-53.8-11-74.3c-3.8,1.3-7.8,2.1-12.1,2.1c-20,0-36.2-16.2-36.2-36.2c0-12.2,6.1-23,15.3-29.6
		c-20.8-21.1-50.6-34.8-84.5-34.8c-62.4,0-112.9,45.3-112.9,101.3c0,0.7,0,1.4,0,2.1c0,0.4,0,0.8,0,1.2c0,39.8,30.6,74.8,67.2,74.8
		c23.2,0,43.6-12.9,55.5-32.5l39.2,42.2c10.6,0.2,20-0.2,28.1-0.9c-2.8-12.4-8.1-28.2-8.1-28.4c-0.4-1.3,0.3-2.7,1.6-3.2
		c1.3-0.4,2.7,0.3,3.2,1.6c0.3,0.8,5.6,16.8,8.4,29.5c8.8-1,16.1-2.4,22.1-4c-1.1-12.6-4-28-4.5-29.8
		C241.6,915.6,242,914.4,243,913.8z M145.5,888.5c-20,0-36.2-16.2-36.2-36.2s16.2-36.2,36.2-36.2s36.2,16.2,36.2,36.2
		S165.5,888.5,145.5,888.5z M232.3,891.8L220,878.4l-0.7,16.4c0,0-7.6,2-9.5-4.9c-2.2-8.8,3.4-25,3.4-25c5.8,1.7,15.6,7.3,19.7,13.4
		C236.9,884.5,232.3,891.8,232.3,891.8z"/>
	<polygon class="st2" points="570.8,940 724.3,915 698,898 675.8,892.1 652,890.7 628.6,894.9 603.5,905.2 588.3,914.4 575,928.7
		"/>
	<path class="st4" d="M426,955.2l191.1-115.9c0,0,0.9-8-3.3-13.4c-4.3-5.5-11.2-6.7-11.2-6.7L415,940L426,955.2z"/>
	<path class="st2" d="M419.4,916.8l3.5,26.3c0.2,1.8,1.3,3.3,2.8,4.2l24.5,13.7c4.3,2.4,3.7,8.7-1,10.3l-23.7,7.8
		c-1.9,0.6-3.4,2.3-3.8,4.3l-4.5,23.5c-0.9,4.5-6.5,6.1-9.6,2.8l-20-21.1c-1.1-1.2-2.7-1.8-4.3-1.8l-29.1,1.3
		c-4.6,0.2-7.5-4.9-4.9-8.7l13.1-20c1.1-1.7,1.2-3.9,0.3-5.7l-11.6-22.1c-2.3-4.3,1.7-9.3,6.4-8.1l27.1,7.2c1.7,0.5,3.5,0.1,4.9-1
		l20.8-16.4C413.7,910.4,418.8,912.5,419.4,916.8z"/>
	<path class="st10" d="M1020.6,149.4c-4.7,1-10.8,2.7-15.1-0.3c-1.6-1.1-2.3-2.6-2.4-4.1c-0.4,0.4-0.7,0.9-1,1.4
		c-0.2,0.6-0.5,1.2-0.7,1.8c0.4,0.2,0.7,0.5,1,0.8c0.3,0.3,0.6,0.7,0.8,1.1c0.2,0.4,0.4,0.8,0.5,1.2c0,0,0,0,0,0
		c0,0,0.2,1.3,0.2,1.3c0,0.4-0.1,0.9-0.2,1.3c-0.2,0.8-0.7,1.7-1.3,2.2c0,0-0.2,0.2-0.5,0.4c-0.1,0.9-0.3,1.8-0.6,2.6
		c-0.9,2.7-3.4,4.1-6.2,3.5c-0.8-0.2-1.5-0.6-2.1-1.2c0,0.2,0,0.4,0,0.6c-0.7,0.5-1.4,1.1-2,1.6c0.1,0.1,0.2,0.3,0.3,0.4
		c-0.4,0-0.9-0.1-1.4-0.1c-6.3,0-9.8,4.4-10.5,9.2c-0.4,0.3-0.8,0.7-1.1,1c-0.2,0-0.3,0-0.5,0c-1,0.1-1.9,0.3-2.9,0.4
		c-1.9,0.5-3.5,1.5-4.9,2.8c-0.6,0.7-1.1,1.5-1.7,2.2c-0.7,1.2-1.1,2.4-1.3,3.7c-1.8,1.4-3.7,2.8-5.5,4.2c-4.3,3.4-8.7,6.9-13,10.6
		c0.2,0.5,0.3,1,0.3,1.5c0,0.1,0,0.2,0,0.2c0.1,0.3,0.1,0.6,0.2,0.9c0-0.4-0.1-0.7-0.1-1.1c0.2,0.6,0.3,1.2,0.3,1.9
		c0.1,1.1-0.4,2.2-1.1,3c-0.5,0.7-1.2,1.2-2,1.5c-0.4,0.2-0.7,0.2-1.1,0.3c-1,0.3-2,0.3-3,0.1c-0.7-0.2-1.3-0.5-1.8-0.9
		c-1.3,1.2-2.6,2.5-3.8,3.7c0.2,0.3,0.5,0.6,0.7,0.9l0.5,1.2c0.1,0.4,0.1,0.9,0.2,1.3v1c0,1.4-0.6,2.6-1.5,3.5
		c-0.9,1-2.2,1.4-3.5,1.5c-0.7,0-1.3-0.1-1.9-0.4c-0.5-0.2-0.9-0.4-1.3-0.8c-0.1-0.1-0.2-0.1-0.3-0.2c-0.1-0.1-0.2-0.1-0.3-0.2
		c-2.8,3.2-5.4,6.4-7.8,9.8c-1.8,0.3-3.5,1-5,2.2c0.1,0.9-0.1,1.8-0.5,2.7c-3.3,7.1-3.5,14.7-0.9,22c0.8,2.3,0,4.1-1.5,5.1
		c0.6,1.7,1.4,3.3,2.3,5c0.8,1.6,2.1,2.8,3.6,3.7c2.3,3.3,5.1,6.2,8.3,8.8c-0.3,1.6-0.3,3.3,0,5l0.8,4.2c0.1,1.8,0.3,3.6,0.6,5.3
		c-0.1,1-0.4,1.8-1,2.2c-0.3,0.2-0.6,0.4-0.8,0.7c0.2,0.5,0.3,1,0.4,1.5c0.8,6.5-1,13-0.2,19.6c0.1,0.5,0,0.9-0.1,1.3
		c1.9-1.9,5.1-1.7,7,0.1c1.2,1.2,2.2,2.6,2.6,4.2c0.6,2.5-0.6,4.8-2.8,5.9c0.2,0.1,0.4,0.3,0.6,0.5c0.9,0.6,1.9,1,3,1.2l0.9,1.2
		c0.3-0.2,0.7-0.5,1.1-0.6c0.6-0.3,1.2-0.5,1.9-0.4c0.6-0.1,1.3,0.1,1.9,0.2c0.2,0,0.3,0.1,0.4,0.1c0.9,0,1.8,0.3,2.6,0.7
		c1.2,0.7,1.9,1.7,2.3,3c0.2,0.5,0.2,1,0.2,1.5c0,1.3-0.5,2.7-1.5,3.6c-0.6,0.6-1.3,1-2.1,1.2c0.8,1,1.5,2,2.3,3.1
		c0.1-0.1,0.2-0.2,0.3-0.4c0.1-0.2,0.2-0.3,0.3-0.5c0.8-1.5,2.6-2.5,4.3-2.5c1.7,0,3.6,0.9,4.3,2.5c0.2,0.4,0.4,0.9,0.6,1.3
		c0.2,0.3,0.3,0.7,0.4,1.1c0,0.1,0,0.2,0.1,0.4c0.1,0.3,0.1,0.6,0.1,0.9c0,0,0,0,0,0c0,0.4,0,0.8-0.1,1.1c-0.1,0.6-0.3,1.1-0.6,1.6
		c-0.5,0.7-1.1,1.3-1.8,1.8c-0.1,0-0.1,0.1-0.2,0.1c0.4,0.7,0.8,1.4,1.2,2c1.7-1.2,4.6-1.3,6.1,0.4c0,0,0.1-0.1,0.1-0.1
		c1-1.6,2.7-2.7,4.6-2.2c0.8-1.4,1.8-2.6,2.8-3.8c0.7-0.8,1.6-1.2,2.5-1.4c-0.3-2-0.4-3.8,0.3-5.8c0.2-0.6,0.5-1.2,1-1.6
		c-0.2-0.3-0.5-0.7-0.6-1.1c-0.9-2.1-0.8-4-0.5-6.2c0.2-1.2,0.7-2,1.4-2.6c-0.6-1.9-1.2-3.8-1.7-5.7c-0.2,1.2-0.7,2.3-1.3,3.3
		c-0.9,1.4-2.3,2.2-3.8,2.4c0.7-1.2,0.9-2.7,0.2-4.1c-0.2-0.7-0.5-1.3-0.7-2c-0.3-0.9-0.7-1.6-1.4-2.2c0,0,0,0,0,0
		c-0.2-0.5-0.5-1-0.8-1.4c0,0,0,0,0,0c0-0.1-0.1-0.2-0.1-0.3c0.3-0.5,0.4-1.1,0.3-1.7c-0.1-0.8-0.2-1.6-0.4-2.4
		c-0.2-0.5-0.4-1-0.6-1.5c-0.1-0.8-0.4-1.5-0.7-2.2c-0.1-0.4-0.3-0.7-0.5-1c0,0,0,0,0,0c0-0.1-0.1-0.1-0.1-0.2
		c-0.1-0.1-0.1-0.2-0.2-0.2c-0.5-0.7-1.1-1.1-1.8-1.4c-0.8-4.6-1-9.2,0.7-13.5c-0.8-7-1.7-13.8-0.3-20.8c0-0.2,0.1-0.4,0.2-0.6
		c-0.7-7.7-2.4-15.4-0.9-23.2c0.1-0.7,0.5-1.4,0.9-1.9c0.4-0.9,0.8-1.7,1.3-2.5c0.2-0.3,0.4-0.5,0.6-0.7c0.4-0.9,0.8-1.7,1.5-2.4
		c-0.6-0.5-1.1-1.2-1.4-1.9c-0.3-0.3-0.5-0.5-0.7-0.9c0-0.1,0.1-0.2,0.1-0.3l0.2-0.6c0-0.4,0-0.9,0.2-1.3c0.1-0.3,0.2-0.5,0.3-0.7
		c0.2-0.9,0.6-1.7,1-2.5c0.2-0.5,0.3-0.9,0.5-1.4c0-0.1,0.1-0.2,0.1-0.4c0-0.5,0-1.1-0.1-1.6c0.7-0.5,1.4-0.8,2.3-1
		c0.9-0.5,2-0.8,3.2-0.6c0.4,0.1,0.9,0.2,1.3,0.4c0.2-1.7,0.5-3.3,1-4.9c-0.5-0.6-0.9-1.3-1.2-2.2c-0.5-1.9-0.6-3.7-0.4-5.6
		c0.9-0.3,1.7-0.9,2.1-1.7c0.1-0.1,0.1-0.1,0.2-0.2c0.6-0.8,1.2-1.7,1.7-2.5c0.3-0.4,0.4-0.9,0.5-1.4c0.1-0.3,0.3-0.6,0.3-0.9
		c2-1,4.4-1,6.8-0.7c-0.1-1.3-0.2-2.6,0-3.6c0.3-2.2,1-4.2,2.7-5.8c1.7-1.5,4.6-1.7,5.9-3c-0.3-0.6-0.5-1.2-0.9-1.8
		c0.7-0.5,1.5-1,2.3-1.5c0.3-1.6,0.4-3.4,0.9-4.7c1.1-2.7,4.3-4.6,7-3.3c0.9-0.1,1.9,0,2.8,0.3c0.4-1.5,0.6-3.3,0.8-4
		c0.8-3.1,1.9-5.8,5-7.2c1.4-0.6,3.2-0.6,4.7-0.1c0.6,0,1.2,0.1,1.8,0.3c0.2-0.6,0.4-1.1,0.6-1.7c-1.1-1.9-0.9-4.4,0.3-6.7
		c1.6-3.1,5.5-2.9,7.9-1c0.4,0.4,0.8,0.7,1.1,1.1c0.4,0,0.8-0.1,1.2-0.1c0-0.8,0.1-1.6,0.3-2.4c-0.4-3,0.3-6.2,2-8.8
		c0.1-0.4,0.2-0.7,0.3-1.1c0.8-2.5,2.8-3.6,4.8-3.5c0.1-0.3,0.1-0.6,0.2-0.9C1029.8,149.1,1025.3,148.5,1020.6,149.4z"/>
	<g>
		<path class="st2" d="M144.4,175.4c-31.6,0.9-58.2,50.5-58.5,51c-0.4,0.8-1.3,1.3-2.2,1.3c-0.4,0-0.8-0.1-1.2-0.3
			c-1.2-0.6-1.7-2.2-1-3.4c1.1-2.1,28.3-52.6,62.8-53.7c13.4-0.4,25.9,6.7,37.3,21.2c-17.1-57-69.8-81.6-70.4-81.9
			c-1.3-0.6-1.8-2.1-1.2-3.3s2.1-1.8,3.3-1.2c0.7,0.3,16.1,7.4,33.4,23.1c10.2,9.3,22.2,22.8,31.3,40.8
			c-0.4-22.2-9.2-103.3-118.8-87.2c0,0,8.5,51.9,49.6,78.4c9.2-1.9,17.8-2.6,25.7-2.2c1.4,0.1,2.4,1.3,2.4,2.6
			c-0.1,1.1-0.8,2-1.9,2.3c-17.3-1.4-38.1,3.4-55.7,17.6c-21.1,17.1-28.9,47.2-27.9,83.9c0,0,77.5-22.5,100.3-88.5
			C149.2,175.6,146.8,175.3,144.4,175.4z"/>
		<path class="st2" d="M286.1,167.9C286,167.9,286,167.9,286.1,167.9c-5.7-3-22.9-11.1-41.9-10.5c27.9,7.6,50.8,41.1,52,42.9
			c0.8,1.1,0.5,2.7-0.7,3.5c-0.4,0.3-0.9,0.4-1.4,0.4c-0.8,0-1.6-0.4-2.1-1.1c-0.4-0.6-37.4-54.9-72-39.4
			c-6.4,3.6-12.1,8.6-16.9,15.1c-3.8,5.5-7.1,11.4-9.7,17.8c-0.1,0.3-0.2,0.6-0.3,0.8l-0.2,1c0,0,13.3-15.1,34.1-14.2l0,0
			c18.8,22.7,53,53.7,101.1,54.5C326.3,202.4,299.9,175.8,286.1,167.9z"/>
		<path class="st2" d="M291.7,165.8c-0.8,0.3-1.7,0.7-2.6,1C290,166.5,290.8,166.1,291.7,165.8z"/>
		<path class="st2" d="M179.8,173c3.3,7.2,6.2,15,8.3,23.6c0.3-0.8,0.6-1.6,0.9-2.4c3-7.4,6.6-13.8,10.7-19.2
			c12.6-17.7,31.6-32.7,56.1-44.3c27.4-12.9,51.7-17,52.7-17.2c1.4-0.2,2.6,0.7,2.9,2.1s-0.7,2.6-2.1,2.9c-0.2,0-24.7,4.1-51.5,16.8
			c-10.7,5-22.7,11.9-33.7,21.1c1.8-0.7,3.5-1.3,5.4-1.8c29.4-8,60,9.1,61.8,10.8c0.1,0.1,0.2,0.3,0.3,0.4
			c49.1-20.2,62.6-62,62.6-62C234.9,53.8,189.4,148.2,179.8,173z"/>
		<path class="st2" d="M288.8,166.9c-0.8,0.3-1.6,0.6-2.5,0.9C287.2,167.5,288,167.2,288.8,166.9z"/>
	</g>
	<path class="st4" d="M118.2,321.8c0,0-30.1-76.1,44.4-120c0,0,8.2,5.6,28.3,5.6s27-5.6,27-5.6c74.5,43.9,44.4,120,44.4,120
		l-27.2,79.1c0,0-11.8,7.1-25.6,5.1"/>
	<path class="st2" d="M530.3,382.1c-16.2-4.5-29-2.3-36.1-0.3c-2.9,0.7-5.6,1.7-8.1,2.9c-3.4,1.6-6.7,3.8-9.5,6.3
		c-1.6,1.4-0.7,4.3,1.5,4.4c3.3,0.1,4.8-0.1,7.6-0.1c1.5,0,3.4-0.8,4.4-1.7c3.2-2.6,9.2-8.6,21.5-9.1c0,0,0,0,0,0c0.1,0,0.2,0,0.3,0
		c5,0,10.8,0.7,17,2.4c1.3,0.4,2.7-0.4,3.1-1.7C532.4,383.8,531.6,382.5,530.3,382.1z"/>
</g>
</svg>
