<?xml version="1.0" encoding="utf-8"?>
<!-- Generator: Adobe Illustrator 25.3.1, SVG Export Plug-In . SVG Version: 6.00 Build 0)  -->
<svg version="1.1" xmlns="http://www.w3.org/2000/svg" xmlns:xlink="http://www.w3.org/1999/xlink" x="0px" y="0px"
	 viewBox="0 0 1108.34 1036" style="enable-background:new 0 0 1108.34 1036;" xml:space="preserve">
<style type="text/css">
	.st0{fill:none;}
	.st1{fill:#FFFFFFDD;}
	.st2{fill:#0E232F;}
	.st3{fill:url(#Nouvelle_nuance_de_motif_2);}
	.st4{fill:none;stroke:#FFFFFFDD;stroke-width:5;stroke-linecap:round;stroke-miterlimit:10;}
	.st5{fill:#FFFFFFDD;stroke:#FFFFFFDD;stroke-width:5;stroke-linecap:round;stroke-miterlimit:10;}
</style>
<pattern  x="-403.06" y="1025.45" width="11.01" height="11.01" patternUnits="userSpaceOnUse" id="Nouvelle_nuance_de_motif_2" viewBox="0.21 -11.01 11.01 11.01" style="overflow:visible;">
	<g>
		<rect x="0.21" y="-11.01" class="st0" width="11.01" height="11.01"/>
		<circle class="st1" cx="2.74" cy="-8.45" r="2.5"/>
		<rect x="0.21" y="-11.01" class="st0" width="11.01" height="11.01"/>
	</g>
</pattern>
<g id="Calque_3">
	<rect class="st2" width="1108.34" height="1036"/>
</g>
<g id="Calque_2">
	<path class="st3" d="M278.91,815.32c-0.21-1.97-0.24-3.85-0.11-5.78c-0.14-4-0.45-7.97-1.07-11.93c0-0.01,0-0.01-0.01-0.02
		c-0.32-1.1-0.46-2.1-0.51-3.23c-0.56-2.71-1.46-5.36-2.21-8c-0.02-0.07-0.03-0.13-0.04-0.2c0.47-1.24,0.7-2.62,0.78-4.06
		c0.25-0.31,0.54-0.59,0.86-0.82c-0.27-0.14-0.55-0.28-0.83-0.42c0-1.9-0.21-3.82-0.43-5.54c-0.14-1.04-0.49-1.98-1-2.8
		c-0.02-0.72-0.03-1.45-0.06-2.17c-0.18-4.17-4.02-7.45-8.23-6.27c-0.85,0.34-1.74,0.51-2.65,0.51c-0.96,0.06-1.82,0.29-2.57,0.65
		c-1.19,0.01-2.38,0.02-3.57,0.02c-0.44-0.09-0.89-0.13-1.38-0.11c-1.01,0.03-2.02,0.07-3.02,0.1c-0.9,0.03-1.7,0.21-2.41,0.5
		c-2.4,0.16-4.81,0.16-7.23,0.06c-1.57-0.02-2.84,0.41-3.81,1.13c-1.29,0.07-2.36,0.47-3.21,1.09c-3.97-0.72-8.04-1.33-12.21-1.81
		c-9.14,2.41-18.34,3.97-27.39,6.99c-9.72,3.24-19.37,6.72-29.49,8.48c-1.98,0.34-3.73-0.41-4.89-1.65c-0.3,0.09-0.6,0.19-0.9,0.28
		c-0.39,0.12-0.77,0.19-1.13,0.23c-0.96,0.4-1.92,0.81-2.88,1.21c-0.39,0.74-1.03,1.38-1.95,1.8c-5.71,2.63-11.01,5.98-16.85,8.33
		c-1.03,0.41-2.02,0.36-2.91,0.02c-0.85,0.34-1.72,0.65-2.6,0.93c-0.09,0.29-0.21,0.57-0.35,0.83c-0.09,0.17-0.19,0.33-0.28,0.49
		c-0.18,0.82-0.56,1.6-1.19,2.23l-1.36,1.36c-1.51,1.51-3.28,1.75-4.81,1.24c-1.23,0.62-2.49,0.52-3.58-0.02
		c-0.94,0.54-1.88,1.08-2.83,1.61c-1.39,0.77-2.7,0.88-3.82,0.55c-0.31,0.16-0.63,0.32-0.94,0.48c-0.36,0.18-0.72,0.31-1.07,0.41
		c-0.1,1-0.61,2.01-1.66,2.9c-0.18,0.16-0.36,0.32-0.54,0.48c-0.14,0.87-0.5,1.75-1.16,2.59c-1.81,2.29-4.02,4.12-6.13,6.13
		c-0.61,0.59-1.28,0.95-1.97,1.17c-0.07,0.63-0.27,1.28-0.65,1.9c-2.1,3.44-3.55,6.84-4,10.53c0.65,0.67,1.14,1.51,1.37,2.51
		c0.52,0.97,0.63,2.16,0.08,3.47c-0.1,0.25-0.2,0.47-0.29,0.7c-0.02,0.11-0.03,0.21-0.05,0.32c-0.04,0.25-0.1,0.48-0.17,0.7
		c4.51,9.39,13.49,17.83,25.64,24.68c0.88-0.72,1.97-1.15,3.07-1.07c0.67,0.05,1.35,0.13,2.01,0.27c0.34,0.07,1.39,0.17,0.03,0.07
		c2.8,0.21,4.87,2.13,5,5c0.01,0.24-0.01,0.48-0.04,0.71c6.22,2.71,13.05,5.05,20.33,6.97c0.5-0.26,1.01-0.52,1.52-0.77
		c0.46-0.34,0.96-0.62,1.48-0.84c0.38-0.16,0.76-0.26,1.16-0.33c0.41-0.12,0.82-0.23,1.23-0.35c2.7-0.74,5.32,0.91,6.15,3.49
		c0.06,0.19,0.11,0.39,0.14,0.59c0.11,0.28,0.19,0.58,0.25,0.89c0.18,0.03,0.36,0.06,0.53,0.09c0.47,2.78,2.53,5.23,6.17,5.23
		c2.83,0,4.7-1.49,5.61-3.45c7.56,0.9,15.42,1.38,23.49,1.38c10.72,0,21.06-0.83,30.82-2.38c0.02,0.19,0.05,0.37,0.09,0.56
		c0.04,0.87,0.3,1.67,0.77,2.42c0.34,0.44,0.68,0.88,1.02,1.32c0.81,0.81,1.77,1.36,2.87,1.67c0.58,0.08,1.15,0.15,1.73,0.23
		c1.17,0,2.27-0.3,3.28-0.89c0.23-0.12,0.45-0.23,0.68-0.35c0.76-0.41,1.37-0.97,1.82-1.67c0.57-0.63,0.96-1.36,1.16-2.21
		c0.27-0.86,0.31-1.73,0.12-2.59c-0.02-0.39-0.09-0.76-0.19-1.12c0.33-0.08,0.65-0.17,0.98-0.25c0.34-1.98,1.51-3.71,3.73-4.26
		c1.45-0.36,2.62-0.15,3.59,0.4c0.02,0,0.04,0,0.05,0.01c0.25,0.05,0.49,0.12,0.72,0.21c0.42,0.15,0.8,0.34,1.14,0.55
		c0.3,0.06,0.58,0.15,0.86,0.25c3.75-1.2,7.36-2.51,10.79-3.93c-0.07-0.54-0.08-1.09,0.02-1.67c0.28-1.62,1.12-2.8,2.27-3.56
		c0.28-0.3,0.58-0.55,0.89-0.76c-3.85-1.96-3.22-6.7-1.19-10.03c0.14-0.24,0.32-0.45,0.51-0.66c-0.53-0.37-0.96-0.86-1.28-1.46
		c-1.25-1.48-1.92-3.44-1.61-5.91c0.46-3.73,4.05-6.07,7.26-4.42c0.17,0.03,0.34,0.06,0.5,0.11c0.57,0.02,1.12,0.14,1.63,0.38
		c0.43,0.05,0.86,0.16,1.28,0.34c-0.08-0.37-0.13-0.75-0.12-1.17c0.05-1.92,0.25-3.68,0.69-5.35c-0.62-0.79-1.01-1.74-1.03-2.82
		c-0.04-2.9,0.71-5.06,2.04-7.63c0.07-0.13,0.15-0.24,0.23-0.35c0.16-1.04,0.27-2.11,0.32-3.18
		C279.35,817.09,279.02,816.29,278.91,815.32z"/>
	<path class="st3" d="M466.06,896.68c-0.23-0.91-0.24-1.81-0.07-2.72c-0.27-0.56-0.43-1.19-0.45-1.88c-0.03-1.1,0.11-1.99,0.37-2.86
		c0.16-1.77,0.1-3.55-0.06-5.32c-0.14-0.39-0.25-0.81-0.31-1.27c-0.29-2.39-0.65-4.74-0.77-7.15c-0.06-1.29,0.42-2.38,1.19-3.21
		c-0.38-0.11-0.77-0.21-1.15-0.32c0.01,0.15,0.02,0.31,0.01,0.47c0.03,0.69-0.12,1.33-0.43,1.93c-0.06,0.2-0.17,0.37-0.26,0.55
		c-0.12,0.31-0.27,0.66-0.4,0.9c-0.01,0.02-0.02,0.05-0.04,0.07c-0.01,0.02-0.03,0.04-0.04,0.06c-0.18,0.27-0.59,0.8-0.81,1.04
		c-0.45,0.49-0.99,0.83-1.61,1.03c-0.39,0.23-0.81,0.34-1.26,0.34c-0.44,0.12-0.89,0.12-1.33,0c-0.45,0-0.87-0.12-1.26-0.34
		c-0.62-0.2-1.16-0.55-1.61-1.03c-0.26-0.34-0.52-0.67-0.78-1.01c-0.17-0.4-0.34-0.8-0.5-1.19c-0.02-0.17-0.05-0.35-0.07-0.52
		c-0.17-0.51-0.28-1.04-0.28-1.58c0-1.03,0.32-1.98,0.86-2.81c-10.66-1.59-22.46-1.3-34.57,1.21c-0.26-0.43-0.57-0.83-0.94-1.2
		c-0.44-0.34-0.88-0.68-1.32-1.02c-1.01-0.59-2.11-0.88-3.28-0.89h-0.26c-0.89-0.03-1.73,0.15-2.5,0.56
		c-0.81,0.26-1.5,0.71-2.09,1.34c-0.63,0.59-1.08,1.29-1.34,2.09c-0.39,0.75-0.58,1.56-0.56,2.43c-0.11,0.04-0.23,0.07-0.35,0.11
		c-0.04,0.51-0.1,1.02-0.19,1.51c-0.1,0.62-0.4,1.17-0.65,1.74c-0.5,1.16-1.84,1.92-2.99,2.3c-1.29,0.42-2.69,0.11-3.85-0.5
		c-0.6-0.31-1.13-0.84-1.55-1.44c-8.97,4.02-16.84,9.12-23.23,14.92c0.67,0.61,1.19,1.4,1.49,2.32c0.83,2.56-0.97,5.48-3.49,6.15
		c-0.74,0.2-1.49,0.25-2.24,0.29c-1.04,0.23-2.08,0.12-3.06-0.29c-0.14-0.06-0.29-0.14-0.43-0.21c-3.22,4.1-5.77,8.42-7.51,12.84
		c1.2,0.39,2.19,1.23,2.63,2.56c0.96-1.37,2.54-2.35,4.68-2.53c2.43-0.21,4.64,0.76,6.04,2.39c1.1,0.66,1.98,1.63,2.46,2.87
		c0.77,0.14,1.59,0.39,2.44,0.78c1.76,0.8,2.46,2.24,2.45,3.75c1.78,0.81,3.42,1.88,4.85,3.15c0.38-0.35,0.82-0.64,1.31-0.84
		c0.91-0.9,2.11-1.53,3.41-1.63c3.12-0.23,6.29,0.71,9.05,2.3c1.86-1.47,4.84-1.82,7-0.07c1.33,1.07,2.49,2.28,3.55,3.56
		c0.09,0.09,0.19,0.17,0.28,0.27c0.34,0.34,0.6,0.71,0.8,1.1c0.86,1.14,1.68,2.33,2.47,3.54c0.47,0.23,0.92,0.55,1.33,0.98
		c2.54,2.69,3.91,5.9,5.12,9.36c0.4,1.15,0.32,2.22-0.07,3.13c0.07,0.51,0.14,1.02,0.21,1.53c1.62-1.48,3.8-2.36,5.84-2.44
		c0.48-0.19,0.99-0.36,1.53-0.49c1.77-2.2,3.23-5.16,4.52-7.46c0.19-0.74,0.54-1.46,1.06-2.1c0.28-0.4,0.62-0.74,1.02-1.02
		c1.52-1.28,3.51-1.43,5.21-0.86c0.29-0.03,0.58-0.06,0.88-0.09c0.21-0.02,0.41-0.03,0.61-0.02c0.14-1.3,0.53-2.54,1.13-3.72
		c-0.28-1.45,0.07-3.01,1.36-4.24c1.63-1.56,3.14-2.55,5.27-3.33c0.79-0.29,1.54-0.34,2.24-0.21c0.51-0.21,1.03-0.4,1.59-0.55
		c0.88-0.24,1.75-0.19,2.57,0.05c0.01,0,0.01-0.01,0.02-0.01c-0.47-0.74-0.77-1.58-0.83-2.46c-0.73-1.34-0.79-2.96,0.37-4.48
		c0.25-0.33,1.07-1.53,1.65-2.25c0.2-0.53,0.5-1.06,0.92-1.57c1.48-1.77,2.92-3.51,4.6-5.11c0.78-0.74,1.67-1.17,2.58-1.34
		c1.67-2.07,2.92-4.12,3.58-6.54C466.91,899.23,466.24,898.08,466.06,896.68z"/>
	<path class="st3" d="M278.4,466.21v-1.98c-0.03-0.42-0.02-0.84,0-1.26v-0.33c0.01,0,0.01,0,0.02,0c0.03-0.45,0.08-0.89,0.16-1.33
		c0.01-0.07,0.04-0.13,0.06-0.2c-0.15-0.47-0.24-0.97-0.24-1.53c0.02-2.98,0.12-5.98,0.21-8.97c-0.29-7.05-0.68-14.1-0.72-21.15
		c-0.01-1.34,0.54-2.44,1.36-3.25l-9.13-50.38l-54.98-23.47c0,0-7.83,19.89-6.81,29.61c0,0,0.89,4.91,2.95,13.3
		c-0.5,0.95-0.77,1.97-0.77,3.05v0.51c-0.03,0.89,0.15,1.73,0.56,2.5c0.26,0.81,0.71,1.5,1.34,2.09c0.37,0.4,0.79,0.71,1.24,0.96
		c0.33,1.2,0.67,2.43,1.03,3.7c0.75-0.12,1.53-0.08,2.25,0.09c0.65,0.15,1.22,0.45,1.7,0.89c0.54,0.35,0.97,0.82,1.29,1.4
		c0.37,0.57,0.56,1.19,0.59,1.86c0.13,0.58,0.12,1.16-0.03,1.74c-0.01,0.19-0.01,0.39-0.01,0.58c0,1.36-0.56,2.56-1.46,3.54
		c-0.1,0.11-0.22,0.18-0.33,0.28c-0.06,0.08-0.11,0.16-0.18,0.23c-0.16,0.17-0.35,0.31-0.53,0.45c2.04,6.55,4.46,13.75,7.28,21.38
		c0.64-0.21,1.3-0.31,1.96-0.23c0,0,0.01,0,0.01,0c2.7-0.12,5,2.38,5,5v6.13c0,1.35-0.54,2.52-1.39,3.4
		c1.05,2.55,2.14,5.13,3.27,7.73c-0.24,0.36-0.43,0.75-0.57,1.17c-0.41,0.77-0.59,1.61-0.56,2.5c0.08,0.58,0.15,1.15,0.23,1.73
		c0.31,1.1,0.87,2.06,1.67,2.87c0.44,0.34,0.88,0.68,1.32,1.02c0.78,0.45,1.61,0.73,2.49,0.83c0.14,0.3,0.29,0.61,0.44,0.91
		c1.82,0.1,3.59,1.13,4.39,2.85c0.67,0.79,1.07,1.81,0.97,3.07c-0.04,0.48-0.1,0.91-0.18,1.33c0,0,0,0,0,0
		c-0.16,0.82-0.3,1.64-0.42,2.46c0.4,0.79,0.81,1.58,1.22,2.36c-0.85,1.01-1.4,2.36-1.4,4.06v0.32c0,4.45,3.67,6.53,7.11,6.25
		c1.04,1.85,2.1,3.7,3.18,5.54c0.38,4.17,0.93,8.32,1.68,12.44c0.57,3.14,4.2,5.1,7.13,4.66c3.17-0.48,5.62-3.08,5.64-6.38
		c0-0.46,0.01-0.92,0.01-1.38c0.01-1.17-0.25-2.17-0.68-3.02c-0.05-0.35-0.1-0.7-0.15-1.06l11.96-37.71
		C278.86,468.48,278.4,467.36,278.4,466.21z"/>
	<path class="st3" d="M158.3,240l113.85-63.45c-12.78-16.48-11.51-72.42-11.51-72.42l-169.6,62.51
		c-11.09,74.72,46.14,122.04,46.14,122.04l0.66-0.22c0.28,1.11,0.79,2.18,1.65,2.88c1.47,1.2,2.51,1.85,4.29,2.53
		c0.31,0.12,0.61,0.22,0.94,0.28c1.31,0.26,2.82,0.51,4.13,0.09c2.84-0.92,5.14-3.56,5.02-6.69c-0.06-1.42-0.52-2.81-1.29-3.96
		l2.93-0.97c0.32,0.66,0.73,1.27,1.26,1.81c0.44,0.34,0.88,0.68,1.32,1.02c1.01,0.59,2.11,0.88,3.28,0.89h0.51
		c0.89,0.03,1.73-0.15,2.5-0.56c0.81-0.26,1.5-0.71,2.09-1.34c0.63-0.59,1.08-1.29,1.34-2.09c0.41-0.77,0.59-1.61,0.56-2.5
		c-0.06-0.47-0.13-0.93-0.19-1.4l30.03-9.93C190.76,261.02,158.3,240,158.3,240z"/>
	<polyline class="st4" points="509.69,717.96 640.12,758.81 742.68,695.75 	"/>
	<path class="st4" d="M326.46,658.22c-0.11-1.42-0.16-2.87-0.16-4.35c0-17.77,7.89-32.17,17.62-32.17c9.73,0,17.62,14.4,17.62,32.17
		c0,6.27-0.54,10.88-2.23,15.83"/>
	<path class="st4" d="M381.73,648.9c-0.11-1.42-0.16-2.87-0.16-4.35c0-17.77,7.89-32.17,17.62-32.17s17.62,14.4,17.62,32.17
		c0,6.27-0.54,10.88-2.23,15.83"/>
	<line class="st4" x1="260.05" y1="291.84" x2="336" y2="249.51"/>
	<g>
		<g>
			<path class="st1" d="M363.75,961.25c10.44,7.64,18.35,18.65,22.4,30.92c1,3.04,5.83,1.74,4.82-1.33
				c-4.49-13.6-13.14-25.46-24.69-33.91c-1.09-0.8-2.79-0.18-3.42,0.9C362.12,959.1,362.66,960.45,363.75,961.25L363.75,961.25z"/>
		</g>
	</g>
	<g>
		<g>
			<path class="st1" d="M385.62,948.29c10.82,7.6,18.98,18.78,23.15,31.31c1.01,3.04,5.84,1.74,4.82-1.33
				c-4.61-13.83-13.52-25.91-25.45-34.29c-1.11-0.78-2.78-0.2-3.42,0.9C383.99,946.12,384.51,947.51,385.62,948.29L385.62,948.29z"
				/>
		</g>
	</g>
	<g>
		<g>
			<path class="st1" d="M463.64,932.57c10.27,7.87,17.9,19.08,21.67,31.43c0.94,3.07,5.77,1.76,4.82-1.33
				c-4.19-13.7-12.61-25.72-23.97-34.42c-1.07-0.82-2.8-0.17-3.42,0.9C461.99,930.43,462.57,931.74,463.64,932.57L463.64,932.57z"/>
		</g>
	</g>
	<g>
		<g>
			<path class="st1" d="M485.79,920.09c10.65,7.84,18.53,19.23,22.42,31.84c0.95,3.07,5.77,1.76,4.82-1.33
				c-4.3-13.93-12.97-26.18-24.72-34.82c-1.09-0.8-2.79-0.18-3.42,0.9C484.15,917.94,484.7,919.29,485.79,920.09L485.79,920.09z"/>
		</g>
	</g>
	<path class="st4" d="M651.91,368.45c1.01,3.83,1.54,7.95,1.54,12.3c0,28.81-23.36,57.13-52.17,63.24
		c-21.56,4.58-39.75-3.93-47.7-20.89"/>
	<path class="st4" d="M847.67,727.22c16.5,2.31,60.24,4.69,60.24-40.92V527.32"/>
	<path class="st4" d="M722.72,467.06l135.96,45.96c26.54,8.64,50.25,19.06,78.96,2.38l100.71-61.96
		c19.01-12.94,23.2-33.43,14.34-43.99"/>
	<line class="st4" x1="962.51" y1="542.97" x2="1013.32" y2="511.72"/>
	<circle class="st1" cx="326.81" cy="408" r="68.94"/>
	<path class="st4" d="M276.09,765l17.01-243.12l37.79,74.04c24-14.3,57.19-12.77,57.19-12.77l23.15-83.74
		c0,0,46.81,277.79,51.4,316.6c4.6,38.81,16.34,105.19-42.89,128.68"/>
	<line class="st4" x1="270.13" y1="850.21" x2="276.09" y2="765"/>
	<g>
		<g>
			<path class="st1" d="M381.29,698.28c4.63,4.26,10.29,7.21,16.57,7.99c5.59,0.69,11.47-0.63,16.09-3.91
				c2.93-2.08,5.31-4.74,7.17-7.81c1.67-2.76-2.65-5.28-4.32-2.52c-3.21,5.31-8.55,8.98-14.59,9.39
				c-6.43,0.43-12.63-2.28-17.38-6.66C382.46,692.56,378.92,696.09,381.29,698.28L381.29,698.28z"/>
		</g>
	</g>
	<g>
		<g>
			<path class="st1" d="M341.99,703.73c4.09,5.95,10.31,9.69,17.55,10.16c6.8,0.44,13.59-2.15,18.75-6.51
				c2.94-2.49,5.34-5.69,6.87-9.23c0.54-1.24,0.37-2.68-0.9-3.42c-1.06-0.62-2.88-0.35-3.42,0.9c-2.29,5.27-6.51,9.42-11.59,11.59
				c-5.01,2.13-10.84,2.43-15.59,0.23c-3.02-1.4-5.45-3.47-7.36-6.24c-0.76-1.11-2.2-1.61-3.42-0.9
				C341.78,700.95,341.22,702.61,341.99,703.73L341.99,703.73z"/>
		</g>
	</g>
	<path class="st1" d="M360.26,670.93l2.47-8.13l-1.19-11.06l-2.89-15.4l-2.66-7.19c-5.5,1.35-9.76,10.78-9.76,22.23
		c0,12.37,4.97,22.4,11.11,22.4c1.43,0,3.57-0.96,4.46-3.77L360.26,670.93z"/>
	<path class="st1" d="M415.53,661.62l2.47-8.13l-1.19-11.06l-2.89-15.4l-2.66-7.19c-5.5,1.35-9.76,10.78-9.76,22.23
		c0,12.37,4.97,22.4,11.11,22.4c1.43,0,3.57-0.96,4.46-3.77L415.53,661.62z"/>
	<path class="st4" d="M125.98,797.2c36.92-20.24,87.03-32.27,143.37-32.27c2.26,0,4.5,0.02,6.74,0.06"/>
	<path class="st4" d="M333.4,970.51c-27.21,11.44-59.7,18.08-94.61,18.08c-95.8,0-173.46-50.07-173.46-111.83
		c0-23.41,13.12-45.13,35.55-63.09"/>
	<path class="st4" d="M91.79,821.66c0,0-35.28-27.28-35.28-66.26c0-70.47,61.96-86.68,61.96-126.25c0-44.3-53.13-36.81-48.4-62.85
		c4.39-24.15,85.84-8.34,85.84,62.85c0,61.74-55.49,70.25-55.49,125.57c0,22.47,24.98,42.79,24.98,42.79"/>
	<g>
		<g>
			<path class="st1" d="M331.24,971.65c2.72,6.02,7.86,10.58,13.37,14.02c5.74,3.58,12.16,6.17,18.75,7.67
				c13.37,3.05,28.84,2.16,40.96-4.71c11-6.24,17.72-18.46,17.91-31.01c0.18-12.33-6.25-24.22-15.77-31.83
				c-12.25-9.81-28.75-12.52-43.87-9.07c-3.14,0.72-1.81,5.54,1.33,4.82c12.12-2.77,25.42-1.15,35.98,5.63
				c9.04,5.81,16.05,15.73,17.16,26.58c1.1,10.71-3.35,22.08-12.12,28.54c-5.17,3.81-11.45,5.83-17.72,6.91
				c-6.03,1.04-12.35,1.07-18.4,0.12c-6.86-1.08-13.52-3.29-19.57-6.71c-5.68-3.2-10.96-7.42-13.7-13.48
				c-0.56-1.23-2.34-1.53-3.42-0.9C330.88,968.97,330.69,970.41,331.24,971.65L331.24,971.65z"/>
		</g>
	</g>
	<g>
		<g>
			<path class="st1" d="M430.89,942.26c2.64,6.2,7.84,10.92,13.4,14.5c5.7,3.67,12.09,6.35,18.67,7.96
				c13.2,3.23,28.49,2.59,40.64-3.94c11.15-6,18.08-18.1,18.54-30.64c0.46-12.43-5.87-24.54-15.34-32.36
				c-12.02-9.92-28.36-12.88-43.43-9.78c-1.32,0.27-2.09,1.84-1.75,3.08c0.38,1.38,1.75,2.02,3.08,1.75
				c12-2.46,25.04-0.6,35.38,6.17c9.1,5.96,16.02,16.12,16.97,27.1c0.92,10.64-3.69,21.92-12.48,28.21
				c-5.22,3.74-11.48,5.66-17.77,6.65c-6.05,0.95-12.37,0.86-18.39-0.18c-6.84-1.18-13.46-3.51-19.47-7.01
				c-5.75-3.35-11.08-7.76-13.74-14.02c-0.53-1.24-2.36-1.52-3.42-0.9C430.5,939.59,430.36,941.01,430.89,942.26L430.89,942.26z"/>
		</g>
	</g>
	<line class="st4" x1="276.09" y1="476.94" x2="219.4" y2="672.05"/>
	<line class="st4" x1="331.74" y1="488.78" x2="311.66" y2="558.22"/>
	<path class="st4" d="M509.69,643.24"/>
	<path class="st4" d="M482.92,590.59"/>
	<path class="st4" d="M747.44,272.27"/>
	<path class="st4" d="M710.94,318.71"/>
	<line class="st4" x1="845.6" y1="386.45" x2="747.44" y2="272.27"/>
	<line class="st4" x1="738.25" y1="350.45" x2="792.45" y2="413.45"/>
	<path class="st4" d="M336,278.47l-104.09,58.01c0,0-10.8,6.03-16.76,15.86c-7.76,12.81-6.81,25.87-6.81,25.87v156.26
		c0,11.98-0.28,40.02,21.79,52.77"/>
	<path class="st4" d="M662.33,272.93l52.03,29c0,0,10.8,6.03,16.76,15.86c7.76,12.81,6.81,25.87,6.81,25.87v97.02"/>
	<path class="st4" d="M459.81,184.56l195.75-109.1c14.69-8.19,32.78,2.43,32.78,19.26v150.96c0,8-4.33,15.36-11.31,19.26
		l-195.75,109.1c-14.69,8.19-32.78-2.43-32.78-19.26V203.82C448.5,195.82,452.83,188.45,459.81,184.56z"/>
	<path class="st4" d="M632.44,120.36l16.55-9.13c5.93-3.27,13.19,1.02,13.19,7.78v119.6c0,3.24-1.76,6.22-4.6,7.78l-16.55,9.13"/>
	<path class="st5" d="M632.44,120.24L632.44,120.24l-153.18,84.54c-2.83,1.56-4.6,4.55-4.6,7.78v119.6c0,6.77,7.26,11.06,13.19,7.78
		l153.18-84.54v0c4.07-6.25,4.59-13.14,4.59-16.38V128.03C645.63,121.26,638.36,116.97,632.44,120.24z"/>
	<g>
		<polygon class="st2" points="591.83,222.86 591.83,246 572.49,256.59 553.28,267.7 553.28,244.56 537.61,252.83 537.61,273.55
			537.61,292.53 555.05,282.83 572.49,273.14 589.93,263.45 607.37,253.76 607.37,234.78 607.37,214.06 		"/>
		<polygon class="st2" points="493.03,223.75 493.03,242.73 493.03,261.7 510.47,252.01 510.47,233.03 510.47,214.06 		"/>
		<polygon class="st2" points="615.06,156.77 615.06,175.49 615.06,194.98 631.09,185.79 631.09,166 631.09,147.57 		"/>
	</g>
	<path class="st4" d="M462.98,375.48l-97.7-58.55c-20.43-14.3-29.28-28.23-29.28-63.64s0-59.59,0-87.16s4.77-49.36,27.23-61.62
		c0,0,85.87-47.83,104.77-58.3s51.8-8.28,81.32-1.4l121.54,28.32"/>
	<path class="st4" d="M448.5,208.34c0-11.97-6.67-19.34-14.56-24.11l-76.04-45.57c-8.36-4.62-18.21-5.94-20.05,3.15"/>
	<path class="st4" d="M239.25,332.39C219.56,268.87,158.3,240,158.3,240l131.64-73.37c0,0,33.47,15.49,46.06,44.43"/>
	<path class="st4" d="M289.94,166.63"/>
	<line class="st4" x1="217.97" y1="241.25" x2="293.93" y2="198.92"/>
	<line class="st4" x1="241.73" y1="265.14" x2="317.68" y2="222.81"/>
	<path class="st4" d="M208.3,438.6C186.1,326.25,34.91,293.48,34.91,293.48l72.73-40.53"/>
	<line class="st4" x1="95.83" y1="285.62" x2="118.94" y2="271.91"/>
	<line class="st4" x1="126.32" y1="300.62" x2="140.6" y2="291.84"/>
	<line class="st4" x1="152.46" y1="318.48" x2="162.72" y2="312.17"/>
	<line class="st4" x1="175.81" y1="339.47" x2="184.49" y2="334.13"/>
	<path class="st4" d="M208.3,395.57c0-47.32-33.63-72.94-67.71-103.73c-33.36-30.14-57.46-73.24-49.25-127.31l169.3-60.41
		c0,0-3.32,44.03,11.51,72.42"/>
	<line class="st4" x1="122.34" y1="184.38" x2="232.16" y2="143.97"/>
	<line class="st4" x1="128.97" y1="216.51" x2="234.55" y2="174.64"/>
	<line class="st4" x1="170.85" y1="277.27" x2="194.79" y2="268.5"/>
	<line class="st4" x1="192.07" y1="302.62" x2="217.97" y2="292.94"/>
	<polyline class="st4" points="208.34,495.83 115.66,364.85 148.99,347.39 	"/>
	<line class="st4" x1="858.69" y1="375.32" x2="858.69" y2="286.72"/>
	<line class="st4" x1="916.09" y1="292.77" x2="916.09" y2="343.91"/>
	<path class="st1" d="M715.58,299.74c0.18,0.1,1.88,1.06,4.27,2.78c22.22-11.44,37.43-34.59,37.43-61.31
		c0-37.23-29.52-67.55-66.44-68.87v73.3c0,8.9-4.83,17.11-12.6,21.44l-10.63,5.93L715.58,299.74z"/>
	<path class="st4" d="M829.62,239.32c0,0,6.13,66.38,86.47,53.45c0,0,17.02-22.81,17.02-49.36"/>
	<ellipse class="st4" cx="840" cy="108.77" rx="54.3" ry="29.45"/>
	<path class="st4" d="M862.61,237.25c-6.88,1.71-14.54,2.67-22.61,2.67c-29.99,0-54.3-13.18-54.3-29.45"/>
	<line class="st4" x1="785.7" y1="210.47" x2="785.7" y2="108.77"/>
	<line class="st4" x1="894.3" y1="137.11" x2="894.3" y2="108.77"/>
	<path class="st1" d="M865.53,214.98c0.01,10.24,19.59,13.16,39.66,9.96c34.54-5.5,38.27-27.75,22.73-38.17
		c0,0-10.31,5.36-18.1,7.19s-21.57,4.17-21.57,4.17S865.51,201.45,865.53,214.98z"/>
	<path class="st1" d="M878.17,175.15c3.54,9.16,30.6,8,40.55-5.11c5.72-7.52,10.55-35.84-8.09-37.45l-0.81,15.74
		C909.83,148.34,872.55,160.6,878.17,175.15z"/>
	<path class="st4" d="M894.3,107.4c1.2-0.1,2.42-0.14,3.65-0.14c25.14,0,45.52,20.38,45.52,45.52c0,20.15-13.09,37.24-31.23,43.23"
		/>
	<path class="st4" d="M894.72,128.21c1.06-0.14,2.13-0.21,3.23-0.21c9.3,0,17.4,5.12,21.64,12.7c2,3.57,3.14,7.69,3.14,12.08
		c0,13.69-11.09,24.78-24.78,24.78"/>
	<path class="st1" d="M915.74,134.29l-7.08-5l-12.09-2.4l-1.76,1.19c0.28,0.43,0.49,0.89,0.55,1.31c0.23,1.49,0.41,2.99,0.54,4.49
		c0.57-0.16,1.13-0.26,1.62-0.26c5.22,0,9.45,4.23,9.45,9.45c0,3.81-2.26,7.1-5.51,8.59l1.28,2.22l6.8,3.41l7.88-5L915.74,134.29z"
		/>
	<line class="st4" x1="894.3" y1="189.12" x2="894.3" y2="202.9"/>
	<path class="st1" d="M931.62,220c-5.26,4.12-13.32,7.91-25.64,9.88c-4.4,0.7-8.73,1.1-12.91,1.24c-0.12,0.01-0.21,0.02-0.21,0.02
		s-20.01-0.24-21.29,8.07c-1.51,10.13,16.48,15.78,35.84,15.45C941.14,254.06,948.25,230.22,931.62,220z"/>
	<path class="st1" d="M880.96,126.89c0,4.85-18.34,12.13-40.96,12.13s-40.96-6.43-40.96-12.13c0-12.27,18.34-22.21,40.96-22.21
		S880.96,114.63,880.96,126.89z"/>
	<path class="st1" d="M996.85,353.79l-8.79-8c-10.94-11.52-28.72-14.13-38.36-14.66c-14.8-0.81-29.42,2.02-39.1,7.59
		c-5.56,3.19-26.73,14.53-51.23,27.65c-47.45,25.4-106.51,57.02-122.36,66.84c-23.6,14.63-39.39,38.67-42.24,64.31
		c-1.86,16.73-17.48,154.16-20.06,176.89l21.5,5.65c0.18-1.62,18.41-161.93,20.43-180.11c0.79-7.11,5.43-31.59,31.97-48.03
		c15.26-9.46,76.46-42.22,121.15-66.15c25.68-13.75,45.85-24.82,51.81-27.96c19.37-10.22,48.65-16.72,68.73-4.09L996.85,353.79z"/>
	<path class="st4" d="M981.28,343.15l60.43,53.79c13.45,11.74,27.4,35.4,27.4,71.15l-0.51,108.43c0,25.19-8.51,54.64-35.74,71.15
		l-98.04,59.57c-17.53,10.89-56.17,30.13-103.15,16.51l-154.51-48.7"/>
	<path class="st4" d="M728.76,772.15"/>
	<polyline class="st4" points="728.76,772.15 892.6,823.42 1041.19,732 	"/>
	<line class="st4" x1="728.76" y1="771.47" x2="814.91" y2="718.47"/>
	<line class="st4" x1="1041.19" y1="732" x2="944.11" y2="701.58"/>
	<circle class="st1" cx="835.06" cy="604.6" r="10.21"/>
	<circle class="st1" cx="835.06" cy="637.62" r="10.21"/>
	<circle class="st4" cx="835.06" cy="686.3" r="17.36"/>
	<g>
		<line class="st4" x1="479.85" y1="591.46" x2="429.03" y2="605.87"/>
		<line class="st4" x1="438.55" y1="663.38" x2="509.69" y2="643.24"/>
		<path class="st4" d="M284.36,646.89l-47.59,13.49c-12.67,3.11-22.06,14.54-22.06,28.16c0,16.02,12.98,29,29,29
			c3.77,0,7.25-0.91,10.67-2.03l25.69-7.27"/>
	</g>
	<path class="st1" d="M934.81,707.23c-17.53,10.89-56.17,30.13-103.15,16.51l-29.37-9.26c4.71,34.78,34.51,61.59,70.58,61.59
		c39.35,0,71.25-31.9,71.25-71.25c0-1.07-0.03-2.14-0.08-3.2L934.81,707.23z"/>
	<line class="st4" x1="962.51" y1="577.53" x2="1013.32" y2="546.27"/>
	<path class="st4" d="M733.08,323.05L522.33,440.51c-23.95,13.62-52.92,18.75-81.48,8.17l-225.7-96.34"/>
	<path class="st4" d="M570.87,573.37c-2.78,18.8-14.49,52.05-61.17,69.87c0,0-22.72-5.11-28.84-30.86
		c-4.12-17.3,2.07-33.32,15.15-49.66"/>
	<path class="st1" d="M628.89,527.16l0.01-0.01l-55.95-34.7l-0.01,0.01c-2.38-1.87-5.37-2.99-8.62-2.99c-7.73,0-14,6.27-14,14
		c0,5.12,2.76,9.59,6.87,12.03l-0.01,0.01l56.04,34.79c0.61,0.45,1.25,0.85,1.93,1.2l0.09,0.06l0.01-0.01
		c1.89,0.95,4.01,1.49,6.26,1.49c7.73,0,14-6.27,14-14C635.51,534.02,632.86,529.63,628.89,527.16z"/>
	<path class="st1" d="M603.45,550.65l0.01-0.01l-55.95-34.7l-0.01,0.01c-2.38-1.87-5.37-2.99-8.62-2.99c-7.73,0-14,6.27-14,14
		c0,5.12,2.76,9.59,6.87,12.03l-0.01,0.01l56.04,34.79c0.61,0.45,1.25,0.85,1.93,1.2l0.09,0.06l0.01-0.01
		c1.89,0.95,4.01,1.49,6.26,1.49c7.73,0,14-6.27,14-14C610.06,557.51,607.41,553.12,603.45,550.65z"/>
	<path class="st1" d="M654.34,503.67l0.01-0.01l-55.95-34.7l-0.01,0.01c-2.38-1.87-5.37-2.99-8.62-2.99c-7.73,0-14,6.27-14,14
		c0,5.12,2.76,9.59,6.87,12.03l-0.01,0.01l56.04,34.79c0.61,0.45,1.25,0.85,1.93,1.2l0.09,0.06l0.01-0.01
		c1.89,0.95,4.01,1.49,6.26,1.49c7.73,0,14-6.27,14-14C660.96,510.53,658.31,506.14,654.34,503.67z"/>
	<path class="st1" d="M541.97,545.36l14.79-18.87l-0.01-0.01c0.95-0.97,1.76-2.09,2.4-3.31l-11.65-7.23l-0.01,0.01
		c-2.38-1.87-5.37-2.99-8.62-2.99c-7.73,0-14,6.27-14,14c0,5.12,2.76,9.59,6.87,12.03l-0.01,0.01L541.97,545.36z"/>
	<path class="st1" d="M529.09,543.25c-1.78-1.1-4.06-3.3-4.06-3.3c-2.98-3.18-4.81-7.34-5.11-11.75l-25.09,31.98
		c-0.51,0.56-0.98,1.15-1.4,1.79l-0.07,0.09l0.01,0.01c-1.15,1.77-1.92,3.82-2.17,6.06c-0.85,7.69,4.7,14.6,12.38,15.45
		c4.99,0.55,9.64-1.6,12.53-5.28l0.01,0.01l22.72-28.98L529.09,543.25z"/>
	<path class="st4" d="M509.69,717.96c0,0,0-11.62,0-19.34s1.45-15.64,8.35-20.49l23.89-14.7c6.91-3.85,17.89-4.79,23.44-3.05
		l102.83,32.07c13.32,3.98,17.24,13.09,17.24,23.26c0,7.72,0,15.23,0,15.23"/>
	<path class="st4" d="M556.72,659.57c0,0,1.45-6.05,8.35-10.9l23.89-14.7c6.91-3.85,17.89-4.79,23.44-3.05l54.44,16.64"/>
	<path class="st4" d="M603.4,630.09c0,0,1.45-4.71,8.35-9.56l23.89-14.7c6.91-3.85,17.89-4.79,23.44-3.05l10.9,3.4"/>
	<line class="st4" x1="640.12" y1="725.5" x2="693.19" y2="692.85"/>
	<line class="st4" x1="597.57" y1="712.6" x2="663.45" y2="672.08"/>
	<line class="st4" x1="554.17" y1="698.38" x2="669.98" y2="627.14"/>
	<path class="st4" d="M509.69,696.88l-20.77,12.78c-12.5,7.2-10.71,22.77-2.92,25.37l163.83,51.27l128.82-79.25"/>
	<polyline class="st4" points="512.43,685.72 640.12,725.68 640.12,758.81 	"/>
	<line class="st4" x1="553.15" y1="731.62" x2="553.15" y2="699.49"/>
	<line class="st4" x1="596.6" y1="745.18" x2="596.6" y2="712.38"/>
	<line class="st4" x1="420.51" y1="295.67" x2="365.28" y2="262.57"/>
	<path class="st4" d="M365.28,233.3"/>
	<line class="st4" x1="420.51" y1="266.39" x2="365.28" y2="233.3"/>
	<line class="st4" x1="420.51" y1="237.12" x2="365.28" y2="204.02"/>
	<path class="st1" d="M801.14,181.11"/>
	<path class="st1" d="M824.24,209.73c0,0-24.48-24.06-24.48-38.2c0-6.94,5.48-11.07,12.24-9.63c6.48,1.38,11.76,7.55,12.2,14.01
		c0.43-6.27,5.67-9.9,12.2-8.79c5.73,0.97,12.89,5.59,12.24,14.86C847.91,192.43,824.24,209.73,824.24,209.73z"/>
	<path class="st3" d="M1046.81,615.83c-0.25-0.19-0.5-0.39-0.75-0.58c0.17-0.14,0.34-0.28,0.5-0.44l0.26-0.26
		c0.63-0.59,1.08-1.29,1.34-2.09c0.41-0.77,0.59-1.61,0.56-2.5c0.03-0.89-0.15-1.73-0.56-2.5c-0.26-0.81-0.71-1.5-1.34-2.09
		c-0.44-0.34-0.88-0.68-1.32-1.02c-1.01-0.59-2.11-0.88-3.28-0.89l-1.73,0.23c-1.1,0.31-2.06,0.87-2.87,1.67l-0.26,0.26
		c-0.63,0.59-1.08,1.29-1.34,2.09c-0.06,0.12-0.11,0.24-0.16,0.36c-0.87-1.43-1.78-2.79-2.75-4.08c0.3-0.09,0.6-0.2,0.88-0.35
		c0.81-0.26,1.5-0.71,2.09-1.34c0.63-0.59,1.08-1.29,1.34-2.09c0.41-0.77,0.59-1.61,0.56-2.5l-0.23-1.73
		c-0.31-1.1-0.87-2.06-1.67-2.87c-0.44-0.34-0.88-0.68-1.32-1.02c-1.01-0.59-2.11-0.88-3.28-0.89h-0.26
		c-0.89-0.03-1.73,0.15-2.5,0.56c-0.81,0.26-1.5,0.71-2.09,1.34c-0.63,0.59-1.08,1.29-1.34,2.09c-0.11,0.21-0.2,0.43-0.28,0.65
		c-1.62-1.21-3.33-2.26-5.1-3.16c7.93-0.44,7.81-12.98-0.43-12.98c-3.08,0-5.02,1.76-5.84,3.99c-0.4-0.4-0.85-0.76-1.35-1.06
		c-0.52-0.22-1.04-0.44-1.55-0.66c-1.15-0.31-2.3-0.31-3.46,0c-0.26,0.09-0.51,0.17-0.77,0.26c-0.85,0.2-1.58,0.59-2.21,1.16
		c-0.44,0.29-0.81,0.66-1.14,1.06c-1.04-1.17-2.58-1.95-4.63-1.95c-4.03,0-6.12,3.02-6.26,6.15c-0.02-0.04-0.03-0.08-0.05-0.11
		c-0.26-0.81-0.71-1.5-1.34-2.09c-0.44-0.34-0.88-0.68-1.32-1.02c-1.01-0.59-2.11-0.88-3.28-0.89l-1.73,0.23
		c-1.1,0.31-2.06,0.87-2.87,1.67c-0.09,0.09-0.17,0.17-0.26,0.26c-0.63,0.59-1.08,1.29-1.34,2.09c-0.41,0.77-0.59,1.61-0.56,2.5
		c-0.03,0.89,0.15,1.73,0.56,2.5c0.05,0.15,0.11,0.28,0.17,0.42c-1.02-0.92-2.41-1.51-4.18-1.51c-6.11,0-7.76,6.92-4.95,10.66
		c-0.43,0.37-0.87,0.72-1.3,1.1c-0.12-0.14-0.25-0.28-0.4-0.41c-0.59-0.63-1.29-1.08-2.09-1.34c-0.77-0.41-1.61-0.59-2.5-0.56
		l-1.73,0.23c-1.1,0.31-2.06,0.87-2.87,1.67c-0.34,0.44-0.68,0.88-1.02,1.32c-0.59,1.01-0.88,2.11-0.89,3.28v0.26
		c-0.03,0.89,0.15,1.73,0.56,2.5c0.26,0.81,0.71,1.5,1.34,2.09c0.13,0.14,0.26,0.26,0.4,0.38c-0.95,1.11-1.89,2.25-2.8,3.42
		c-0.46-0.26-0.96-0.47-1.48-0.62l-1.73-0.23c-1.17,0-2.27,0.3-3.28,0.89c-0.17,0.09-0.34,0.17-0.51,0.26
		c-0.76,0.41-1.37,0.97-1.82,1.67c-0.57,0.63-0.96,1.36-1.16,2.21c-0.27,0.86-0.31,1.73-0.12,2.59c0.04,0.87,0.3,1.67,0.77,2.42
		c0.34,0.44,0.68,0.88,1.02,1.32c0.21,0.2,0.42,0.39,0.65,0.57c-1.68,2.74-3.28,5.57-4.79,8.5c-0.28-0.07-0.57-0.11-0.87-0.13
		c-0.86-0.19-1.73-0.15-2.59,0.12c-0.52,0.22-1.04,0.44-1.55,0.66c-0.98,0.58-1.75,1.36-2.33,2.33c-0.04,0.1-0.09,0.21-0.13,0.31
		c-0.04,0.06-0.09,0.11-0.13,0.18c-0.47,0.75-0.73,1.55-0.77,2.42c-0.19,0.86-0.15,1.73,0.12,2.59c0.22,0.52,0.44,1.04,0.66,1.55
		c0.52,0.88,1.22,1.6,2.07,2.15c-2.55,6.4-4.65,13.07-6.24,19.87c-0.22-0.04-0.44-0.07-0.66-0.1c-10.85-1.22-6.66,18.41-8.09,24.34
		c-1.04,4.32,2.01,7.32,5.39,7.97c0.1,3.2,0.32,6.3,0.69,9.28l114.23-72c-0.38-3.94-1-7.68-1.81-11.23c0.02,0,0.05-0.01,0.07-0.01
		c1.1-0.31,2.06-0.87,2.87-1.67l0.51-0.51c0.63-0.59,1.08-1.29,1.34-2.09c0.41-0.77,0.59-1.61,0.56-2.5
		c0.03-0.89-0.15-1.73-0.56-2.5C1047.89,617.12,1047.44,616.42,1046.81,615.83z"/>
	<path class="st3" d="M442.85,946.7c1.62,0.18,3.08,1.19,3.9,2.57c0.25-0.52,0.61-1.03,1.11-1.48c0.47-0.42,0.96-0.83,1.44-1.24
		c-0.08-0.14-0.16-0.29-0.23-0.44c-1.15-0.49-2.04-1.47-2.55-2.65c-0.69,0.03-1.34-0.04-1.95-0.22
		C444.12,944.32,443.48,945.49,442.85,946.7z"/>
	<path class="st3" d="M499.63,904.43c-0.2,0.95-0.45,1.92-0.54,2.24c-0.28,1.06-0.62,2.08-1,3.08c0.75,1.67,1.3,3.49,1.7,5.35
		C500.3,911.55,500.25,907.97,499.63,904.43z"/>
	<path class="st3" d="M432.11,962.9c-0.64,0.71-1.36,1.34-2.17,1.85c-0.58,1.45-1.47,2.79-2.59,3.95c3.75-0.42,7.55-1.06,11.38-1.91
		c-1.06,0.1-2.13-0.02-3.21-0.44C433.79,965.68,432.58,964.46,432.11,962.9z"/>
	<path class="st3" d="M475.68,911.48c0.19-1.98,0.43-4.08,0.86-6.13c-0.88,2.12-2.05,4.11-3.45,6.05c0.73,0.01,1.46,0.17,2.16,0.5
		C475.4,911.76,475.54,911.62,475.68,911.48z"/>
	<path class="st3" d="M299.39,802.19c0.1-0.21,0.2-0.42,0.29-0.63c0.25-0.54,0.58-0.97,0.94-1.32c-1.17-1.53-2.46-3.02-3.88-4.48
		c0.02,1.49-0.06,3.04-0.19,4.64C297.69,800.63,298.73,801.22,299.39,802.19z"/>
	<path class="st3" d="M629.99,325.79c0.41-0.77,0.59-1.61,0.56-2.5c0.03-0.89-0.15-1.73-0.56-2.5c-0.26-0.81-0.71-1.5-1.34-2.09
		c-0.25-0.19-0.5-0.38-0.74-0.57c-1.4,0.57-3.04,0.55-4.38-0.27c-0.4-0.25-0.78-0.53-1.14-0.84l-0.05,0.01
		c-0.5,0.14-0.97,0.34-1.41,0.58c-0.57-0.65-1.21-1.31-1.91-1.96c0.25-0.33,0.49-0.66,0.74-0.99c-1.05-1.17-1.54-2.72-1.07-4.49
		c0.33-1.25,0.76-2.48,1.29-3.65c-0.52-0.69-1.16-1.28-1.87-1.66c-1.51-0.8-3.34-1.2-5.01-0.66c-0.52,0.22-1.04,0.44-1.55,0.66
		c-0.98,0.58-1.75,1.36-2.33,2.33l-0.88,1.17c-1.53-0.8-3.16-1.6-4.92-2.39L478.1,375.48l-15.97,1.37l-96.85-58.14l-2.66,1.72
		c0.54,0.83,0.85,1.88,0.85,2.8c0,1.22-0.54,2.7-1.46,3.54c-1.98,1.79-4.72,2.36-7.15,1.07c-0.63-0.33-1.15-0.82-1.55-1.38
		l-10.81,6.99c0.02,0.17,0.04,0.34,0.04,0.51v2.55c0,2.8-2.29,4.88-5,5c-1.67,0.07-3.19-0.86-4.1-2.21l-2.32,1.5
		c5.42,0.96,11.27,3.94,15.06,5.79c11.13,5.42,22.27,10.78,31.14,19.58c1.17,1.16,1.58,2.49,1.46,3.74
		c3.46,1.71,6.92,3.42,10.34,5.11c0.67-0.17,1.38-0.21,2.09-0.1h0.45c1.76,0,3.43,0.96,4.32,2.48c0.24,0.41,0.41,0.83,0.52,1.27
		c4.67,2.3,9.15,4.51,13.3,6.55c0.69-0.35,1.45-0.54,2.29-0.6c0.88-0.05,1.71,0.2,2.43,0.63c0.39,0.13,0.78,0.25,1.16,0.39
		c0.04,0.01,0.07,0.03,0.11,0.04c2.32,0.32,4.18,2.38,4.4,4.63c4.65,2.28,8.4,4.11,10.8,5.26c2.56,1.23,5.4,2.35,8.48,3.33
		c-0.11,0.47-0.17,0.94-0.17,1.44v0.51c-0.03,0.89,0.15,1.73,0.56,2.5c0.26,0.81,0.71,1.5,1.34,2.09c0.59,0.63,1.29,1.08,2.09,1.34
		c0.77,0.41,1.61,0.59,2.5,0.56l1.73-0.23c1.1-0.31,2.06-0.87,2.87-1.67c0.34-0.44,0.68-0.88,1.02-1.32
		c0.42-0.73,0.69-1.5,0.81-2.32c0.2,0.03,0.4,0.05,0.6,0.08c-0.22,3.4,1.86,7,6.26,7.01c5.96,0.02,11.92-0.19,17.86-0.64
		c3.5-0.26,6.5-2.8,6.5-6.5c0-0.19-0.01-0.38-0.03-0.56c1.64-0.3,3.3-0.65,4.97-1.04c0.12-1.15,0.57-2.25,1.43-3.11
		c2.19-2.19,5.44-1.74,7.52,0.26c0.08,0.08,0.16,0.17,0.23,0.25c2.47-0.82,4.95-1.76,7.45-2.8c0.14,0.48,0.33,0.94,0.59,1.33
		c0.67,1.04,1.6,1.99,2.72,2.56c0.02-0.05,0.04-0.11,0.06-0.16c1.44-3.62,5.3-4.79,8.36-2.21c-0.48-0.4,0.01-0.2,0.93-0.34
		c0.03,0,0.06-0.01,0.09-0.02c0.03-0.03,0.06-0.06,0.08-0.09c1.21-1.47,2.26-3.11,2.59-5.03c0.2-1.15,0.25-2.25,0.01-3.31
		c2.65-1.29,5.42-2.65,8.26-4.04c0.33,0.82,0.8,1.57,1.4,2.12c0.54,0.49,1.15,0.92,1.81,1.25c1.28-1.09,2.55-2.2,3.8-3.32
		c1.67-1.48,4.17-1.84,6.04-0.82c0.71-1.13,1.27-2.37,1.7-3.63c0.3-0.89,0.3-1.96,0.09-2.97c1.73-0.86,3.48-1.73,5.23-2.61
		c0.53,0.73,1.2,1.37,1.94,1.76c1.51,0.8,3.34,1.2,5.01,0.66c0.52-0.22,1.04-0.44,1.55-0.66c0.98-0.58,1.75-1.36,2.33-2.33
		c1.03-1.35,2.07-2.71,3.1-4.06c0.54-0.7,0.8-1.76,0.85-2.79c3.64-1.83,7.23-3.65,10.74-5.44c0.03,0.05,0.05,0.1,0.07,0.15
		c0.83,1.41,2.3,2.55,3.88,2.99c0.86,0.27,1.73,0.31,2.59,0.12c0.86-0.04,1.67-0.3,2.42-0.77c1.39-0.89,2.61-2.23,2.99-3.88
		c0.16-0.7,0.22-1.42,0.19-2.13c0.16-0.53,0.24-1.08,0.22-1.66c0.01-0.37-0.02-0.73-0.08-1.08c3.08-1.58,6.02-3.09,8.78-4.52
		c0.17,0.29,0.36,0.56,0.59,0.81c0.46,0.71,1.07,1.27,1.82,1.67c1.51,0.8,3.34,1.2,5.01,0.66c1.59-0.51,3.06-1.49,3.88-2.99l1.1-2
		c0.82-1.49,1.11-3.32,0.66-4.98c2.72-1.44,4.98-2.66,6.64-3.57c0.25-0.14,0.49-0.29,0.74-0.43c0.55,1.12,1.4,2.08,2.49,2.65
		c3.23,1.71,6.92,0.72,8.89-2.33l2.38-3.69c1.52-2.35,1-5.77-0.91-7.8C629.28,327.29,629.73,326.6,629.99,325.79z"/>
	<path class="st1" d="M419.3,644.55c0-9.97-2.33-18.83-6.12-25.1c-0.6,0.05-1.24,0.16-1.94,0.38c-1,0.31-1.92,0.83-2.78,1.5
		c3.53,5.49,5.84,13.93,5.84,23.22c0,6.41-0.59,10.62-2.1,15.02c-0.45,1.31,0.25,2.73,1.55,3.18c0.27,0.09,0.54,0.14,0.81,0.14
		c1.04,0,2.01-0.65,2.36-1.69C418.62,656.29,419.3,651.47,419.3,644.55z"/>
	<path class="st1" d="M357.99,628.9c-0.62,0-1.28,0.07-2.02,0.25c-0.98,0.24-1.92,0.75-2.8,1.47c3.54,5.49,5.86,13.95,5.86,23.25
		c0,6.41-0.59,10.62-2.1,15.02c-0.45,1.31,0.25,2.73,1.55,3.18c0.27,0.09,0.54,0.14,0.81,0.14c1.04,0,2.01-0.65,2.36-1.69
		c1.68-4.9,2.37-9.72,2.37-16.64C364.03,643.97,361.73,635.16,357.99,628.9z"/>
</g>
</svg>
