<svg width="33" height="33" viewBox="0 0 33 33" fill="none" xmlns="http://www.w3.org/2000/svg">
<path d="M26.6758 7.26271C26.0718 6.3711 25.2865 6.01446 24.4106 5.98474C24.1992 5.89558 23.9878 5.86586 23.716 5.9253C23.5046 5.98474 23.2932 6.04418 23.0818 6.13334C21.7529 6.48998 20.3938 7.32215 19.4273 8.03543C18.4307 8.77843 17.5246 9.67003 16.7997 10.6508C16.3769 9.37283 15.7427 8.12459 14.8668 7.05467C13.4775 5.30118 11.0312 2.98302 8.4942 3.5477C7.13511 3.8449 6.53107 4.94454 6.34985 6.16306C6.13844 7.67879 6.07804 9.22423 6.16864 10.7697C6.34985 13.8606 7.1049 16.892 8.13177 19.8046C9.30965 23.1629 10.8197 26.4024 12.3601 29.6122C12.8131 30.5929 14.1722 30.0283 14.2326 29.1367C14.4742 29.1961 14.746 29.1664 14.9272 29.0178C19.6689 25.5703 23.4442 21.0231 25.7697 15.7924C26.9174 13.2959 28.3973 9.84835 26.6758 7.26271ZM19.3971 12.6718C20.122 11.691 20.877 10.74 21.6623 9.81863C21.8133 9.64031 21.9643 9.46199 22.1455 9.28367C20.7864 12.642 18.5213 15.6438 16.7997 18.8832C16.7997 18.5266 16.7997 18.17 16.7695 17.8133C16.7695 17.5458 16.6487 17.3081 16.4977 17.1595C17.3736 15.6438 18.34 14.128 19.3971 12.6718ZM10.7593 8.33263L10.7895 8.36235C10.9708 8.60011 11.1218 8.83787 11.303 9.07563C11.3936 9.22423 11.4842 9.37283 11.5748 9.49171C11.454 9.64031 11.3634 9.84835 11.3936 10.0861C11.454 11.0966 11.5144 12.1071 11.5446 13.1176C11.5144 12.9987 11.4842 12.9095 11.4842 12.7906C11.2124 11.483 10.8802 10.1753 10.7593 8.80815C10.7291 8.68927 10.7593 8.51095 10.7593 8.33263ZM18.189 21.2311C19.1857 19.5965 20.273 18.0511 21.4811 16.5651C20.5146 18.17 19.3669 19.7154 18.189 21.2311ZM25.3771 10.2347C25.0449 10.1753 24.7127 10.2347 24.4409 10.4725C24.0784 10.7994 23.7462 11.1263 23.414 11.4532C23.9576 10.3833 24.4107 9.28367 24.7429 8.12459C24.8939 8.24347 25.0147 8.45151 25.1053 8.68927C25.3167 9.16479 25.3771 9.69975 25.3771 10.2347ZM14.7158 10.948C14.2326 9.90779 13.6285 8.89731 12.9943 7.94627C13.7493 8.83787 14.3232 9.87807 14.7158 10.948ZM8.37339 6.48998C8.43379 6.10362 8.46399 5.6281 8.91702 5.50922C9.27945 5.42006 9.73248 5.53894 10.0949 5.65782C9.79288 5.68754 9.46066 5.83614 9.15864 6.13334C8.22238 7.08439 8.64521 8.89731 8.82642 10.0267C9.30965 13.3256 10.1553 16.5651 10.8802 19.8343C11.0614 20.7556 11.2124 21.6472 11.3936 22.5685C10.2459 19.8046 9.24925 16.9812 8.67541 14.0686C8.19218 11.6018 7.98076 8.98647 8.37339 6.48998Z" fill="white" fill-opacity="0.87"/>
</svg>
