<svg width="24" height="24" viewBox="0 0 24 24" fill="none" xmlns="http://www.w3.org/2000/svg">
<path d="M24 12C24 18.6273 18.6273 24 12 24C5.37333 24 0 18.6273 0 12C0 5.37333 5.37333 0 12 0C18.6273 0 24 5.37333 24 12Z" fill="#FFCC4D"/>
<path d="M7.66667 13.6667C8.58714 13.6667 9.33333 12.622 9.33333 11.3333C9.33333 10.0447 8.58714 9 7.66667 9C6.74619 9 6 10.0447 6 11.3333C6 12.622 6.74619 13.6667 7.66667 13.6667Z" fill="#664500"/>
<path d="M16.3333 13.6667C17.2538 13.6667 18 12.622 18 11.3333C18 10.0447 17.2538 9 16.3333 9C15.4128 9 14.6666 10.0447 14.6666 11.3333C14.6666 12.622 15.4128 13.6667 16.3333 13.6667Z" fill="#664500"/>
<path d="M3.99934 9C3.86067 9 3.72001 8.95667 3.60001 8.86667C3.30534 8.646 3.24601 8.228 3.46667 7.93333C5.64134 5.03333 8.54401 5 8.66667 5C9.03467 5 9.33334 5.29867 9.33334 5.66667C9.33334 6.034 9.03667 6.332 8.66934 6.33333C8.56601 6.33467 6.29067 6.39067 4.53334 8.73333C4.40267 8.908 4.20201 9 3.99934 9ZM20.0007 9C19.7973 9 19.598 8.908 19.4667 8.73333C17.706 6.386 15.426 6.334 15.3293 6.33333C14.9627 6.32933 14.6667 6.02933 14.6687 5.66333C14.6707 5.296 14.9667 5 15.3333 5C15.456 5 18.358 5.03333 20.5333 7.93333C20.7547 8.228 20.6947 8.646 20.4 8.86667C20.28 8.95667 20.14 9 20.0007 9ZM15.6567 18.9193C15.6493 18.89 14.8933 16 12 16C9.10667 16 8.35067 18.89 8.34334 18.9193C8.30801 19.0613 8.37267 19.2067 8.49801 19.282C8.62334 19.3567 8.78667 19.3393 8.89534 19.242C8.90134 19.2367 9.57067 18.6667 12 18.6667C14.3933 18.6667 15.078 19.22 15.104 19.242C15.1673 19.302 15.25 19.3333 15.3333 19.3333C15.3893 19.3333 15.446 19.3193 15.4973 19.2907C15.628 19.216 15.6933 19.0647 15.6567 18.9193Z" fill="#664500"/>
<path d="M10.6667 20.6667C10.6667 22.508 9.17467 24 7.33333 24C5.492 24 4 22.508 4 20.6667C4 18.8253 6.66667 14 7.33333 14C8 14 10.6667 18.8253 10.6667 20.6667Z" fill="#5DADEC"/>
</svg>
