<svg width="24" height="24" viewBox="0 0 24 24" fill="none" xmlns="http://www.w3.org/2000/svg">
<path d="M12 0C5.37333 0 0 5.37333 0 12C0 16.034 1.99733 19.5947 5.04933 21.77C5.11867 17.478 3.558 12.6667 0.936 12.6667C0.626667 12.6667 0.376 12.7107 0.167333 12.7887C0.369333 12.284 0.807333 12 1.62667 12C4.47333 12 6.07067 17.6707 5.688 22.192C7.524 23.3313 9.68133 24 12 24C14.3193 24 16.4773 23.3307 18.3133 22.1913C17.9287 17.6533 19.5253 12 22.374 12C23.196 12 23.6353 12.284 23.8353 12.7887C23.626 12.7107 23.3747 12.6667 23.064 12.6667C20.4387 12.6667 18.8787 17.466 18.9507 21.77C22.0033 19.5947 24 16.034 24 12C24 5.37333 18.6273 0 12 0Z" fill="#FFCC4D"/>
<path d="M12 0C5.37333 0 0 5.37333 0 12C0 12.7947 0.082 13.5707 0.229333 14.3227C0.385333 13.7473 0.629333 13.1953 0.934667 12.6667C0.626 12.6667 0.376 12.7107 0.168 12.7887C0.344 12.3493 0.716 12.09 1.34667 12.0273C3.34133 9.24133 7.358 7.33333 12 7.33333C16.6427 7.33333 20.6587 9.24067 22.6533 12.0267C23.2867 12.0893 23.66 12.348 23.8347 12.7887C23.6267 12.7107 23.3753 12.6667 23.066 12.6667C23.3713 13.1953 23.6147 13.7473 23.7713 14.3227C23.9187 13.5707 24 12.7947 24 12C24 5.37333 18.6273 0 12 0Z" fill="#BDDDF4"/>
<path d="M4.89803 7.93998C4.26736 10.0573 4.96936 12.1353 6.46669 12.5813C7.96403 13.028 9.68936 11.6733 10.3194 9.55598C10.95 7.43932 10.2487 5.36065 8.75203 4.91465C7.25469 4.46865 5.52936 5.82332 4.89803 7.93998ZM19.1014 7.93998C19.732 10.0573 19.03 12.1353 17.5334 12.5813C16.036 13.028 14.3107 11.6733 13.6807 9.55598C13.05 7.43932 13.752 5.36065 15.248 4.91465C16.7447 4.46865 18.47 5.82332 19.1014 7.93998Z" fill="#F5F8FA"/>
<path d="M12 12C10.162 12 8.66663 13.4953 8.66663 15.3333V19.3333C8.66663 21.1713 10.162 22.6667 12 22.6667C13.838 22.6667 15.3333 21.1713 15.3333 19.3333V15.3333C15.3333 13.4953 13.838 12 12 12Z" fill="#664500"/>
<path d="M0.935985 12.6666C0.626651 12.6666 0.375985 12.7106 0.167318 12.7886C0.215318 12.6693 0.278651 12.5646 0.354651 12.4713C-0.886682 13.9986 1.89932 19.0266 0.545318 24H4.85198C5.64532 19.36 4.02865 12.6666 0.935985 12.6666ZM23.8353 12.7886C23.626 12.7106 23.3747 12.6666 23.064 12.6666C19.97 12.6666 18.354 19.3346 19.1487 24H23.4553C22.1847 19.3033 24.5593 14.6073 23.8353 12.7886Z" fill="#FCAB40"/>
</svg>
