<svg width="33" height="33" viewBox="0 0 33 33" fill="none" xmlns="http://www.w3.org/2000/svg">
<g clip-path="url(#clip0_3159:189)">
<path d="M16.6888 7.2439C15.4324 7.2439 14.5186 8.27189 14.5186 9.52832C14.5186 10.7848 15.5466 11.8127 16.8031 11.8127C18.0595 11.8127 19.0875 10.7848 19.0875 9.52832C19.0875 8.27189 18.0595 7.2439 16.6888 7.2439C16.8031 7.2439 16.8031 7.2439 16.6888 7.2439ZM16.8031 8.38611C17.4884 8.38611 17.9453 8.84299 17.9453 9.52832C17.9453 10.2136 17.4884 10.6705 16.8031 10.6705C16.1177 10.6705 15.6609 10.2136 15.6609 9.52832C15.6609 8.84299 16.1177 8.38611 16.8031 8.38611Z" fill="white" fill-opacity="0.87"/>
<path d="M16.5751 4.8452C12.1205 4.95942 8.69387 8.72873 8.80809 13.0691C8.80809 13.1834 8.80809 13.4118 8.80809 13.526C6.40945 13.9829 4.01081 14.6682 1.72638 15.582C0.926837 15.9247 0.584174 16.7242 0.926837 17.5237C1.15528 18.0949 1.72638 18.4375 2.29749 18.4375H31.3097C32.1092 18.4375 32.7945 17.7522 32.7945 16.9526C32.7945 16.3815 32.4519 15.8105 31.8808 15.582C29.5963 14.6682 27.1977 13.9829 24.799 13.526C25.2559 9.18561 22.0577 5.18786 17.6031 4.8452C17.2605 4.8452 16.9178 4.73098 16.5751 4.8452ZM17.1462 5.98741C20.9155 6.21585 23.8853 9.41406 23.6568 13.1834C23.6568 13.2976 23.6568 13.2976 23.6568 13.4118C19.088 12.6122 14.5191 12.6122 9.9503 13.4118C9.60764 9.64249 12.4632 6.33007 16.2325 5.98741C16.5751 5.87319 16.8036 5.87319 17.1462 5.98741Z" fill="white" fill-opacity="0.87"/>
<path d="M20.4584 20.4935H19.0878V22.778H17.9456V20.4935H17.3744V24.4913H16.2322V20.4935H15.6611V22.778H14.5189V20.4935H13.1483C11.7776 21.6357 11.6634 23.8059 12.8056 25.1766C13.034 25.405 13.2625 25.6335 13.4909 25.7477C14.8616 26.6615 16.0038 27.9179 16.6891 29.4028C17.3744 27.9179 18.5167 26.6615 19.8873 25.7477C21.3722 24.8339 21.9433 22.778 20.9153 21.1789C20.9153 20.9504 20.6869 20.722 20.4584 20.4935Z" fill="white" fill-opacity="0.87"/>
</g>
<defs>
<clipPath id="clip0_3159:189">
<rect width="32" height="32" fill="white" transform="translate(0.794525 0.794434)"/>
</clipPath>
</defs>
</svg>
