<svg width="24" height="24" viewBox="0 0 24 24" fill="none" xmlns="http://www.w3.org/2000/svg">
<path d="M24 12C24 18.6273 18.6273 24 12 24C5.37333 24 0 18.6273 0 12C0 5.37333 5.37333 0 12 0C18.6273 0 24 5.37333 24 12Z" fill="#FFCC4D"/>
<path d="M12 22C13.8409 22 15.3333 20.2091 15.3333 18C15.3333 15.7909 13.8409 14 12 14C10.159 14 8.66663 15.7909 8.66663 18C8.66663 20.2091 10.159 22 12 22Z" fill="#664500"/>
<path d="M3.99934 7.33337C3.86067 7.33337 3.72001 7.29004 3.60001 7.20004C3.30534 6.97937 3.24601 6.56137 3.46667 6.26671C5.64134 3.36671 8.54401 3.33337 8.66667 3.33337C9.03467 3.33337 9.33334 3.63204 9.33334 4.00004C9.33334 4.36737 9.03667 4.66537 8.66934 4.66671C8.56601 4.66804 6.29067 4.72404 4.53334 7.06671C4.40267 7.24137 4.20201 7.33337 3.99934 7.33337ZM20.0007 7.33337C19.7973 7.33337 19.598 7.24137 19.4667 7.06671C17.7067 4.71937 15.426 4.66804 15.3293 4.66671C14.9627 4.66271 14.6667 4.36271 14.6687 3.99671C14.6707 3.62937 14.9667 3.33337 15.3333 3.33337C15.456 3.33337 18.358 3.36671 20.5333 6.26671C20.7547 6.56137 20.6947 6.97937 20.4 7.20004C20.28 7.29004 20.14 7.33337 20.0007 7.33337Z" fill="#664500"/>
<path d="M12 15.3334C10.8953 15.3334 10 16.5267 10 18H14C14 16.5267 13.1047 15.3334 12 15.3334Z" fill="#F5F8FA"/>
<path d="M8.00004 12C8.92052 12 9.66671 10.9554 9.66671 9.66671C9.66671 8.37804 8.92052 7.33337 8.00004 7.33337C7.07957 7.33337 6.33337 8.37804 6.33337 9.66671C6.33337 10.9554 7.07957 12 8.00004 12Z" fill="#664500"/>
<path d="M16 12C16.9205 12 17.6667 10.9554 17.6667 9.66671C17.6667 8.37804 16.9205 7.33337 16 7.33337C15.0796 7.33337 14.3334 8.37804 14.3334 9.66671C14.3334 10.9554 15.0796 12 16 12Z" fill="#664500"/>
</svg>
