<svg width="33" height="33" viewBox="0 0 33 33" fill="none" xmlns="http://www.w3.org/2000/svg">
<g clip-path="url(#clip0_3159:511)">
<path d="M17.0929 9.49914H19.9501C20.3297 9.49914 20.5495 9.37926 20.5495 8.77986V8.26038H16.4536V8.77986C16.4536 9.37926 16.6733 9.49914 17.0929 9.49914Z" fill="white" fill-opacity="0.87"/>
<path d="M32.1778 8.77986H31.8781V8.4402C31.8781 8.22042 31.8381 8.06058 31.5784 8.06058H31.1588L30.8991 7.80084C30.8192 7.72092 30.7193 7.68096 30.6393 7.68096C30.4795 7.68096 30.3796 7.80084 30.2997 8.06058H20.969V8.77986C20.969 9.5391 20.5894 9.87876 19.95 9.87876H17.0929C16.4136 9.87876 16.0739 9.5391 16.0739 8.77986V8.06058H6.54344V7.58106L6.42356 7.46118H6.12385L5.56441 8.06058H4.88509C4.46551 8.06058 4.32565 8.2404 4.32565 8.62002V11.1375H5.46451V8.7399H5.84413V11.1575H6.44354V8.7399H6.86312V11.1575H7.46252V8.7399H7.84214V11.1575H8.4815V8.7399H8.86112V11.1575H9.50048V8.7399H9.92006V11.1575H10.5195V8.7399H10.9191V11.1575H32.1378L32.2977 10.9976V8.89974L32.1778 8.77986Z" fill="white" fill-opacity="0.87"/>
<path d="M4.2857 11.577C4.24574 11.7369 4.16582 11.7968 4.02596 11.8767C3.80617 11.9966 3.72625 12.2164 3.72625 12.4362C3.72625 12.6959 3.90608 12.9556 4.44554 12.9556C5.84414 12.9556 6.52346 13.9746 6.52346 15.1734C6.52346 15.8927 6.26372 16.652 5.80418 17.3313L5.00498 18.6899C4.2857 19.7489 2.42755 22.7259 2.16781 24.3043C2.08789 24.7239 2.12785 24.9437 2.28769 25.1435C2.54743 25.4432 2.88709 25.603 3.30667 25.7029C3.42655 25.7429 3.64633 25.8228 4.02596 25.8627L3.80617 26.2823C3.68629 26.5021 3.80617 26.6619 3.96602 26.7019C4.34564 26.8218 8.94104 27.4611 9.70028 27.4611C10.0399 27.4611 10.1998 27.4212 10.2198 27.1215L10.2597 26.7818C10.2597 26.7818 10.4795 26.8218 10.5594 26.8218C11.019 26.8218 11.1189 26.4022 11.0789 26.1025C10.8991 25.4232 11.1988 24.2643 11.7982 24.0645C12.1778 23.9447 12.2178 23.7249 12.1378 23.4651C11.958 22.6659 12.3177 21.5471 13.1968 21.2474C13.4565 21.1674 13.4565 20.8677 13.3766 20.6879C13.2168 20.2683 13.2967 19.629 13.6763 19.1095C14.2757 18.2903 14.955 18.0905 15.4545 18.4302C15.7942 18.65 16.3536 18.8498 17.0329 18.8498H22.6873C23.1069 18.8498 23.1468 18.4302 22.987 18.1305C22.8072 17.8308 22.7273 17.4112 22.7273 16.7319V15.3732C22.7273 14.574 23.1868 14.2344 23.7862 14.2344H30.8991C31.7382 14.2344 31.8781 13.9746 31.8781 13.2953V12.6959H32.0379L32.1578 12.576V11.7568L31.998 11.597H4.2857V11.577ZM21.8881 16.592C21.8881 17.4512 21.2887 18.1704 20.3496 18.1704H16.973C15.6543 18.1704 15.1548 17.1115 15.1548 16.2124C15.1548 15.9127 15.1948 15.653 15.3147 15.4132H15.5145C15.5145 16.3523 16.0739 17.2514 16.7532 17.631H17.013L17.1728 17.5111V17.2514C16.8731 16.8717 16.7532 16.4122 16.7532 16.0126C16.7532 15.2933 17.1328 14.6539 17.7322 14.574L20.4895 14.2743C21.4685 14.2344 21.8881 14.7339 21.8881 15.5531V16.592Z" fill="white" fill-opacity="0.87"/>
</g>
<defs>
<clipPath id="clip0_3159:511">
<rect width="32" height="32" fill="white" transform="translate(0.794525 0.794556)"/>
</clipPath>
</defs>
</svg>
