<svg width="33" height="33" viewBox="0 0 33 33" fill="none" xmlns="http://www.w3.org/2000/svg">
<path fill-rule="evenodd" clip-rule="evenodd" d="M19.5145 12.5435C19.2494 12.5435 19.0345 12.7584 19.0345 13.0235H18.0745C18.0745 12.2282 18.7192 11.5835 19.5145 11.5835C20.3098 11.5835 20.9545 12.2282 20.9545 13.0235H19.9945C19.9945 12.7584 19.7796 12.5435 19.5145 12.5435Z" fill="white" fill-opacity="0.87"/>
<path fill-rule="evenodd" clip-rule="evenodd" d="M11.1678 4.77867C12.647 3.06408 14.7217 1.98398 17.1145 2.14349C19.4007 2.14349 21.2224 2.91477 22.5 4.38695C22.85 3.09436 24.0312 2.1435 25.4345 2.1435C27.1135 2.1435 28.4745 3.50455 28.4745 5.1835C28.4745 6.86244 27.1135 8.2235 25.4345 8.2235C25.0126 8.2235 24.6108 8.13754 24.2456 7.98219C24.4596 8.87007 24.5871 9.85358 24.6236 10.9288C24.9316 11.3324 25.1145 11.8366 25.1145 12.3835C25.1145 13.625 24.1718 14.6464 22.9631 14.7708C22.5067 17.7675 19.9188 20.0635 16.7945 20.0635C13.6703 20.0635 11.0824 17.7675 10.626 14.7708C9.41728 14.6464 8.47453 13.625 8.47453 12.3835C8.47453 11.9469 8.59112 11.5375 8.79485 11.1848C8.80372 10.09 8.99734 9.00205 9.34862 7.98001C8.98205 8.13674 8.57842 8.2235 8.15453 8.2235C6.47559 8.2235 5.11453 6.86244 5.11453 5.1835C5.11453 3.50455 6.47559 2.1435 8.15453 2.1435C9.69622 2.1435 10.9699 3.29111 11.1678 4.77867ZM10.5545 10.9792C9.91326 11.1247 9.43453 11.6982 9.43453 12.3835C9.43453 13.0688 9.91326 13.6423 10.5545 13.7878V13.6635V10.9792ZM23.0345 13.6635V10.9792C23.6758 11.1247 24.1545 11.6982 24.1545 12.3835C24.1545 13.0688 23.6758 13.6423 23.0345 13.7878V13.6635ZM11.5145 10.4393V13.8235V14.1653L11.5576 14.5016C11.8897 17.097 14.1086 19.1035 16.7945 19.1035C19.4805 19.1035 21.6993 17.097 22.0315 14.5016L22.0745 14.1653V13.8235V10.2282L21.9145 10.1435L19.3545 8.0635L11.5145 10.4393Z" fill="white" fill-opacity="0.87"/>
<path fill-rule="evenodd" clip-rule="evenodd" d="M14.0745 12.5435C13.8094 12.5435 13.5945 12.7584 13.5945 13.0235H12.6345C12.6345 12.2282 13.2792 11.5835 14.0745 11.5835C14.8698 11.5835 15.5145 12.2282 15.5145 13.0235H14.5545C14.5545 12.7584 14.3396 12.5435 14.0745 12.5435Z" fill="white" fill-opacity="0.87"/>
<path fill-rule="evenodd" clip-rule="evenodd" d="M16.9545 16.7035C17.2196 16.7035 17.4345 16.4885 17.4345 16.2235L18.3945 16.2235C18.3945 17.0187 17.7498 17.6635 16.9545 17.6635C16.1592 17.6635 15.5145 17.0187 15.5145 16.2235L16.4745 16.2235C16.4745 16.4885 16.6894 16.7035 16.9545 16.7035Z" fill="white" fill-opacity="0.87"/>
<path fill-rule="evenodd" clip-rule="evenodd" d="M9.37432 23.2981L9.43297 23.2905L9.49023 23.2758L10.2345 23.0844V26.5555C9.46584 27.0361 8.95452 27.89 8.95452 28.8634C8.95452 29.6978 9.33024 30.4445 9.92172 30.9434H6.07453C5.89779 30.9434 5.75453 30.8002 5.75453 30.6234V27.4234C5.75453 25.3093 7.33241 23.5622 9.37432 23.2981ZM16.3145 30.9434H17.2745V29.6634H17.9145V28.7034H17.2745V27.7434H17.9145V26.7834H17.2745V25.8234H17.9145V24.8634H17.2745V23.9034H17.9145V22.9434H17.2745V21.9834H16.3145V22.9434H15.6745V23.9034H16.3145V24.8634H15.6745V25.8234H16.3145V26.7834H15.6745V27.7434H16.3145V28.7034H15.6745V29.6634H16.3145V30.9434ZM23.3545 23.0844V26.5555C24.1232 27.0361 24.6345 27.89 24.6345 28.8634C24.6345 29.6978 24.2588 30.4445 23.6673 30.9434H27.5145C27.6913 30.9434 27.8345 30.8002 27.8345 30.6234V27.4234C27.8345 25.3093 26.2566 23.5622 24.2147 23.2981L24.1561 23.2905L24.0988 23.2758L23.3545 23.0844ZM14.8265 21.0234H14.3945L9.25116 22.346C6.73684 22.6713 4.79453 24.8205 4.79453 27.4234V30.6234C4.79453 31.3304 5.3676 31.9034 6.07453 31.9034H27.5145C28.2214 31.9034 28.7945 31.3304 28.7945 30.6234V27.4234C28.7945 24.8205 26.8522 22.6713 24.3379 22.346L19.1945 21.0234H18.7625H14.8265Z" fill="white" fill-opacity="0.87"/>
</svg>
